<svg xmlns="http://www.w3.org/2000/svg" xmlns:xlink="http://www.w3.org/1999/xlink" width="500" zoomAndPan="magnify" viewBox="0 0 375 374.999991" height="500" preserveAspectRatio="xMidYMid meet" version="1.0"><defs><clipPath id="cd081ba95c"><path d="M 75 256 L 281 256 L 281 315.953125 L 75 315.953125 Z M 75 256 " clip-rule="nonzero"/></clipPath><clipPath id="aa24af8b60"><path d="M 75 153.203125 L 282 153.203125 L 282 315.953125 L 75 315.953125 Z M 75 153.203125 " clip-rule="nonzero"/></clipPath><clipPath id="cdc0e88b31"><path d="M 110 13.3125 L 262.683594 13.3125 L 262.683594 221 L 110 221 Z M 110 13.3125 " clip-rule="nonzero"/></clipPath><clipPath id="d7fd528d83"><path d="M 214 176 L 272 176 L 272 234.378906 L 214 234.378906 Z M 214 176 " clip-rule="nonzero"/></clipPath><clipPath id="ae39f41270"><path d="M 100.34375 176 L 158 176 L 158 234.378906 L 100.34375 234.378906 Z M 100.34375 176 " clip-rule="nonzero"/></clipPath><clipPath id="ae68df9204"><path d="M 100.34375 143 L 137 143 L 137 198 L 100.34375 198 Z M 100.34375 143 " clip-rule="nonzero"/></clipPath></defs><g clip-path="url(#cd081ba95c)"><path fill="#ffffff" d="M 202.550781 271.769531 C 202.550781 271.769531 199.144531 268.019531 201.863281 263.476562 C 204.273438 259.449219 208.785156 258.835938 214.449219 258.242188 C 219.894531 257.667969 225.96875 257.902344 229.152344 260.984375 C 232.335938 264.066406 231.664062 268.359375 229.554688 270.28125 C 229.554688 270.28125 233.578125 275.785156 236.75 277.417969 C 236.75 277.417969 247.246094 271.070312 259.5625 275.082031 C 271.875 279.097656 279.449219 290.261719 280.585938 298.964844 C 281.722656 307.671875 278.613281 309.96875 277.171875 310.839844 C 275.734375 311.707031 260.164062 315.28125 237.613281 315.335938 C 215.0625 315.386719 199.3125 312.542969 198.363281 311.328125 C 197.414062 310.117188 195.585938 288.917969 202.550781 271.769531 Z M 148.164062 258.078125 C 142.238281 256.390625 135.324219 256.230469 132.75 259.703125 C 130.226562 263.113281 131.328125 266.324219 132.4375 267.726562 C 132.4375 267.726562 128.839844 272 123.742188 273.273438 C 123.742188 273.273438 117.195312 266.324219 103.640625 266.125 C 90.082031 265.925781 80.78125 275.34375 77.867188 283.652344 C 74.957031 291.9375 75.914062 295.386719 77.226562 296.632812 C 78.351562 297.703125 88.691406 305.839844 111.359375 310.332031 C 134.023438 314.824219 155.050781 314.953125 156.128906 313.929688 C 157.207031 312.910156 158.589844 304.796875 159.527344 297.277344 C 160.464844 289.761719 160.1875 279.121094 158.835938 274.871094 C 158.835938 274.871094 162.152344 272.847656 162.097656 268.609375 C 162.039062 263.71875 157.082031 260.617188 148.164062 258.078125 Z M 148.164062 258.078125 " fill-opacity="1" fill-rule="evenodd"/></g><g clip-path="url(#aa24af8b60)"><path fill="#8b3eea" d="M 208.578125 258.339844 C 207.921875 258.488281 207.292969 258.660156 206.695312 258.867188 C 204.382812 259.65625 202.523438 260.917969 201.222656 263.09375 C 198.75 267.226562 200.863281 270.761719 201.695312 271.894531 C 196.558594 284.839844 196.304688 299.953125 196.898438 307.195312 C 196.902344 307.210938 196.902344 307.222656 196.902344 307.238281 C 196.941406 307.683594 196.980469 308.097656 197.023438 308.476562 C 197.15625 309.691406 197.316406 310.589844 197.464844 311.109375 C 197.566406 311.449219 197.683594 311.671875 197.773438 311.789062 C 197.875 311.917969 198.058594 312.078125 198.347656 312.226562 C 198.757812 312.4375 199.464844 312.683594 200.457031 312.941406 C 205.722656 314.296875 219.480469 316.125 237.613281 316.082031 C 253.46875 316.046875 265.886719 314.273438 272.40625 312.914062 C 275.324219 312.308594 277.105469 311.753906 277.558594 311.480469 C 279.09375 310.554688 282.539062 308.144531 281.328125 298.871094 C 280.164062 289.945312 272.414062 278.488281 259.792969 274.375 C 248.542969 270.707031 238.769531 275.464844 236.746094 276.5625 C 234.328125 275.132812 231.53125 271.644531 230.535156 270.34375 C 232.507812 268.019531 232.976562 263.644531 229.671875 260.445312 C 228.304688 259.125 226.453125 258.277344 224.335938 257.792969 C 223.820312 257.675781 223.292969 257.582031 222.753906 257.503906 L 223 261.519531 C 219.8125 211.648438 221.394531 160.539062 221.394531 160.539062 C 221.46875 156.621094 218.351562 153.382812 214.433594 153.308594 C 210.515625 153.234375 207.273438 156.355469 207.199219 160.273438 C 207.199219 160.273438 205.691406 209.238281 208.578125 258.339844 Z M 141.121094 256.179688 C 139.832031 256.140625 138.589844 256.210938 137.453125 256.410156 C 135.164062 256.808594 133.285156 257.730469 132.152344 259.257812 C 129.621094 262.675781 130.402344 265.914062 131.484375 267.664062 C 130.5 268.703125 127.679688 271.378906 123.957031 272.441406 C 122.464844 271.046875 115.804688 265.558594 103.648438 265.378906 C 89.710938 265.171875 80.160156 274.863281 77.160156 283.402344 C 76.148438 286.292969 75.59375 288.613281 75.359375 290.46875 C 75.347656 290.511719 75.34375 290.550781 75.34375 290.59375 C 75.171875 291.980469 75.183594 293.109375 75.308594 294.011719 C 75.523438 295.613281 76.101562 296.59375 76.714844 297.175781 C 77.851562 298.257812 88.289062 306.523438 111.210938 311.066406 C 129.425781 314.675781 146.585938 315.472656 153.273438 315.125 C 154.507812 315.0625 155.402344 314.957031 155.910156 314.828125 C 156.285156 314.730469 156.523438 314.585938 156.644531 314.472656 C 157.011719 314.121094 157.472656 313.066406 157.882812 311.492188 C 157.957031 311.214844 158.03125 310.917969 158.101562 310.605469 C 158.105469 310.59375 158.109375 310.582031 158.109375 310.570312 C 158.882812 307.261719 159.667969 302.195312 160.269531 297.371094 C 161.183594 290.039062 160.9375 279.777344 159.703125 275.167969 C 160.691406 274.382812 162.890625 272.226562 162.84375 268.601562 C 162.8125 265.925781 161.472656 263.71875 158.890625 261.855469 C 157.90625 261.144531 156.734375 260.484375 155.382812 259.859375 C 167.273438 210.84375 166.882812 160.476562 166.882812 160.476562 C 166.921875 156.558594 163.773438 153.34375 159.855469 153.304688 C 155.933594 153.269531 152.722656 156.417969 152.683594 160.335938 C 152.683594 160.335938 153.074219 208.929688 141.121094 256.179688 Z M 222.855469 259.179688 C 222.882812 259.667969 222.914062 260.15625 222.945312 260.640625 C 222.957031 260.835938 222.96875 261.03125 222.980469 261.226562 C 222.992188 261.378906 223 261.527344 223.007812 261.679688 C 223.015625 261.835938 223.015625 261.996094 223.011719 262.15625 C 222.996094 262.527344 222.949219 262.902344 222.851562 263.261719 C 222.742188 263.652344 222.574219 264.027344 222.339844 264.355469 C 222.253906 264.480469 222.160156 264.597656 222.058594 264.707031 C 221.988281 264.78125 221.917969 264.855469 221.84375 264.921875 C 221.363281 265.363281 220.773438 265.664062 220.164062 265.882812 C 220.066406 265.917969 219.96875 265.953125 219.867188 265.984375 C 219.734375 266.027344 219.597656 266.0625 219.464844 266.101562 C 219.292969 266.144531 219.117188 266.183594 218.945312 266.222656 C 218.703125 266.273438 218.460938 266.316406 218.214844 266.351562 C 217.59375 266.449219 216.964844 266.507812 216.335938 266.550781 C 215.902344 266.578125 215.464844 266.601562 215.03125 266.609375 C 214.714844 266.613281 214.402344 266.613281 214.085938 266.601562 C 213.855469 266.59375 213.621094 266.578125 213.390625 266.558594 C 213.21875 266.542969 213.050781 266.523438 212.878906 266.5 C 212.746094 266.484375 212.617188 266.460938 212.484375 266.4375 C 212.386719 266.417969 212.289062 266.398438 212.191406 266.378906 C 211.5625 266.234375 210.941406 266.007812 210.410156 265.632812 C 210.328125 265.574219 210.246094 265.511719 210.164062 265.445312 C 210.054688 265.351562 209.949219 265.25 209.851562 265.140625 C 209.574219 264.839844 209.355469 264.492188 209.199219 264.117188 C 209.050781 263.769531 208.957031 263.40625 208.898438 263.035156 C 208.871094 262.886719 208.855469 262.734375 208.84375 262.582031 C 208.828125 262.433594 208.820312 262.28125 208.8125 262.128906 C 208.796875 261.933594 208.785156 261.734375 208.773438 261.539062 C 208.742188 261.046875 208.710938 260.550781 208.683594 260.058594 L 208.667969 259.851562 C 208.152344 259.976562 207.65625 260.117188 207.175781 260.277344 C 205.210938 260.953125 203.613281 262.007812 202.503906 263.859375 C 200.222656 267.671875 202.753906 270.855469 203.074219 271.230469 C 203.339844 271.441406 205.203125 272.808594 208.855469 273.253906 C 209.265625 273.304688 209.558594 273.679688 209.507812 274.085938 C 209.457031 274.496094 209.082031 274.789062 208.675781 274.738281 C 205.796875 274.386719 203.898438 273.503906 202.902344 272.914062 C 198.152344 285.21875 197.824219 299.390625 198.351562 306.574219 C 200.910156 307.246094 213.3125 310.230469 233.652344 310.59375 C 234.066406 310.601562 234.394531 310.941406 234.386719 311.355469 C 234.378906 311.765625 234.039062 312.09375 233.625 312.089844 C 214.261719 311.742188 202.011719 309.039062 198.492188 308.152344 C 198.496094 308.207031 198.503906 308.261719 198.507812 308.3125 C 198.640625 309.507812 198.902344 310.609375 198.964844 310.855469 C 199.070312 310.910156 199.332031 311.039062 199.578125 311.125 C 200.34375 311.390625 201.546875 311.695312 203.140625 312.007812 C 209.492188 313.25 221.894531 314.625 237.613281 314.589844 C 253.328125 314.550781 265.636719 312.796875 272.101562 311.453125 C 274.75 310.902344 276.375 310.445312 276.785156 310.199219 C 277.492188 309.773438 278.585938 308.976562 279.316406 307.148438 C 274.226562 309.210938 262.535156 311.644531 242.917969 312.070312 C 242.503906 312.078125 242.164062 311.75 242.15625 311.339844 C 242.144531 310.925781 242.472656 310.582031 242.886719 310.574219 C 263.75 310.125 275.5 307.425781 279.773438 305.308594 C 279.796875 305.296875 279.820312 305.289062 279.84375 305.277344 C 280.132812 303.730469 280.191406 301.714844 279.847656 299.0625 C 278.738281 290.578125 271.335938 279.707031 259.328125 275.792969 C 247.351562 271.890625 237.136719 278.058594 237.136719 278.058594 L 237.128906 278.0625 C 237.128906 278.0625 232.574219 280.757812 228.3125 286.652344 C 228.070312 286.988281 227.601562 287.0625 227.265625 286.820312 C 226.933594 286.578125 226.859375 286.113281 227.097656 285.777344 C 230.328125 281.3125 233.726562 278.601562 235.367188 277.441406 C 232.984375 275.757812 230.417969 272.617188 229.402344 271.3125 C 228.359375 272.023438 226.085938 273.367188 223.253906 273.886719 C 222.851562 273.964844 222.460938 273.695312 222.386719 273.289062 C 222.308594 272.882812 222.578125 272.492188 222.984375 272.417969 C 226.355469 271.796875 228.847656 269.890625 229.070312 269.714844 C 230.917969 268.007812 231.4375 264.234375 228.632812 261.519531 C 227.449219 260.378906 225.832031 259.671875 224 259.25 C 223.625 259.164062 223.238281 259.089844 222.84375 259.027344 Z M 140.742188 257.664062 C 139.675781 257.648438 138.65625 257.71875 137.707031 257.882812 C 135.84375 258.207031 134.277344 258.898438 133.351562 260.148438 C 131.109375 263.171875 132.039062 266.015625 133.023438 267.261719 L 133.039062 267.285156 L 133.042969 267.285156 C 133.042969 267.285156 134.253906 268.917969 137.035156 270.289062 C 137.40625 270.472656 137.554688 270.917969 137.375 271.289062 C 137.191406 271.660156 136.742188 271.8125 136.375 271.628906 C 134.378906 270.648438 133.101562 269.535156 132.421875 268.839844 C 131.300781 269.984375 128.652344 272.390625 125.183594 273.617188 C 126.664062 275.117188 129.609375 278.449219 132.214844 283.507812 C 132.40625 283.875 132.261719 284.328125 131.894531 284.515625 C 131.527344 284.703125 131.078125 284.558594 130.886719 284.191406 C 127.421875 277.460938 123.34375 273.914062 123.257812 273.839844 L 123.238281 273.824219 L 123.226562 273.8125 C 123.214844 273.804688 123.207031 273.792969 123.195312 273.78125 C 123.046875 273.625 116.660156 267.066406 103.628906 266.871094 C 90.449219 266.679688 81.40625 275.824219 78.570312 283.898438 C 77.652344 286.519531 77.125 288.640625 76.878906 290.351562 C 78.167969 291.566406 84.566406 297.125 98.445312 301.8125 C 98.832031 301.945312 99.042969 302.371094 98.910156 302.761719 C 98.78125 303.152344 98.355469 303.359375 97.964844 303.230469 C 85.753906 299.101562 79.183594 294.296875 76.714844 292.203125 C 76.707031 292.398438 76.707031 292.585938 76.710938 292.765625 C 76.746094 294.53125 77.179688 295.554688 77.742188 296.09375 C 78.855469 297.148438 89.089844 305.15625 111.503906 309.597656 C 129.558594 313.175781 146.566406 313.980469 153.195312 313.632812 C 154.394531 313.570312 155.460938 313.375 155.660156 313.335938 C 155.71875 313.25 155.777344 313.125 155.84375 312.972656 C 156.027344 312.546875 156.21875 311.945312 156.414062 311.210938 C 151.820312 311.378906 132.125 311.710938 108.609375 306.238281 C 108.207031 306.144531 107.960938 305.742188 108.050781 305.339844 C 108.144531 304.9375 108.546875 304.6875 108.949219 304.78125 C 133.125 310.40625 153.222656 309.851562 156.777344 309.699219 C 157.5 306.441406 158.222656 301.703125 158.785156 297.1875 C 159.65625 290.207031 159.480469 280.492188 158.34375 275.886719 C 157.300781 276.230469 155.289062 276.636719 152.09375 276.273438 C 151.6875 276.226562 151.390625 275.855469 151.4375 275.445312 C 151.484375 275.035156 151.851562 274.742188 152.265625 274.789062 C 156.585938 275.277344 158.417969 274.246094 158.449219 274.230469 C 158.511719 274.191406 161.398438 272.371094 161.351562 268.621094 C 161.324219 266.402344 160.152344 264.613281 158.015625 263.066406 C 157.164062 262.453125 156.160156 261.878906 155.019531 261.335938 L 155.015625 261.347656 C 154.820312 262.140625 154.621094 262.929688 154.417969 263.71875 C 154.355469 263.964844 154.292969 264.210938 154.226562 264.457031 C 154.207031 264.539062 154.1875 264.617188 154.164062 264.699219 C 154.136719 264.785156 154.109375 264.875 154.078125 264.960938 C 153.992188 265.1875 153.878906 265.410156 153.738281 265.613281 C 153.59375 265.816406 153.421875 266 153.222656 266.15625 C 153.164062 266.203125 153.101562 266.25 153.039062 266.292969 C 152.601562 266.585938 152.097656 266.753906 151.585938 266.847656 C 151.5 266.863281 151.414062 266.878906 151.324219 266.890625 C 151.214844 266.90625 151.101562 266.917969 150.988281 266.929688 C 150.835938 266.941406 150.6875 266.949219 150.535156 266.953125 C 150.34375 266.960938 150.148438 266.960938 149.957031 266.953125 C 149.710938 266.949219 149.46875 266.933594 149.226562 266.914062 C 148.539062 266.855469 147.855469 266.746094 147.179688 266.613281 C 147.003906 266.582031 146.824219 266.542969 146.652344 266.507812 C 146.519531 266.476562 146.386719 266.449219 146.253906 266.417969 C 146.089844 266.378906 145.929688 266.335938 145.765625 266.292969 C 144.988281 266.082031 144.222656 265.804688 143.492188 265.460938 C 142.894531 265.183594 142.316406 264.859375 141.785156 264.476562 C 141.542969 264.304688 141.3125 264.121094 141.09375 263.921875 C 140.90625 263.75 140.730469 263.566406 140.566406 263.375 C 140.324219 263.082031 140.113281 262.761719 139.96875 262.410156 C 139.894531 262.226562 139.839844 262.03125 139.808594 261.832031 C 139.78125 261.621094 139.78125 261.40625 139.816406 261.191406 C 139.824219 261.140625 139.835938 261.085938 139.847656 261.035156 C 139.863281 260.96875 139.882812 260.902344 139.898438 260.839844 C 139.914062 260.789062 139.925781 260.742188 139.9375 260.695312 C 139.988281 260.503906 140.042969 260.316406 140.09375 260.125 C 140.308594 259.316406 140.523438 258.503906 140.734375 257.695312 Z M 140.742188 257.664062 " fill-opacity="1" fill-rule="evenodd"/></g><g clip-path="url(#cdc0e88b31)"><path fill="#8b3eea" d="M 184.703125 13.363281 C 188.914062 13.332031 193.292969 13.492188 197.464844 14.089844 C 206.488281 15.375 214.917969 18.582031 222.867188 22.960938 C 230.832031 27.351562 237.675781 33.25 243.542969 40.167969 C 250.59375 48.476562 256 57.984375 259.011719 68.480469 C 260.992188 75.386719 262.050781 82.660156 262.121094 89.847656 C 262.132812 91.25 262.199219 92.695312 262.082031 94.09375 C 261.867188 96.667969 261.3125 99.148438 260.75 101.660156 C 259.015625 109.441406 256.363281 116.882812 253.257812 124.210938 C 250.039062 131.820312 246.375 139.171875 242.332031 146.371094 C 238.4375 153.304688 234.253906 160.023438 229.921875 166.691406 C 227.921875 169.761719 225.960938 172.855469 223.878906 175.871094 C 221.109375 179.882812 218.222656 183.792969 215.351562 187.730469 C 212.679688 191.390625 210.046875 195.078125 207.289062 198.671875 C 205.019531 201.632812 202.597656 204.492188 200.285156 207.425781 C 198.21875 210.050781 196.121094 212.660156 193.992188 215.238281 C 192.820312 216.65625 191.613281 218.335938 190.179688 219.503906 C 189.4375 220.109375 188.714844 220.488281 187.789062 220.75 L 186.265625 220.9375 C 184.960938 220.976562 183.523438 220.519531 182.558594 219.628906 C 180.726562 217.933594 179.101562 215.78125 177.5 213.859375 C 173.699219 209.289062 170.066406 204.59375 166.445312 199.878906 C 159.578125 190.945312 152.84375 181.925781 146.546875 172.578125 C 144.261719 169.1875 142.121094 165.714844 139.917969 162.269531 C 129.148438 145.4375 119.230469 127.472656 113.578125 108.214844 C 112.042969 102.996094 110.589844 97.640625 110.429688 92.175781 C 109.828125 71.769531 117.832031 51.675781 131.839844 36.898438 C 133.753906 34.878906 135.8125 33.058594 137.9375 31.265625 C 148.113281 22.683594 160.070312 16.824219 173.207031 14.445312 C 177.03125 13.75 180.824219 13.46875 184.703125 13.363281 Z M 185.261719 53.214844 C 183.804688 53.269531 182.355469 53.308594 180.914062 53.53125 C 173.34375 54.6875 165.679688 58.585938 160.464844 64.203125 C 153.675781 71.511719 150.324219 80.742188 150.679688 90.683594 C 151.003906 99.675781 154.972656 108.527344 161.597656 114.617188 C 168.59375 121.050781 177.699219 124.796875 187.277344 124.390625 C 189.144531 124.316406 190.960938 124.210938 192.800781 123.878906 C 200.574219 122.476562 207.558594 118.519531 212.898438 112.710938 C 219.46875 105.5625 222.371094 96.3125 221.949219 86.714844 C 221.550781 77.652344 217.464844 68.683594 210.726562 62.589844 C 205.898438 58.226562 199.746094 54.984375 193.332031 53.773438 C 190.695312 53.277344 187.941406 53.140625 185.261719 53.214844 Z M 185.261719 53.214844 " fill-opacity="1" fill-rule="nonzero"/></g><g clip-path="url(#d7fd528d83)"><path fill="#8b3eea" d="M 264.941406 225.523438 C 262.441406 227.972656 259.171875 229.53125 255.734375 230.320312 C 252.296875 231.175781 248.660156 231.175781 245.019531 231.023438 C 241.414062 230.855469 237.828125 230.304688 234.457031 229.164062 C 231.085938 228.023438 227.917969 226.347656 225.21875 224.082031 C 223.859375 222.957031 222.617188 221.71875 221.511719 220.359375 C 220.4375 219.035156 219.417969 217.441406 218.8125 216.050781 L 218.746094 215.882812 C 218.410156 215.042969 218.207031 214.355469 218.074219 213.871094 L 218.074219 213.855469 C 217.957031 213.367188 217.921875 213.097656 217.921875 213.097656 C 216.566406 205.972656 221.007812 198.425781 221.949219 196.902344 C 223.136719 194.941406 229.191406 188.851562 233.703125 188.601562 C 233.785156 188.601562 233.851562 188.585938 233.921875 188.566406 C 234.742188 188.417969 235.328125 187.660156 235.277344 186.824219 C 235.261719 186.589844 235.195312 186.371094 235.09375 186.167969 C 235.09375 186.152344 235.078125 186.152344 235.078125 186.136719 C 234.925781 185.199219 234.875 184.257812 235.027344 183.371094 C 235.261719 181.960938 235.898438 180.753906 236.972656 179.914062 C 237.257812 179.695312 237.558594 179.53125 237.894531 179.394531 C 238.75 178.992188 239.738281 178.875 240.777344 179.027344 C 241.03125 179.058594 241.265625 179.109375 241.515625 179.175781 C 242.707031 179.480469 243.898438 180.050781 245.019531 180.753906 C 247.738281 182.464844 250.066406 184.914062 252.0625 187.5625 C 254.042969 190.242188 255.703125 193.210938 256.554688 196.296875 C 256.976562 197.839844 257.175781 199.417969 256.941406 200.839844 C 256.675781 202.234375 255.96875 203.390625 254.828125 204.160156 C 253.671875 204.949219 252.296875 205.203125 250.890625 205.035156 C 249.480469 204.847656 248.054688 204.179688 246.730469 203.339844 C 246.261719 203.039062 245.824219 202.71875 245.390625 202.367188 C 244.703125 201.832031 243.695312 201.964844 243.191406 202.6875 C 242.707031 203.375 242.875 204.3125 243.542969 204.816406 C 244.046875 205.183594 244.585938 205.539062 245.136719 205.871094 C 246.746094 206.828125 248.542969 207.632812 250.535156 207.851562 C 250.804688 207.882812 251.089844 207.867188 251.375 207.867188 C 251.558594 210.449219 251.441406 213.082031 251.023438 215.699219 C 250.789062 217.171875 250.46875 218.632812 250.035156 220.074219 C 249.597656 221.464844 249.09375 222.976562 248.324219 224.066406 L 248.207031 224.21875 C 247.855469 224.71875 247.988281 225.40625 248.476562 225.757812 C 248.945312 226.09375 249.597656 225.992188 249.949219 225.574219 C 250.703125 224.6875 251.039062 223.964844 251.425781 223.210938 C 251.644531 222.757812 251.84375 222.304688 252.03125 221.851562 C 252.71875 221.96875 253.335938 222.019531 253.972656 222.035156 C 254.78125 222.035156 255.566406 222.003906 256.339844 221.902344 C 257.882812 221.699219 259.390625 221.296875 260.800781 220.710938 C 261.320312 220.496094 261.554688 219.890625 261.351562 219.371094 C 261.152344 218.902344 260.648438 218.667969 260.164062 218.785156 L 260.144531 218.785156 C 258.835938 219.101562 257.496094 219.253906 256.1875 219.21875 C 255.535156 219.203125 254.878906 219.136719 254.242188 219.019531 C 253.875 218.953125 253.457031 218.867188 253.101562 218.765625 C 253.335938 217.945312 253.554688 217.140625 253.738281 216.320312 C 254.175781 214.375 254.460938 212.378906 254.578125 210.382812 C 257.429688 209.160156 260.632812 209.058594 263.480469 209.945312 C 266.5 210.988281 268.980469 212.644531 269.015625 216.300781 C 269.082031 219.722656 267.371094 223.09375 264.941406 225.523438 Z M 259.507812 201.261719 C 259.59375 200.691406 259.609375 200.121094 259.609375 199.550781 C 262.058594 199.585938 264.523438 200.4375 266.03125 202.117188 C 266.851562 203.089844 267.289062 204.230469 267.289062 205.402344 C 267.289062 206.226562 267.035156 207.03125 266.703125 207.851562 C 265.949219 207.449219 265.191406 207.097656 264.421875 206.828125 C 261.671875 205.941406 258.621094 205.839844 255.769531 206.710938 C 255.953125 206.609375 256.171875 206.507812 256.355469 206.375 C 258.066406 205.21875 259.207031 203.222656 259.507812 201.261719 Z M 262.140625 194.636719 C 262.761719 195.089844 263.179688 195.710938 263.332031 196.433594 C 263.414062 196.785156 263.414062 197.1875 263.363281 197.589844 C 263.363281 197.570312 263.347656 197.570312 263.347656 197.570312 C 262.058594 197.167969 260.679688 197 259.324219 197.050781 C 259.222656 196.566406 259.105469 196.097656 258.972656 195.625 C 258.804688 195.058594 258.585938 194.503906 258.367188 193.949219 C 259.777344 193.765625 261.152344 193.933594 262.140625 194.636719 Z M 271.160156 213.234375 C 270.910156 212.195312 270.390625 211.105469 269.6875 210.265625 C 269.382812 209.898438 269.050781 209.5625 268.714844 209.242188 C 269.316406 208.101562 269.753906 206.8125 269.804688 205.402344 C 269.855469 203.558594 269.097656 201.679688 267.859375 200.339844 C 267.222656 199.652344 266.484375 199.082031 265.695312 198.613281 C 265.914062 197.738281 265.964844 196.816406 265.761719 195.894531 C 265.476562 194.570312 264.621094 193.378906 263.53125 192.625 C 262.460938 191.871094 261.183594 191.535156 259.976562 191.46875 C 259.089844 191.417969 258.234375 191.535156 257.378906 191.703125 C 256.40625 189.742188 255.25 187.914062 254.007812 186.136719 C 251.914062 183.285156 249.480469 180.585938 246.394531 178.574219 C 245.15625 177.785156 243.8125 177.082031 242.320312 176.664062 C 241.953125 176.542969 241.582031 176.460938 241.199219 176.394531 C 240.476562 176.261719 239.703125 176.226562 238.933594 176.308594 C 237.644531 176.460938 236.351562 176.929688 235.296875 177.703125 C 233.601562 178.910156 232.496094 180.90625 232.144531 182.882812 C 231.976562 183.753906 231.941406 184.625 231.976562 185.480469 C 226.359375 186.738281 220.507812 192.792969 219.0625 195.175781 C 214.4375 202.167969 213.898438 207.75 214.804688 214.257812 C 214.90625 214.941406 215.089844 215.613281 215.273438 216.167969 C 215.40625 216.570312 215.542969 216.9375 215.660156 217.207031 C 215.675781 217.207031 215.675781 217.207031 215.675781 217.222656 C 215.675781 217.222656 215.675781 217.242188 215.695312 217.257812 C 215.828125 217.59375 215.945312 217.8125 215.945312 217.8125 L 215.960938 217.792969 C 219.382812 225.171875 226.054688 230.085938 233.332031 232.5 C 237.089844 233.757812 240.996094 234.34375 244.871094 234.511719 C 248.726562 234.628906 252.683594 234.394531 256.523438 233.320312 C 260.347656 232.28125 264.050781 230.335938 266.820312 227.351562 C 269.621094 224.402344 271.328125 220.476562 271.480469 216.371094 C 271.496094 215.328125 271.429688 214.289062 271.160156 213.234375 " fill-opacity="1" fill-rule="nonzero"/></g><path fill="#ffffff" d="M 263.363281 197.589844 C 263.363281 197.570312 263.347656 197.570312 263.347656 197.570312 C 262.058594 197.167969 260.679688 197 259.324219 197.050781 C 259.222656 196.566406 259.105469 196.097656 258.972656 195.625 C 258.804688 195.058594 258.585938 194.503906 258.367188 193.949219 C 259.777344 193.765625 261.152344 193.933594 262.140625 194.636719 C 262.761719 195.089844 263.179688 195.710938 263.332031 196.433594 C 263.414062 196.785156 263.414062 197.1875 263.363281 197.589844 " fill-opacity="1" fill-rule="nonzero"/><path fill="#ffffff" d="M 267.289062 205.402344 C 267.289062 206.226562 267.035156 207.03125 266.703125 207.851562 C 265.949219 207.449219 265.191406 207.097656 264.421875 206.828125 C 261.671875 205.941406 258.621094 205.839844 255.769531 206.710938 C 255.953125 206.609375 256.171875 206.507812 256.355469 206.375 C 258.066406 205.21875 259.207031 203.222656 259.507812 201.261719 C 259.59375 200.691406 259.609375 200.121094 259.609375 199.550781 C 262.058594 199.585938 264.523438 200.4375 266.03125 202.117188 C 266.851562 203.089844 267.289062 204.230469 267.289062 205.402344 " fill-opacity="1" fill-rule="nonzero"/><path fill="#ffffff" d="M 269.015625 216.300781 C 269.082031 219.722656 267.371094 223.09375 264.941406 225.523438 C 262.441406 227.972656 259.171875 229.53125 255.734375 230.320312 C 252.296875 231.175781 248.660156 231.175781 245.019531 231.023438 C 241.414062 230.855469 237.828125 230.304688 234.457031 229.164062 C 231.085938 228.023438 227.917969 226.347656 225.21875 224.082031 C 223.859375 222.957031 222.617188 221.71875 221.511719 220.359375 C 220.4375 219.035156 219.417969 217.441406 218.8125 216.050781 L 218.746094 215.882812 C 218.410156 215.042969 218.207031 214.355469 218.074219 213.871094 L 218.074219 213.855469 C 217.957031 213.367188 217.921875 213.097656 217.921875 213.097656 C 216.566406 205.972656 221.007812 198.425781 221.949219 196.902344 C 223.136719 194.941406 229.191406 188.851562 233.703125 188.601562 C 233.785156 188.601562 233.851562 188.585938 233.921875 188.566406 C 234.742188 188.417969 235.328125 187.660156 235.277344 186.824219 C 235.261719 186.589844 235.195312 186.371094 235.09375 186.167969 C 235.09375 186.152344 235.078125 186.152344 235.078125 186.136719 C 234.925781 185.199219 234.875 184.257812 235.027344 183.371094 C 235.261719 181.960938 235.898438 180.753906 236.972656 179.914062 C 237.257812 179.695312 237.558594 179.53125 237.894531 179.394531 C 238.75 178.992188 239.738281 178.875 240.777344 179.027344 C 241.03125 179.058594 241.265625 179.109375 241.515625 179.175781 C 242.707031 179.480469 243.898438 180.050781 245.019531 180.753906 C 247.738281 182.464844 250.066406 184.914062 252.0625 187.5625 C 254.042969 190.242188 255.703125 193.210938 256.554688 196.296875 C 256.976562 197.839844 257.175781 199.417969 256.941406 200.839844 C 256.675781 202.234375 255.96875 203.390625 254.828125 204.160156 C 253.671875 204.949219 252.296875 205.203125 250.890625 205.035156 C 249.480469 204.847656 248.054688 204.179688 246.730469 203.339844 C 246.261719 203.039062 245.824219 202.71875 245.390625 202.367188 C 244.703125 201.832031 243.695312 201.964844 243.191406 202.6875 C 242.707031 203.375 242.875 204.3125 243.542969 204.816406 C 244.046875 205.183594 244.585938 205.539062 245.136719 205.871094 C 246.746094 206.828125 248.542969 207.632812 250.535156 207.851562 C 250.804688 207.882812 251.089844 207.867188 251.375 207.867188 C 251.558594 210.449219 251.441406 213.082031 251.023438 215.699219 C 250.789062 217.171875 250.46875 218.632812 250.035156 220.074219 C 249.597656 221.464844 249.09375 222.976562 248.324219 224.066406 L 248.207031 224.21875 C 247.855469 224.71875 247.988281 225.40625 248.476562 225.757812 C 248.945312 226.09375 249.597656 225.992188 249.949219 225.574219 C 250.703125 224.6875 251.039062 223.964844 251.425781 223.210938 C 251.644531 222.757812 251.84375 222.304688 252.03125 221.851562 C 252.71875 221.96875 253.335938 222.019531 253.972656 222.035156 C 254.78125 222.035156 255.566406 222.003906 256.339844 221.902344 C 257.882812 221.699219 259.390625 221.296875 260.800781 220.710938 C 261.320312 220.496094 261.554688 219.890625 261.351562 219.371094 C 261.152344 218.902344 260.648438 218.667969 260.164062 218.785156 L 260.144531 218.785156 C 258.835938 219.101562 257.496094 219.253906 256.1875 219.21875 C 255.535156 219.203125 254.878906 219.136719 254.242188 219.019531 C 253.875 218.953125 253.457031 218.867188 253.101562 218.765625 C 253.335938 217.945312 253.554688 217.140625 253.738281 216.320312 C 254.175781 214.375 254.460938 212.378906 254.578125 210.382812 C 257.429688 209.160156 260.632812 209.058594 263.480469 209.945312 C 266.5 210.988281 268.980469 212.644531 269.015625 216.300781 " fill-opacity="1" fill-rule="nonzero"/><path fill="#8b3eea" d="M 266.214844 182.230469 C 261.585938 186.621094 256.253906 191.066406 249.429688 196.164062 C 249.011719 196.480469 248.574219 196.734375 248.105469 196.902344 C 247.402344 197.203125 246.664062 197.335938 245.925781 197.335938 C 245.136719 197.335938 244.351562 197.1875 243.613281 196.867188 L 243.59375 196.851562 C 243.261719 196.464844 242.941406 196.078125 242.621094 195.675781 C 241.601562 194.386719 240.710938 192.960938 240.039062 191.433594 C 240.058594 190.007812 240.59375 188.601562 241.601562 187.511719 C 241.816406 187.242188 242.085938 186.992188 242.386719 186.773438 C 248.84375 181.945312 253.839844 177.804688 258.132812 173.726562 C 259.390625 172.519531 260.011719 170.84375 259.828125 169.117188 C 259.625 167.421875 258.6875 165.945312 257.226562 165.074219 C 253.472656 162.84375 249.566406 160.597656 245.523438 158.382812 C 244.800781 157.976562 240.988281 155.726562 238.238281 154.117188 C 236.527344 153.113281 235.480469 151.285156 235.453125 149.300781 C 235.453125 149.257812 235.453125 149.214844 235.453125 149.171875 C 235.394531 144.921875 239.894531 142.152344 243.675781 144.097656 C 244.347656 144.441406 244.859375 144.707031 245.105469 144.835938 C 251.441406 148.171875 257.53125 151.59375 263.246094 154.996094 C 267.875 157.78125 270.894531 162.441406 271.480469 167.824219 C 272.085938 173.226562 270.171875 178.472656 266.214844 182.230469 " fill-opacity="1" fill-rule="nonzero"/><path fill="#8b3eea" d="M 253.941406 200.742188 C 254.007812 201.195312 253.707031 201.613281 253.253906 201.679688 C 250.988281 202.015625 248.808594 201.078125 247.082031 199.9375 C 245.773438 199.066406 244.617188 198.007812 243.613281 196.867188 L 243.59375 196.851562 C 243.261719 196.464844 242.941406 196.078125 242.621094 195.675781 C 241.601562 194.386719 240.710938 192.960938 240.039062 191.433594 C 239.871094 191.066406 239.703125 190.695312 239.570312 190.3125 C 238.882812 188.367188 238.480469 186.152344 239.085938 184.023438 C 239.167969 183.722656 239.417969 183.503906 239.738281 183.453125 C 240.15625 183.386719 240.558594 183.6875 240.628906 184.125 L 240.628906 184.191406 C 240.796875 185.332031 241.128906 186.4375 241.601562 187.511719 C 241.816406 188.046875 242.070312 188.585938 242.355469 189.121094 C 243.160156 190.679688 244.164062 192.1875 245.253906 193.632812 C 246.125 194.804688 247.082031 195.910156 248.105469 196.902344 C 248.339844 197.152344 248.59375 197.371094 248.84375 197.605469 C 250.167969 198.761719 251.59375 199.703125 253.238281 200.054688 L 253.304688 200.070312 C 253.640625 200.136719 253.890625 200.40625 253.941406 200.742188 " fill-opacity="1" fill-rule="nonzero"/><path fill="#8b3eea" d="M 234.878906 203.820312 C 234.234375 204.460938 233.628906 204.996094 233.167969 205.617188 C 232.671875 206.203125 232.292969 206.835938 231.988281 207.53125 C 231.683594 208.222656 231.472656 208.972656 231.3125 209.765625 C 231.164062 210.554688 231.058594 211.425781 230.996094 212.242188 L 230.992188 212.332031 C 230.964844 212.707031 230.636719 212.988281 230.265625 212.960938 C 230.003906 212.941406 229.789062 212.777344 229.691406 212.554688 C 229.269531 211.582031 229.085938 210.617188 229.078125 209.585938 C 229.066406 208.566406 229.269531 207.515625 229.691406 206.535156 C 230.082031 205.542969 230.773438 204.648438 231.609375 203.992188 C 232.425781 203.300781 233.449219 202.953125 234.429688 202.789062 C 234.746094 202.734375 235.042969 202.945312 235.09375 203.261719 C 235.128906 203.453125 235.0625 203.636719 234.9375 203.765625 L 234.878906 203.820312 " fill-opacity="1" fill-rule="nonzero"/><path fill="#8b3eea" d="M 231.726562 197.269531 L 229.769531 199.007812 C 229.140625 199.546875 228.621094 200.152344 228.097656 200.742188 C 227.605469 201.359375 227.191406 202.027344 226.820312 202.738281 C 226.464844 203.4375 226.148438 204.25 225.933594 204.996094 L 225.898438 205.117188 C 225.792969 205.472656 225.421875 205.679688 225.0625 205.578125 C 224.816406 205.503906 224.644531 205.304688 224.59375 205.070312 C 224.359375 203.980469 224.4375 202.96875 224.722656 201.957031 C 224.996094 200.953125 225.492188 200.003906 226.136719 199.1875 C 226.785156 198.375 227.574219 197.675781 228.457031 197.175781 C 229.332031 196.660156 230.304688 196.367188 231.285156 196.234375 C 231.605469 196.191406 231.898438 196.414062 231.941406 196.734375 C 231.96875 196.929688 231.890625 197.121094 231.753906 197.242188 L 231.726562 197.269531 " fill-opacity="1" fill-rule="nonzero"/><g clip-path="url(#ae39f41270)"><path fill="#8b3eea" d="M 107.488281 225.523438 C 109.988281 227.972656 113.257812 229.53125 116.695312 230.320312 C 120.132812 231.175781 123.769531 231.175781 127.410156 231.023438 C 131.015625 230.855469 134.601562 230.304688 137.972656 229.164062 C 141.34375 228.023438 144.511719 226.347656 147.214844 224.082031 C 148.570312 222.957031 149.8125 221.71875 150.917969 220.359375 C 151.992188 219.035156 153.015625 217.441406 153.617188 216.050781 L 153.6875 215.882812 C 154.019531 215.042969 154.222656 214.355469 154.355469 213.871094 L 154.355469 213.855469 C 154.472656 213.367188 154.507812 213.097656 154.507812 213.097656 C 155.863281 205.972656 151.421875 198.425781 150.484375 196.902344 C 149.292969 194.941406 143.238281 188.851562 138.730469 188.601562 C 138.644531 188.601562 138.578125 188.585938 138.511719 188.566406 C 137.6875 188.417969 137.101562 187.660156 137.152344 186.824219 C 137.167969 186.589844 137.234375 186.371094 137.335938 186.167969 C 137.335938 186.152344 137.351562 186.152344 137.351562 186.136719 C 137.503906 185.199219 137.554688 184.257812 137.402344 183.371094 C 137.167969 181.960938 136.53125 180.753906 135.457031 179.914062 C 135.171875 179.695312 134.871094 179.53125 134.535156 179.394531 C 133.679688 178.992188 132.691406 178.875 131.652344 179.027344 C 131.402344 179.058594 131.164062 179.109375 130.914062 179.175781 C 129.722656 179.480469 128.535156 180.050781 127.410156 180.753906 C 124.691406 182.464844 122.363281 184.914062 120.367188 187.5625 C 118.390625 190.242188 116.726562 193.210938 115.875 196.296875 C 115.453125 197.839844 115.253906 199.417969 115.488281 200.839844 C 115.757812 202.234375 116.460938 203.390625 117.601562 204.160156 C 118.757812 204.949219 120.132812 205.203125 121.542969 205.035156 C 122.949219 204.847656 124.375 204.179688 125.699219 203.339844 C 126.167969 203.039062 126.605469 202.71875 127.039062 202.367188 C 127.726562 201.832031 128.734375 201.964844 129.238281 202.6875 C 129.722656 203.375 129.554688 204.3125 128.886719 204.816406 C 128.382812 205.183594 127.84375 205.539062 127.292969 205.871094 C 125.683594 206.828125 123.886719 207.632812 121.894531 207.851562 C 121.625 207.882812 121.339844 207.867188 121.054688 207.867188 C 120.871094 210.449219 120.988281 213.082031 121.40625 215.699219 C 121.640625 217.171875 121.960938 218.632812 122.394531 220.074219 C 122.832031 221.464844 123.335938 222.976562 124.105469 224.066406 L 124.222656 224.21875 C 124.574219 224.71875 124.441406 225.40625 123.957031 225.757812 C 123.484375 226.09375 122.832031 225.992188 122.480469 225.574219 C 121.726562 224.6875 121.390625 223.964844 121.003906 223.210938 C 120.785156 222.757812 120.585938 222.304688 120.398438 221.851562 C 119.714844 221.96875 119.09375 222.019531 118.457031 222.035156 C 117.652344 222.035156 116.863281 222.003906 116.089844 221.902344 C 114.546875 221.699219 113.039062 221.296875 111.632812 220.710938 C 111.109375 220.496094 110.875 219.890625 111.078125 219.371094 C 111.277344 218.902344 111.78125 218.667969 112.269531 218.785156 L 112.285156 218.785156 C 113.59375 219.101562 114.933594 219.253906 116.242188 219.21875 C 116.894531 219.203125 117.550781 219.136719 118.1875 219.019531 C 118.554688 218.953125 118.976562 218.867188 119.328125 218.765625 C 119.09375 217.945312 118.875 217.140625 118.691406 216.320312 C 118.253906 214.375 117.96875 212.378906 117.851562 210.382812 C 115 209.160156 111.796875 209.058594 108.949219 209.945312 C 105.929688 210.988281 103.449219 212.644531 103.414062 216.300781 C 103.347656 219.722656 105.058594 223.09375 107.488281 225.523438 Z M 112.921875 201.261719 C 112.835938 200.691406 112.820312 200.121094 112.820312 199.550781 C 110.375 199.585938 107.910156 200.4375 106.398438 202.117188 C 105.578125 203.089844 105.140625 204.230469 105.140625 205.402344 C 105.140625 206.226562 105.394531 207.03125 105.726562 207.851562 C 106.484375 207.449219 107.238281 207.097656 108.007812 206.828125 C 110.757812 205.941406 113.8125 205.839844 116.660156 206.710938 C 116.476562 206.609375 116.257812 206.507812 116.074219 206.375 C 114.363281 205.21875 113.222656 203.222656 112.921875 201.261719 Z M 110.289062 194.636719 C 109.667969 195.089844 109.25 195.710938 109.097656 196.433594 C 109.015625 196.785156 109.015625 197.1875 109.066406 197.589844 C 109.066406 197.570312 109.082031 197.570312 109.082031 197.570312 C 110.375 197.167969 111.75 197 113.105469 197.050781 C 113.207031 196.566406 113.324219 196.097656 113.457031 195.625 C 113.625 195.058594 113.84375 194.503906 114.0625 193.949219 C 112.652344 193.765625 111.277344 193.933594 110.289062 194.636719 Z M 101.269531 213.234375 C 101.519531 212.195312 102.039062 211.105469 102.742188 210.265625 C 103.046875 209.898438 103.382812 209.5625 103.714844 209.242188 C 103.113281 208.101562 102.675781 206.8125 102.625 205.402344 C 102.578125 203.558594 103.332031 201.679688 104.570312 200.339844 C 105.207031 199.652344 105.945312 199.082031 106.734375 198.613281 C 106.515625 197.738281 106.464844 196.816406 106.667969 195.894531 C 106.953125 194.570312 107.808594 193.378906 108.898438 192.625 C 109.96875 191.871094 111.246094 191.535156 112.453125 191.46875 C 113.339844 191.417969 114.195312 191.535156 115.050781 191.703125 C 116.023438 189.742188 117.179688 187.914062 118.421875 186.136719 C 120.519531 183.285156 122.949219 180.585938 126.035156 178.574219 C 127.277344 177.785156 128.617188 177.082031 130.109375 176.664062 C 130.476562 176.542969 130.847656 176.460938 131.230469 176.394531 C 131.953125 176.261719 132.726562 176.226562 133.496094 176.308594 C 134.789062 176.460938 136.078125 176.929688 137.132812 177.703125 C 138.828125 178.910156 139.933594 180.90625 140.289062 182.882812 C 140.457031 183.753906 140.488281 184.625 140.457031 185.480469 C 146.074219 186.738281 151.925781 192.792969 153.367188 195.175781 C 157.996094 202.167969 158.53125 207.75 157.625 214.257812 C 157.523438 214.941406 157.339844 215.613281 157.15625 216.167969 C 157.023438 216.570312 156.886719 216.9375 156.769531 217.207031 C 156.753906 217.207031 156.753906 217.207031 156.753906 217.222656 C 156.753906 217.222656 156.753906 217.242188 156.738281 217.257812 C 156.601562 217.59375 156.484375 217.8125 156.484375 217.8125 L 156.46875 217.792969 C 153.046875 225.171875 146.375 230.085938 139.097656 232.5 C 135.339844 233.757812 131.433594 234.34375 127.558594 234.511719 C 123.703125 234.628906 119.746094 234.394531 115.90625 233.320312 C 112.082031 232.28125 108.378906 230.335938 105.609375 227.351562 C 102.8125 224.402344 101.101562 220.476562 100.949219 216.371094 C 100.933594 215.328125 101 214.289062 101.269531 213.234375 " fill-opacity="1" fill-rule="nonzero"/></g><path fill="#ffffff" d="M 109.066406 197.589844 C 109.066406 197.570312 109.082031 197.570312 109.082031 197.570312 C 110.375 197.167969 111.75 197 113.105469 197.050781 C 113.207031 196.566406 113.324219 196.097656 113.457031 195.625 C 113.625 195.058594 113.84375 194.503906 114.0625 193.949219 C 112.652344 193.765625 111.277344 193.933594 110.289062 194.636719 C 109.667969 195.089844 109.25 195.710938 109.097656 196.433594 C 109.015625 196.785156 109.015625 197.1875 109.066406 197.589844 " fill-opacity="1" fill-rule="nonzero"/><path fill="#ffffff" d="M 105.140625 205.402344 C 105.140625 206.226562 105.394531 207.03125 105.726562 207.851562 C 106.484375 207.449219 107.238281 207.097656 108.007812 206.828125 C 110.757812 205.941406 113.8125 205.839844 116.660156 206.710938 C 116.476562 206.609375 116.257812 206.507812 116.074219 206.375 C 114.363281 205.21875 113.222656 203.222656 112.921875 201.261719 C 112.835938 200.691406 112.820312 200.121094 112.820312 199.550781 C 110.375 199.585938 107.910156 200.4375 106.398438 202.117188 C 105.578125 203.089844 105.140625 204.230469 105.140625 205.402344 " fill-opacity="1" fill-rule="nonzero"/><path fill="#ffffff" d="M 103.414062 216.300781 C 103.347656 219.722656 105.058594 223.09375 107.488281 225.523438 C 109.988281 227.972656 113.257812 229.53125 116.695312 230.320312 C 120.132812 231.175781 123.769531 231.175781 127.410156 231.023438 C 131.015625 230.855469 134.601562 230.304688 137.972656 229.164062 C 141.34375 228.023438 144.511719 226.347656 147.214844 224.082031 C 148.570312 222.957031 149.8125 221.71875 150.917969 220.359375 C 151.992188 219.035156 153.015625 217.441406 153.617188 216.050781 L 153.6875 215.882812 C 154.019531 215.042969 154.222656 214.355469 154.355469 213.871094 L 154.355469 213.855469 C 154.472656 213.367188 154.507812 213.097656 154.507812 213.097656 C 155.863281 205.972656 151.421875 198.425781 150.484375 196.902344 C 149.292969 194.941406 143.238281 188.851562 138.730469 188.601562 C 138.644531 188.601562 138.578125 188.585938 138.511719 188.566406 C 137.6875 188.417969 137.101562 187.660156 137.152344 186.824219 C 137.167969 186.589844 137.234375 186.371094 137.335938 186.167969 C 137.335938 186.152344 137.351562 186.152344 137.351562 186.136719 C 137.503906 185.199219 137.554688 184.257812 137.402344 183.371094 C 137.167969 181.960938 136.53125 180.753906 135.457031 179.914062 C 135.171875 179.695312 134.871094 179.53125 134.535156 179.394531 C 133.679688 178.992188 132.691406 178.875 131.652344 179.027344 C 131.402344 179.058594 131.164062 179.109375 130.914062 179.175781 C 129.722656 179.480469 128.535156 180.050781 127.410156 180.753906 C 124.691406 182.464844 122.363281 184.914062 120.367188 187.5625 C 118.390625 190.242188 116.726562 193.210938 115.875 196.296875 C 115.453125 197.839844 115.253906 199.417969 115.488281 200.839844 C 115.757812 202.234375 116.460938 203.390625 117.601562 204.160156 C 118.757812 204.949219 120.132812 205.203125 121.542969 205.035156 C 122.949219 204.847656 124.375 204.179688 125.699219 203.339844 C 126.167969 203.039062 126.605469 202.71875 127.039062 202.367188 C 127.726562 201.832031 128.734375 201.964844 129.238281 202.6875 C 129.722656 203.375 129.554688 204.3125 128.886719 204.816406 C 128.382812 205.183594 127.84375 205.539062 127.292969 205.871094 C 125.683594 206.828125 123.886719 207.632812 121.894531 207.851562 C 121.625 207.882812 121.339844 207.867188 121.054688 207.867188 C 120.871094 210.449219 120.988281 213.082031 121.40625 215.699219 C 121.640625 217.171875 121.960938 218.632812 122.394531 220.074219 C 122.832031 221.464844 123.335938 222.976562 124.105469 224.066406 L 124.222656 224.21875 C 124.574219 224.71875 124.441406 225.40625 123.957031 225.757812 C 123.484375 226.09375 122.832031 225.992188 122.480469 225.574219 C 121.726562 224.6875 121.390625 223.964844 121.003906 223.210938 C 120.785156 222.757812 120.585938 222.304688 120.398438 221.851562 C 119.714844 221.96875 119.09375 222.019531 118.457031 222.035156 C 117.652344 222.035156 116.863281 222.003906 116.089844 221.902344 C 114.546875 221.699219 113.039062 221.296875 111.632812 220.710938 C 111.109375 220.496094 110.875 219.890625 111.078125 219.371094 C 111.277344 218.902344 111.78125 218.667969 112.269531 218.785156 L 112.285156 218.785156 C 113.59375 219.101562 114.933594 219.253906 116.242188 219.21875 C 116.894531 219.203125 117.550781 219.136719 118.1875 219.019531 C 118.554688 218.953125 118.976562 218.867188 119.328125 218.765625 C 119.09375 217.945312 118.875 217.140625 118.691406 216.320312 C 118.253906 214.375 117.96875 212.378906 117.851562 210.382812 C 115 209.160156 111.796875 209.058594 108.949219 209.945312 C 105.929688 210.988281 103.449219 212.644531 103.414062 216.300781 " fill-opacity="1" fill-rule="nonzero"/><g clip-path="url(#ae68df9204)"><path fill="#8b3eea" d="M 106.214844 182.230469 C 110.84375 186.621094 116.175781 191.066406 123 196.164062 C 123.417969 196.480469 123.855469 196.734375 124.324219 196.902344 C 125.027344 197.203125 125.765625 197.335938 126.503906 197.335938 C 127.292969 197.335938 128.082031 197.1875 128.816406 196.867188 L 128.835938 196.851562 C 129.171875 196.464844 129.488281 196.078125 129.808594 195.675781 C 130.828125 194.386719 131.71875 192.960938 132.390625 191.433594 C 132.375 190.007812 131.835938 188.601562 130.828125 187.511719 C 130.613281 187.242188 130.34375 186.992188 130.042969 186.773438 C 123.585938 181.945312 118.589844 177.804688 114.296875 173.726562 C 113.039062 172.519531 112.417969 170.84375 112.601562 169.117188 C 112.804688 167.421875 113.742188 165.945312 115.203125 165.074219 C 118.957031 162.84375 122.867188 160.597656 126.90625 158.382812 C 127.628906 157.976562 131.441406 155.726562 134.191406 154.117188 C 135.902344 153.113281 136.949219 151.285156 136.976562 149.300781 C 136.976562 149.257812 136.976562 149.214844 136.976562 149.171875 C 137.039062 144.921875 132.535156 142.152344 128.753906 144.097656 C 128.082031 144.441406 127.570312 144.707031 127.324219 144.835938 C 120.988281 148.171875 114.902344 151.59375 109.183594 154.996094 C 104.554688 157.78125 101.535156 162.441406 100.949219 167.824219 C 100.347656 173.226562 102.257812 178.472656 106.214844 182.230469 " fill-opacity="1" fill-rule="nonzero"/></g><path fill="#8b3eea" d="M 118.488281 200.742188 C 118.421875 201.195312 118.722656 201.613281 119.175781 201.679688 C 121.441406 202.015625 123.621094 201.078125 125.347656 199.9375 C 126.65625 199.066406 127.8125 198.007812 128.816406 196.867188 L 128.835938 196.851562 C 129.171875 196.464844 129.488281 196.078125 129.808594 195.675781 C 130.828125 194.386719 131.71875 192.960938 132.390625 191.433594 C 132.558594 191.066406 132.726562 190.695312 132.859375 190.3125 C 133.546875 188.367188 133.949219 186.152344 133.347656 184.023438 C 133.261719 183.722656 133.011719 183.503906 132.691406 183.453125 C 132.273438 183.386719 131.871094 183.6875 131.804688 184.125 L 131.804688 184.191406 C 131.636719 185.332031 131.300781 186.4375 130.828125 187.511719 C 130.613281 188.046875 130.359375 188.585938 130.074219 189.121094 C 129.269531 190.679688 128.265625 192.1875 127.175781 193.632812 C 126.304688 194.804688 125.347656 195.910156 124.324219 196.902344 C 124.089844 197.152344 123.835938 197.371094 123.585938 197.605469 C 122.261719 198.761719 120.835938 199.703125 119.191406 200.054688 L 119.125 200.070312 C 118.792969 200.136719 118.539062 200.40625 118.488281 200.742188 " fill-opacity="1" fill-rule="nonzero"/><path fill="#8b3eea" d="M 137.550781 203.820312 C 138.195312 204.460938 138.800781 204.996094 139.261719 205.617188 C 139.757812 206.203125 140.140625 206.835938 140.441406 207.53125 C 140.746094 208.222656 140.957031 208.972656 141.117188 209.765625 C 141.265625 210.554688 141.375 211.425781 141.433594 212.242188 L 141.4375 212.332031 C 141.46875 212.707031 141.792969 212.988281 142.167969 212.960938 C 142.425781 212.941406 142.640625 212.777344 142.738281 212.554688 C 143.160156 211.582031 143.34375 210.617188 143.351562 209.585938 C 143.363281 208.566406 143.160156 207.515625 142.738281 206.535156 C 142.347656 205.542969 141.65625 204.648438 140.820312 203.992188 C 140.003906 203.300781 138.980469 202.953125 138 202.789062 C 137.683594 202.734375 137.386719 202.945312 137.335938 203.261719 C 137.300781 203.453125 137.367188 203.636719 137.496094 203.765625 L 137.550781 203.820312 " fill-opacity="1" fill-rule="nonzero"/><path fill="#8b3eea" d="M 140.703125 197.269531 L 142.660156 199.007812 C 143.289062 199.546875 143.8125 200.152344 144.332031 200.742188 C 144.828125 201.359375 145.238281 202.027344 145.609375 202.738281 C 145.96875 203.4375 146.28125 204.25 146.496094 204.996094 L 146.53125 205.117188 C 146.636719 205.472656 147.007812 205.679688 147.367188 205.578125 C 147.613281 205.503906 147.789062 205.304688 147.839844 205.070312 C 148.070312 203.980469 147.992188 202.96875 147.710938 201.957031 C 147.433594 200.953125 146.9375 200.003906 146.296875 199.1875 C 145.644531 198.375 144.855469 197.675781 143.972656 197.175781 C 143.097656 196.660156 142.125 196.367188 141.144531 196.234375 C 140.828125 196.191406 140.53125 196.414062 140.488281 196.734375 C 140.460938 196.929688 140.539062 197.121094 140.675781 197.242188 L 140.703125 197.269531 " fill-opacity="1" fill-rule="nonzero"/></svg>