<svg xmlns="http://www.w3.org/2000/svg" xmlns:xlink="http://www.w3.org/1999/xlink" width="60" zoomAndPan="magnify" viewBox="0 0 375 374.999991" height="60" preserveAspectRatio="xMidYMid meet" version="1.0"><defs><clipPath id="0fc7c0f985"><path d="M 80 267 L 284 267 L 284 325.996094 L 80 325.996094 Z M 80 267 " clip-rule="nonzero"/></clipPath><clipPath id="737683bea7"><path d="M 79.34375 164.746094 L 284.84375 164.746094 L 284.84375 325.996094 L 79.34375 325.996094 Z M 79.34375 164.746094 " clip-rule="nonzero"/></clipPath><clipPath id="a77a12a67b"><path d="M 114 26.144531 L 265 26.144531 L 265 231.644531 L 114 231.644531 Z M 114 26.144531 " clip-rule="nonzero"/></clipPath></defs><g clip-path="url(#0fc7c0f985)"><path fill="#ffffff" d="M 205.839844 282.222656 C 205.839844 282.222656 202.464844 278.507812 205.160156 274.003906 C 207.546875 270.011719 212.015625 269.40625 217.628906 268.816406 C 223.023438 268.25 229.042969 268.480469 232.199219 271.535156 C 235.351562 274.585938 234.6875 278.84375 232.597656 280.746094 C 232.597656 280.746094 236.582031 286.199219 239.722656 287.816406 C 239.722656 287.816406 250.125 281.527344 262.328125 285.503906 C 274.527344 289.480469 282.03125 300.542969 283.160156 309.167969 C 284.28125 317.792969 281.203125 320.070312 279.777344 320.929688 C 278.347656 321.789062 262.921875 325.332031 240.578125 325.386719 C 218.238281 325.4375 202.628906 322.617188 201.691406 321.417969 C 200.75 320.214844 198.941406 299.210938 205.839844 282.222656 Z M 151.953125 268.65625 C 146.082031 266.984375 139.230469 266.824219 136.683594 270.265625 C 134.179688 273.644531 135.273438 276.824219 136.375 278.214844 C 136.375 278.214844 132.808594 282.449219 127.757812 283.707031 C 127.757812 283.707031 121.273438 276.828125 107.839844 276.628906 C 94.40625 276.429688 85.195312 285.761719 82.304688 293.992188 C 79.421875 302.203125 80.371094 305.621094 81.671875 306.855469 C 82.785156 307.917969 93.027344 315.976562 115.488281 320.429688 C 137.945312 324.878906 158.777344 325.007812 159.847656 323.992188 C 160.914062 322.980469 162.285156 314.941406 163.210938 307.496094 C 164.144531 300.046875 163.867188 289.503906 162.527344 285.292969 C 162.527344 285.292969 165.8125 283.289062 165.761719 279.089844 C 165.699219 274.242188 160.789062 271.171875 151.953125 268.65625 Z M 151.953125 268.65625 " fill-opacity="1" fill-rule="evenodd"/></g><g clip-path="url(#737683bea7)"><path fill="#8b3eea" d="M 211.8125 268.914062 C 211.160156 269.0625 210.539062 269.230469 209.945312 269.433594 C 207.65625 270.21875 205.8125 271.46875 204.523438 273.625 C 202.074219 277.71875 204.167969 281.222656 204.996094 282.34375 C 199.902344 295.171875 199.652344 310.144531 200.242188 317.320312 C 200.242188 317.335938 200.242188 317.347656 200.246094 317.363281 C 200.28125 317.800781 200.320312 318.210938 200.363281 318.589844 C 200.496094 319.792969 200.65625 320.683594 200.800781 321.195312 C 200.902344 321.535156 201.015625 321.757812 201.105469 321.871094 C 201.207031 322 201.390625 322.160156 201.675781 322.308594 C 202.082031 322.515625 202.785156 322.761719 203.765625 323.011719 C 208.984375 324.355469 222.617188 326.167969 240.582031 326.125 C 256.289062 326.089844 268.59375 324.332031 275.054688 322.988281 C 277.945312 322.382812 279.710938 321.835938 280.15625 321.566406 C 281.679688 320.648438 285.089844 318.257812 283.890625 309.070312 C 282.738281 300.230469 275.0625 288.878906 262.554688 284.800781 C 251.410156 281.167969 241.726562 285.882812 239.71875 286.96875 C 237.324219 285.550781 234.554688 282.09375 233.566406 280.804688 C 235.519531 278.503906 235.988281 274.171875 232.710938 271.003906 C 231.359375 269.691406 229.519531 268.855469 227.425781 268.375 C 226.914062 268.257812 226.390625 268.164062 225.855469 268.085938 L 226.101562 272.066406 C 222.945312 222.652344 224.511719 172.015625 224.511719 172.015625 C 224.585938 168.132812 221.496094 164.921875 217.613281 164.847656 C 213.730469 164.777344 210.519531 167.867188 210.449219 171.75 C 210.449219 171.75 208.953125 220.265625 211.8125 268.914062 Z M 144.976562 266.777344 C 143.699219 266.738281 142.46875 266.804688 141.34375 267.003906 C 139.074219 267.394531 137.210938 268.308594 136.089844 269.824219 C 133.582031 273.210938 134.355469 276.417969 135.429688 278.15625 C 134.453125 279.183594 131.65625 281.832031 127.972656 282.886719 C 126.492188 281.503906 119.894531 276.066406 107.851562 275.886719 C 94.039062 275.683594 84.574219 285.285156 81.605469 293.746094 C 80.601562 296.609375 80.054688 298.910156 79.820312 300.75 C 79.808594 300.789062 79.804688 300.828125 79.804688 300.871094 C 79.636719 302.246094 79.644531 303.363281 79.769531 304.257812 C 79.984375 305.84375 80.554688 306.816406 81.160156 307.394531 C 82.289062 308.464844 92.632812 316.652344 115.34375 321.152344 C 133.390625 324.730469 150.390625 325.523438 157.015625 325.179688 C 158.238281 325.117188 159.128906 325.007812 159.628906 324.882812 C 160.003906 324.785156 160.238281 324.644531 160.355469 324.53125 C 160.722656 324.183594 161.179688 323.136719 161.585938 321.578125 C 161.65625 321.300781 161.730469 321.007812 161.800781 320.699219 C 161.804688 320.6875 161.808594 320.675781 161.808594 320.664062 C 162.574219 317.386719 163.351562 312.367188 163.949219 307.585938 C 164.855469 300.324219 164.613281 290.152344 163.386719 285.585938 C 164.367188 284.808594 166.546875 282.675781 166.5 279.082031 C 166.46875 276.429688 165.140625 274.246094 162.582031 272.398438 C 161.605469 271.695312 160.445312 271.039062 159.105469 270.421875 C 170.886719 221.855469 170.5 171.953125 170.5 171.953125 C 170.539062 168.070312 167.417969 164.886719 163.535156 164.847656 C 159.652344 164.808594 156.472656 167.929688 156.433594 171.8125 C 156.433594 171.8125 156.820312 219.957031 144.976562 266.777344 Z M 225.957031 269.746094 C 225.988281 270.230469 226.015625 270.714844 226.046875 271.195312 C 226.058594 271.390625 226.070312 271.582031 226.082031 271.773438 C 226.09375 271.925781 226.101562 272.074219 226.109375 272.222656 C 226.117188 272.378906 226.117188 272.535156 226.113281 272.695312 C 226.097656 273.0625 226.050781 273.433594 225.953125 273.792969 C 225.84375 274.175781 225.679688 274.546875 225.449219 274.875 C 225.363281 274.996094 225.269531 275.113281 225.167969 275.222656 C 225.101562 275.296875 225.027344 275.367188 224.953125 275.4375 C 224.480469 275.871094 223.894531 276.171875 223.292969 276.390625 C 223.195312 276.421875 223.097656 276.457031 222.996094 276.488281 C 222.863281 276.53125 222.730469 276.566406 222.597656 276.605469 C 222.425781 276.648438 222.257812 276.6875 222.082031 276.722656 C 221.84375 276.773438 221.605469 276.816406 221.363281 276.855469 C 220.746094 276.949219 220.121094 277.007812 219.496094 277.050781 C 219.066406 277.078125 218.636719 277.097656 218.207031 277.105469 C 217.894531 277.113281 217.582031 277.109375 217.269531 277.097656 C 217.039062 277.089844 216.808594 277.078125 216.582031 277.058594 C 216.410156 277.042969 216.242188 277.023438 216.074219 277 C 215.941406 276.984375 215.8125 276.960938 215.679688 276.9375 C 215.585938 276.917969 215.488281 276.898438 215.390625 276.878906 C 214.769531 276.738281 214.152344 276.511719 213.628906 276.140625 C 213.546875 276.082031 213.464844 276.019531 213.386719 275.953125 C 213.273438 275.859375 213.171875 275.761719 213.074219 275.652344 C 212.800781 275.355469 212.582031 275.011719 212.425781 274.640625 C 212.28125 274.296875 212.1875 273.933594 212.128906 273.566406 C 212.105469 273.417969 212.085938 273.269531 212.074219 273.117188 C 212.058594 272.96875 212.050781 272.820312 212.042969 272.667969 C 212.03125 272.472656 212.019531 272.277344 212.007812 272.082031 C 211.976562 271.59375 211.945312 271.105469 211.914062 270.617188 L 211.902344 270.414062 C 211.390625 270.535156 210.898438 270.675781 210.421875 270.835938 C 208.476562 271.503906 206.894531 272.550781 205.792969 274.382812 C 203.535156 278.160156 206.042969 281.316406 206.359375 281.6875 C 206.621094 281.894531 208.46875 283.25 212.085938 283.691406 C 212.492188 283.742188 212.78125 284.113281 212.730469 284.515625 C 212.683594 284.921875 212.3125 285.210938 211.90625 285.160156 C 209.054688 284.8125 207.175781 283.941406 206.1875 283.355469 C 201.480469 295.546875 201.15625 309.589844 201.679688 316.703125 C 204.214844 317.371094 216.503906 320.328125 236.65625 320.6875 C 237.066406 320.695312 237.390625 321.03125 237.382812 321.441406 C 237.375 321.851562 237.039062 322.175781 236.628906 322.167969 C 217.441406 321.824219 205.308594 319.144531 201.816406 318.269531 C 201.824219 318.324219 201.828125 318.375 201.835938 318.429688 C 201.964844 319.609375 202.226562 320.703125 202.285156 320.945312 C 202.390625 321 202.652344 321.128906 202.894531 321.210938 C 203.652344 321.480469 204.847656 321.777344 206.425781 322.085938 C 212.71875 323.320312 225.003906 324.679688 240.578125 324.644531 C 256.152344 324.609375 268.347656 322.871094 274.75 321.539062 C 277.375 320.992188 278.984375 320.542969 279.394531 320.296875 C 280.089844 319.875 281.175781 319.082031 281.898438 317.273438 C 276.855469 319.320312 265.273438 321.730469 245.835938 322.148438 C 245.425781 322.15625 245.089844 321.832031 245.078125 321.425781 C 245.070312 321.015625 245.394531 320.675781 245.804688 320.667969 C 266.476562 320.222656 278.121094 317.546875 282.351562 315.453125 C 282.375 315.441406 282.398438 315.429688 282.421875 315.421875 C 282.707031 313.890625 282.765625 311.886719 282.425781 309.261719 C 281.328125 300.855469 273.992188 290.085938 262.097656 286.207031 C 250.226562 282.339844 240.105469 288.453125 240.105469 288.453125 L 240.101562 288.457031 C 240.101562 288.457031 235.585938 291.125 231.363281 296.964844 C 231.125 297.296875 230.660156 297.371094 230.328125 297.132812 C 230 296.894531 229.921875 296.429688 230.164062 296.097656 C 233.363281 291.675781 236.726562 288.992188 238.351562 287.839844 C 235.992188 286.171875 233.453125 283.0625 232.445312 281.769531 C 231.410156 282.472656 229.160156 283.804688 226.355469 284.320312 C 225.953125 284.394531 225.566406 284.128906 225.492188 283.726562 C 225.417969 283.324219 225.683594 282.9375 226.085938 282.863281 C 229.425781 282.246094 231.894531 280.359375 232.117188 280.183594 C 233.945312 278.496094 234.460938 274.753906 231.683594 272.066406 C 230.511719 270.933594 228.910156 270.234375 227.09375 269.816406 C 226.722656 269.730469 226.335938 269.660156 225.949219 269.597656 Z M 144.597656 268.246094 C 143.546875 268.230469 142.53125 268.296875 141.59375 268.460938 C 139.746094 268.78125 138.195312 269.46875 137.277344 270.707031 C 135.058594 273.703125 135.976562 276.519531 136.953125 277.757812 L 136.96875 277.777344 L 136.972656 277.78125 C 136.972656 277.78125 138.171875 279.394531 140.925781 280.753906 C 141.292969 280.933594 141.445312 281.378906 141.265625 281.746094 C 141.082031 282.109375 140.636719 282.261719 140.273438 282.082031 C 138.296875 281.109375 137.027344 280.003906 136.359375 279.320312 C 135.246094 280.453125 132.625 282.835938 129.1875 284.050781 C 130.652344 285.535156 133.570312 288.835938 136.152344 293.851562 C 136.339844 294.214844 136.199219 294.664062 135.835938 294.847656 C 135.46875 295.035156 135.023438 294.894531 134.835938 294.527344 C 131.402344 287.859375 127.363281 284.347656 127.277344 284.273438 L 127.25 284.246094 C 127.238281 284.238281 127.226562 284.226562 127.214844 284.214844 C 127.066406 284.0625 120.742188 277.558594 107.828125 277.367188 C 94.773438 277.175781 85.8125 286.238281 83 294.238281 C 82.089844 296.832031 81.570312 298.933594 81.324219 300.628906 C 82.601562 301.835938 88.941406 307.339844 102.691406 311.988281 C 103.078125 312.117188 103.285156 312.539062 103.15625 312.925781 C 103.023438 313.3125 102.605469 313.519531 102.21875 313.390625 C 90.117188 309.300781 83.609375 304.539062 81.160156 302.464844 C 81.15625 302.660156 81.15625 302.847656 81.160156 303.023438 C 81.191406 304.773438 81.625 305.789062 82.183594 306.320312 C 83.285156 307.367188 93.425781 315.300781 115.628906 319.699219 C 133.519531 323.246094 150.371094 324.042969 156.941406 323.699219 C 158.128906 323.636719 159.183594 323.441406 159.382812 323.402344 C 159.441406 323.320312 159.496094 323.195312 159.5625 323.042969 C 159.746094 322.621094 159.933594 322.027344 160.128906 321.296875 C 155.578125 321.464844 136.066406 321.792969 112.765625 316.371094 C 112.367188 316.277344 112.121094 315.878906 112.210938 315.484375 C 112.304688 315.085938 112.703125 314.835938 113.101562 314.929688 C 137.050781 320.503906 156.964844 319.953125 160.488281 319.800781 C 161.203125 316.570312 161.917969 311.878906 162.480469 307.40625 C 163.339844 300.488281 163.167969 290.859375 162.042969 286.296875 C 161.007812 286.640625 159.015625 287.042969 155.851562 286.683594 C 155.445312 286.636719 155.152344 286.269531 155.195312 285.863281 C 155.242188 285.457031 155.609375 285.164062 156.015625 285.210938 C 160.300781 285.695312 162.117188 284.675781 162.144531 284.660156 C 162.207031 284.621094 165.066406 282.816406 165.019531 279.101562 C 164.992188 276.902344 163.835938 275.128906 161.714844 273.597656 C 160.871094 272.988281 159.878906 272.421875 158.746094 271.882812 L 158.742188 271.894531 C 158.546875 272.679688 158.351562 273.460938 158.152344 274.242188 C 158.089844 274.488281 158.027344 274.730469 157.964844 274.976562 C 157.941406 275.054688 157.921875 275.136719 157.898438 275.214844 C 157.875 275.300781 157.84375 275.386719 157.8125 275.472656 C 157.730469 275.699219 157.617188 275.917969 157.476562 276.117188 C 157.335938 276.320312 157.164062 276.503906 156.96875 276.660156 C 156.910156 276.707031 156.847656 276.75 156.785156 276.792969 C 156.351562 277.082031 155.851562 277.25 155.34375 277.34375 C 155.257812 277.359375 155.171875 277.375 155.085938 277.386719 C 154.976562 277.402344 154.863281 277.414062 154.75 277.421875 C 154.601562 277.4375 154.453125 277.445312 154.304688 277.449219 C 154.113281 277.457031 153.921875 277.457031 153.730469 277.449219 C 153.488281 277.445312 153.246094 277.429688 153.003906 277.410156 C 152.324219 277.351562 151.648438 277.242188 150.976562 277.113281 C 150.804688 277.078125 150.628906 277.042969 150.453125 277.003906 C 150.324219 276.976562 150.191406 276.949219 150.0625 276.917969 C 149.902344 276.878906 149.742188 276.839844 149.578125 276.792969 C 148.808594 276.585938 148.050781 276.3125 147.324219 275.972656 C 146.734375 275.695312 146.164062 275.375 145.632812 274.992188 C 145.394531 274.824219 145.167969 274.640625 144.949219 274.445312 C 144.765625 274.277344 144.585938 274.09375 144.425781 273.902344 C 144.183594 273.613281 143.976562 273.296875 143.835938 272.949219 C 143.761719 272.765625 143.707031 272.570312 143.675781 272.375 C 143.648438 272.164062 143.648438 271.949219 143.683594 271.742188 C 143.691406 271.6875 143.703125 271.636719 143.714844 271.585938 C 143.730469 271.519531 143.75 271.453125 143.765625 271.390625 C 143.777344 271.34375 143.792969 271.296875 143.804688 271.246094 C 143.855469 271.058594 143.90625 270.871094 143.957031 270.683594 C 144.171875 269.878906 144.382812 269.078125 144.59375 268.277344 Z M 144.597656 268.246094 " fill-opacity="1" fill-rule="evenodd"/></g><g clip-path="url(#a77a12a67b)"><path fill="#8b3eea" d="M 188.152344 26.199219 C 192.324219 26.167969 196.664062 26.328125 200.796875 26.917969 C 209.738281 28.191406 218.09375 31.367188 225.96875 35.707031 C 233.859375 40.054688 240.640625 45.902344 246.453125 52.753906 C 253.4375 60.984375 258.796875 70.40625 261.777344 80.808594 C 263.742188 87.652344 264.789062 94.859375 264.859375 101.976562 C 264.871094 103.367188 264.9375 104.800781 264.824219 106.1875 C 264.609375 108.734375 264.058594 111.191406 263.503906 113.683594 C 261.785156 121.390625 259.15625 128.765625 256.082031 136.027344 C 252.890625 143.566406 249.257812 150.847656 245.25 157.984375 C 241.394531 164.851562 237.25 171.511719 232.957031 178.113281 C 230.976562 181.15625 229.03125 184.222656 226.96875 187.210938 C 224.226562 191.1875 221.367188 195.058594 218.519531 198.960938 C 215.875 202.585938 213.265625 206.238281 210.535156 209.800781 C 208.285156 212.734375 205.882812 215.566406 203.59375 218.472656 C 201.546875 221.074219 199.464844 223.660156 197.355469 226.214844 C 196.195312 227.617188 195 229.285156 193.582031 230.441406 C 192.84375 231.042969 192.128906 231.417969 191.210938 231.675781 L 189.703125 231.863281 C 188.410156 231.902344 186.984375 231.449219 186.03125 230.566406 C 184.214844 228.886719 182.605469 226.753906 181.019531 224.847656 C 177.25 220.320312 173.652344 215.667969 170.0625 211 C 163.261719 202.148438 156.589844 193.207031 150.347656 183.949219 C 148.085938 180.589844 145.964844 177.144531 143.78125 173.734375 C 133.109375 157.054688 123.285156 139.257812 117.683594 120.175781 C 116.164062 115.003906 114.722656 109.699219 114.5625 104.285156 C 113.96875 84.066406 121.898438 64.15625 135.777344 49.515625 C 137.675781 47.515625 139.710938 45.710938 141.816406 43.9375 C 151.898438 35.429688 163.75 29.625 176.765625 27.269531 C 180.554688 26.582031 184.308594 26.304688 188.152344 26.199219 Z M 188.707031 65.683594 C 187.265625 65.734375 185.828125 65.777344 184.398438 65.996094 C 176.898438 67.140625 169.304688 71.003906 164.140625 76.570312 C 157.414062 83.8125 154.09375 92.957031 154.445312 102.808594 C 154.765625 111.714844 158.699219 120.484375 165.261719 126.523438 C 172.191406 132.894531 181.21875 136.605469 190.707031 136.207031 C 192.554688 136.128906 194.355469 136.027344 196.179688 135.699219 C 203.882812 134.308594 210.800781 130.386719 216.089844 124.628906 C 222.597656 117.550781 225.476562 108.382812 225.058594 98.875 C 224.660156 89.894531 220.613281 81.007812 213.9375 74.972656 C 209.15625 70.648438 203.058594 67.433594 196.703125 66.234375 C 194.089844 65.742188 191.363281 65.609375 188.707031 65.683594 Z M 188.707031 65.683594 " fill-opacity="1" fill-rule="nonzero"/></g></svg>