<svg xmlns="http://www.w3.org/2000/svg" xmlns:xlink="http://www.w3.org/1999/xlink" width="500" zoomAndPan="magnify" viewBox="0 0 375 374.999991" height="500" preserveAspectRatio="xMidYMid meet" version="1.0"><defs><clipPath id="ed1292f8a2"><path d="M 101 164.820312 L 308 164.820312 L 308 327.570312 L 101 327.570312 Z M 101 164.820312 " clip-rule="nonzero"/></clipPath><clipPath id="f412a060e4"><path d="M 136 24.925781 L 288.539062 24.925781 L 288.539062 232.675781 L 136 232.675781 Z M 136 24.925781 " clip-rule="nonzero"/></clipPath><clipPath id="252d7569c5"><path d="M 37.5 122 L 92 122 L 92 186 L 37.5 186 Z M 37.5 122 " clip-rule="nonzero"/></clipPath><clipPath id="1cd9b41595"><path d="M 264 207 L 315.84375 207 L 315.84375 264 L 264 264 Z M 264 207 " clip-rule="nonzero"/></clipPath><clipPath id="452a28aae6"><path d="M 264 207 L 315.84375 207 L 315.84375 264.007812 L 264 264.007812 Z M 264 207 " clip-rule="nonzero"/></clipPath></defs><path fill="#ffffff" d="M 228.40625 283.386719 C 228.40625 283.386719 224.996094 279.636719 227.714844 275.09375 C 230.125 271.066406 234.636719 270.453125 240.304688 269.859375 C 245.746094 269.285156 251.824219 269.519531 255.007812 272.601562 C 258.191406 275.683594 257.519531 279.976562 255.410156 281.898438 C 255.410156 281.898438 259.433594 287.402344 262.601562 289.035156 C 262.601562 289.035156 273.101562 282.683594 285.414062 286.699219 C 297.730469 290.714844 305.304688 301.878906 306.441406 310.582031 C 307.574219 319.289062 304.46875 321.585938 303.027344 322.453125 C 301.585938 323.324219 286.019531 326.898438 263.464844 326.953125 C 240.914062 327.003906 225.164062 324.160156 224.214844 322.945312 C 223.269531 321.734375 221.441406 300.535156 228.40625 283.386719 Z M 174.015625 269.695312 C 168.089844 268.007812 161.175781 267.847656 158.605469 271.320312 C 156.078125 274.730469 157.179688 277.9375 158.292969 279.34375 C 158.292969 279.34375 154.695312 283.617188 149.59375 284.886719 C 149.59375 284.886719 143.050781 277.941406 129.492188 277.742188 C 115.933594 277.542969 106.636719 286.960938 103.71875 295.265625 C 100.808594 303.554688 101.769531 307.003906 103.082031 308.25 C 104.207031 309.320312 114.542969 317.457031 137.210938 321.949219 C 159.878906 326.441406 180.902344 326.570312 181.984375 325.546875 C 183.0625 324.527344 184.441406 316.414062 185.378906 308.894531 C 186.320312 301.378906 186.039062 290.738281 184.691406 286.488281 C 184.691406 286.488281 188.003906 284.464844 187.953125 280.226562 C 187.890625 275.335938 182.933594 272.234375 174.015625 269.695312 Z M 174.015625 269.695312 " fill-opacity="1" fill-rule="evenodd"/><g clip-path="url(#ed1292f8a2)"><path fill="#8b3eea" d="M 234.433594 269.957031 C 233.773438 270.105469 233.144531 270.277344 232.546875 270.480469 C 230.238281 271.269531 228.378906 272.535156 227.074219 274.710938 C 224.605469 278.839844 226.71875 282.378906 227.550781 283.511719 C 222.414062 296.457031 222.160156 311.570312 222.753906 318.8125 C 222.753906 318.828125 222.753906 318.839844 222.757812 318.855469 C 222.792969 319.296875 222.835938 319.710938 222.875 320.09375 C 223.011719 321.304688 223.171875 322.207031 223.320312 322.722656 C 223.417969 323.066406 223.535156 323.289062 223.628906 323.40625 C 223.730469 323.535156 223.914062 323.695312 224.203125 323.84375 C 224.609375 324.054688 225.320312 324.300781 226.3125 324.558594 C 231.578125 325.910156 245.335938 327.742188 263.46875 327.699219 C 279.324219 327.660156 291.742188 325.890625 298.261719 324.53125 C 301.179688 323.921875 302.960938 323.371094 303.414062 323.097656 C 304.949219 322.171875 308.390625 319.761719 307.183594 310.488281 C 306.019531 301.5625 298.269531 290.105469 285.648438 285.988281 C 274.398438 282.320312 264.625 287.082031 262.601562 288.179688 C 260.183594 286.75 257.382812 283.261719 256.386719 281.957031 C 258.359375 279.632812 258.832031 275.261719 255.527344 272.0625 C 254.160156 270.742188 252.304688 269.894531 250.191406 269.410156 C 249.675781 269.292969 249.148438 269.195312 248.605469 269.121094 L 248.855469 273.136719 C 245.667969 223.265625 247.25 172.15625 247.25 172.15625 C 247.324219 168.238281 244.203125 164.996094 240.285156 164.921875 C 236.367188 164.851562 233.128906 167.96875 233.054688 171.886719 C 233.054688 171.886719 231.546875 220.855469 234.433594 269.957031 Z M 166.972656 267.796875 C 165.683594 267.757812 164.445312 267.828125 163.308594 268.027344 C 161.019531 268.421875 159.136719 269.347656 158.003906 270.875 C 155.472656 274.292969 156.253906 277.527344 157.339844 279.28125 C 156.351562 280.320312 153.53125 282.996094 149.8125 284.054688 C 148.316406 282.664062 141.660156 277.175781 129.503906 276.996094 C 115.566406 276.789062 106.011719 286.480469 103.015625 295.019531 C 102 297.90625 101.449219 300.230469 101.210938 302.085938 C 101.203125 302.128906 101.199219 302.167969 101.195312 302.207031 C 101.027344 303.597656 101.035156 304.722656 101.160156 305.628906 C 101.378906 307.230469 101.953125 308.210938 102.566406 308.792969 C 103.707031 309.875 114.144531 318.140625 137.066406 322.679688 C 155.28125 326.289062 172.4375 327.089844 179.125 326.742188 C 180.363281 326.679688 181.257812 326.570312 181.761719 326.441406 C 182.140625 326.347656 182.378906 326.203125 182.496094 326.089844 C 182.867188 325.738281 183.328125 324.683594 183.738281 323.109375 C 183.808594 322.832031 183.882812 322.535156 183.957031 322.222656 C 183.957031 322.210938 183.960938 322.199219 183.964844 322.1875 C 184.734375 318.878906 185.519531 313.8125 186.121094 308.988281 C 187.039062 301.65625 186.792969 291.394531 185.554688 286.78125 C 186.546875 285.996094 188.746094 283.84375 188.699219 280.21875 C 188.667969 277.542969 187.328125 275.335938 184.742188 273.472656 C 183.757812 272.761719 182.585938 272.101562 181.234375 271.476562 C 193.125 222.460938 192.738281 172.09375 192.738281 172.09375 C 192.773438 168.175781 189.625 164.960938 185.707031 164.921875 C 181.789062 164.882812 178.578125 168.035156 178.539062 171.953125 C 178.539062 171.953125 178.929688 220.546875 166.972656 267.796875 Z M 248.707031 270.796875 C 248.738281 271.285156 248.769531 271.773438 248.796875 272.257812 C 248.808594 272.453125 248.824219 272.648438 248.835938 272.84375 C 248.84375 272.996094 248.855469 273.144531 248.863281 273.292969 C 248.871094 273.453125 248.871094 273.613281 248.863281 273.769531 C 248.851562 274.144531 248.804688 274.519531 248.703125 274.878906 C 248.597656 275.269531 248.425781 275.640625 248.195312 275.972656 C 248.109375 276.097656 248.015625 276.214844 247.910156 276.324219 C 247.84375 276.398438 247.769531 276.46875 247.695312 276.539062 C 247.214844 276.976562 246.628906 277.28125 246.019531 277.5 C 245.921875 277.535156 245.820312 277.570312 245.722656 277.601562 C 245.585938 277.644531 245.453125 277.679688 245.316406 277.71875 C 245.144531 277.761719 244.972656 277.800781 244.796875 277.839844 C 244.558594 277.890625 244.316406 277.933594 244.070312 277.96875 C 243.445312 278.066406 242.820312 278.125 242.1875 278.167969 C 241.753906 278.195312 241.320312 278.214844 240.886719 278.226562 C 240.570312 278.230469 240.253906 278.230469 239.941406 278.21875 C 239.707031 278.210938 239.476562 278.195312 239.246094 278.175781 C 239.074219 278.160156 238.902344 278.140625 238.734375 278.117188 C 238.601562 278.101562 238.46875 278.078125 238.335938 278.054688 C 238.238281 278.035156 238.140625 278.015625 238.046875 277.996094 C 237.414062 277.851562 236.796875 277.625 236.265625 277.25 C 236.179688 277.191406 236.097656 277.125 236.019531 277.0625 C 235.910156 276.96875 235.804688 276.867188 235.703125 276.757812 C 235.429688 276.457031 235.210938 276.109375 235.054688 275.734375 C 234.90625 275.386719 234.8125 275.023438 234.75 274.652344 C 234.726562 274.5 234.707031 274.351562 234.695312 274.199219 C 234.683594 274.050781 234.675781 273.898438 234.664062 273.746094 C 234.652344 273.546875 234.640625 273.351562 234.628906 273.152344 C 234.597656 272.660156 234.566406 272.167969 234.535156 271.675781 L 234.523438 271.46875 C 234.007812 271.59375 233.507812 271.730469 233.03125 271.894531 C 231.066406 272.566406 229.464844 273.625 228.359375 275.476562 C 226.078125 279.289062 228.609375 282.472656 228.925781 282.847656 C 229.191406 283.058594 231.058594 284.425781 234.710938 284.871094 C 235.117188 284.921875 235.410156 285.292969 235.359375 285.703125 C 235.308594 286.113281 234.9375 286.40625 234.527344 286.355469 C 231.648438 286 229.75 285.121094 228.757812 284.53125 C 224.003906 296.835938 223.675781 311.007812 224.203125 318.191406 C 226.761719 318.863281 239.164062 321.847656 259.507812 322.210938 C 259.921875 322.21875 260.25 322.558594 260.242188 322.972656 C 260.234375 323.382812 259.894531 323.710938 259.480469 323.703125 C 240.113281 323.359375 227.867188 320.65625 224.34375 319.769531 C 224.351562 319.824219 224.355469 319.878906 224.363281 319.929688 C 224.496094 321.125 224.757812 322.226562 224.816406 322.472656 C 224.921875 322.523438 225.1875 322.652344 225.429688 322.738281 C 226.199219 323.007812 227.402344 323.308594 228.996094 323.625 C 235.34375 324.867188 247.746094 326.242188 263.464844 326.203125 C 279.183594 326.167969 291.492188 324.414062 297.957031 323.066406 C 300.601562 322.515625 302.230469 322.0625 302.640625 321.816406 C 303.34375 321.390625 304.4375 320.589844 305.171875 318.765625 C 300.082031 320.828125 288.390625 323.261719 268.769531 323.683594 C 268.359375 323.695312 268.015625 323.367188 268.007812 322.953125 C 268 322.542969 268.328125 322.199219 268.738281 322.191406 C 289.605469 321.738281 301.355469 319.039062 305.625 316.925781 C 305.648438 316.914062 305.675781 316.902344 305.699219 316.894531 C 305.984375 315.347656 306.046875 313.328125 305.699219 310.679688 C 304.59375 302.191406 297.1875 291.324219 285.183594 287.410156 C 273.203125 283.503906 262.988281 289.675781 262.988281 289.675781 L 262.984375 289.679688 C 262.984375 289.679688 258.425781 292.375 254.164062 298.269531 C 253.921875 298.601562 253.457031 298.679688 253.121094 298.4375 C 252.785156 298.195312 252.710938 297.726562 252.953125 297.394531 C 256.183594 292.929688 259.578125 290.21875 261.21875 289.058594 C 258.835938 287.375 256.273438 284.234375 255.257812 282.929688 C 254.214844 283.636719 251.941406 284.984375 249.109375 285.503906 C 248.703125 285.578125 248.3125 285.3125 248.238281 284.90625 C 248.164062 284.5 248.433594 284.109375 248.839844 284.035156 C 252.207031 283.414062 254.699219 281.503906 254.925781 281.332031 C 256.769531 279.625 257.289062 275.851562 254.488281 273.136719 C 253.304688 271.996094 251.6875 271.289062 249.855469 270.867188 C 249.480469 270.78125 249.09375 270.707031 248.699219 270.644531 Z M 166.59375 269.28125 C 165.53125 269.265625 164.507812 269.332031 163.5625 269.5 C 161.695312 269.824219 160.132812 270.515625 159.207031 271.765625 C 156.964844 274.789062 157.890625 277.632812 158.878906 278.878906 L 158.894531 278.902344 C 158.894531 278.902344 160.109375 280.535156 162.886719 281.90625 C 163.257812 282.085938 163.410156 282.535156 163.226562 282.90625 C 163.046875 283.277344 162.597656 283.429688 162.226562 283.246094 C 160.230469 282.261719 158.953125 281.148438 158.277344 280.457031 C 157.15625 281.601562 154.507812 284.007812 151.039062 285.234375 C 152.519531 286.730469 155.464844 290.0625 158.070312 295.125 C 158.257812 295.492188 158.113281 295.941406 157.75 296.132812 C 157.382812 296.320312 156.929688 296.175781 156.742188 295.808594 C 153.277344 289.078125 149.195312 285.53125 149.109375 285.457031 L 149.089844 285.441406 L 149.082031 285.429688 C 149.070312 285.421875 149.058594 285.410156 149.046875 285.398438 C 148.898438 285.242188 142.515625 278.683594 129.480469 278.488281 C 116.304688 278.292969 107.261719 287.441406 104.425781 295.515625 C 103.503906 298.136719 102.976562 300.257812 102.734375 301.96875 C 104.019531 303.183594 110.417969 308.738281 124.296875 313.429688 C 124.6875 313.5625 124.898438 313.984375 124.765625 314.375 C 124.632812 314.769531 124.210938 314.976562 123.820312 314.84375 C 111.605469 310.71875 105.039062 305.914062 102.566406 303.820312 C 102.5625 304.015625 102.5625 304.203125 102.5625 304.382812 C 102.597656 306.148438 103.035156 307.171875 103.597656 307.710938 C 104.710938 308.765625 114.945312 316.773438 137.355469 321.214844 C 155.410156 324.792969 172.417969 325.597656 179.050781 325.25 C 180.25 325.1875 181.3125 324.992188 181.515625 324.953125 C 181.574219 324.867188 181.628906 324.742188 181.695312 324.585938 C 181.882812 324.160156 182.074219 323.5625 182.265625 322.828125 C 177.675781 322.996094 157.980469 323.324219 134.464844 317.855469 C 134.0625 317.761719 133.8125 317.359375 133.90625 316.957031 C 134 316.554688 134.402344 316.304688 134.804688 316.398438 C 158.976562 322.023438 179.074219 321.46875 182.628906 321.316406 C 183.351562 318.054688 184.074219 313.320312 184.640625 308.804688 C 185.511719 301.824219 185.335938 292.105469 184.199219 287.5 C 183.15625 287.847656 181.144531 288.253906 177.949219 287.890625 C 177.539062 287.84375 177.246094 287.472656 177.289062 287.0625 C 177.335938 286.652344 177.707031 286.359375 178.117188 286.40625 C 182.441406 286.894531 184.273438 285.863281 184.300781 285.847656 C 184.367188 285.808594 187.25 283.988281 187.203125 280.238281 C 187.175781 278.019531 186.007812 276.230469 183.871094 274.683594 C 183.015625 274.070312 182.015625 273.496094 180.871094 272.953125 L 180.871094 272.964844 C 180.671875 273.753906 180.476562 274.546875 180.273438 275.332031 C 180.210938 275.578125 180.144531 275.828125 180.082031 276.074219 C 180.0625 276.15625 180.042969 276.234375 180.019531 276.316406 C 179.992188 276.402344 179.964844 276.488281 179.933594 276.574219 C 179.847656 276.804688 179.734375 277.027344 179.59375 277.226562 C 179.449219 277.433594 179.273438 277.617188 179.078125 277.773438 C 179.019531 277.820312 178.957031 277.867188 178.894531 277.910156 C 178.457031 278.199219 177.949219 278.367188 177.4375 278.464844 C 177.351562 278.480469 177.265625 278.492188 177.179688 278.507812 C 177.066406 278.523438 176.953125 278.535156 176.839844 278.542969 C 176.691406 278.558594 176.542969 278.566406 176.390625 278.570312 C 176.195312 278.578125 176.003906 278.578125 175.8125 278.570312 C 175.566406 278.566406 175.324219 278.550781 175.078125 278.527344 C 174.390625 278.46875 173.710938 278.363281 173.03125 278.230469 C 172.855469 278.195312 172.679688 278.160156 172.503906 278.121094 C 172.371094 278.09375 172.242188 278.066406 172.109375 278.035156 C 171.945312 277.996094 171.785156 277.953125 171.621094 277.910156 C 170.839844 277.699219 170.078125 277.421875 169.34375 277.078125 C 168.75 276.800781 168.171875 276.476562 167.636719 276.09375 C 167.398438 275.921875 167.167969 275.738281 166.949219 275.539062 C 166.761719 275.367188 166.582031 275.183594 166.417969 274.988281 C 166.175781 274.699219 165.964844 274.378906 165.824219 274.027344 C 165.75 273.84375 165.691406 273.648438 165.664062 273.449219 C 165.632812 273.238281 165.632812 273.019531 165.667969 272.808594 C 165.679688 272.757812 165.6875 272.703125 165.703125 272.652344 C 165.71875 272.585938 165.734375 272.519531 165.753906 272.453125 C 165.765625 272.40625 165.777344 272.359375 165.792969 272.3125 C 165.84375 272.121094 165.894531 271.929688 165.945312 271.742188 C 166.164062 270.933594 166.375 270.121094 166.585938 269.3125 Z M 166.59375 269.28125 " fill-opacity="1" fill-rule="evenodd"/></g><g clip-path="url(#f412a060e4)"><path fill="#8b3eea" d="M 210.554688 24.980469 C 214.765625 24.949219 219.144531 25.109375 223.316406 25.707031 C 232.339844 26.992188 240.773438 30.199219 248.722656 34.578125 C 256.683594 38.96875 263.527344 44.867188 269.398438 51.785156 C 276.445312 60.089844 281.851562 69.597656 284.863281 80.097656 C 286.84375 87.003906 287.90625 94.277344 287.972656 101.464844 C 287.988281 102.867188 288.054688 104.3125 287.9375 105.710938 C 287.722656 108.28125 287.164062 110.765625 286.605469 113.277344 C 284.871094 121.054688 282.214844 128.5 279.113281 135.828125 C 275.890625 143.4375 272.230469 150.789062 268.183594 157.988281 C 264.289062 164.921875 260.105469 171.640625 255.773438 178.304688 C 253.777344 181.378906 251.8125 184.46875 249.730469 187.488281 C 246.960938 191.5 244.078125 195.410156 241.207031 199.347656 C 238.535156 203.007812 235.902344 206.691406 233.144531 210.289062 C 230.871094 213.25 228.453125 216.105469 226.140625 219.039062 C 224.074219 221.667969 221.972656 224.277344 219.84375 226.855469 C 218.671875 228.269531 217.46875 229.949219 216.035156 231.121094 C 215.289062 231.726562 214.566406 232.105469 213.640625 232.367188 L 212.117188 232.554688 C 210.816406 232.59375 209.375 232.136719 208.414062 231.246094 C 206.582031 229.550781 204.957031 227.398438 203.355469 225.472656 C 199.550781 220.90625 195.917969 216.210938 192.296875 211.496094 C 185.433594 202.5625 178.699219 193.542969 172.402344 184.195312 C 170.117188 180.804688 167.976562 177.328125 165.773438 173.886719 C 155.003906 157.054688 145.085938 139.089844 139.429688 119.832031 C 137.898438 114.613281 136.445312 109.257812 136.285156 103.789062 C 135.683594 83.382812 143.683594 63.289062 157.695312 48.515625 C 159.609375 46.496094 161.664062 44.675781 163.789062 42.882812 C 173.964844 34.300781 185.925781 28.441406 199.0625 26.058594 C 202.886719 25.367188 206.675781 25.085938 210.554688 24.980469 Z M 211.117188 64.832031 C 209.660156 64.882812 208.210938 64.925781 206.765625 65.144531 C 199.195312 66.304688 191.53125 70.203125 186.320312 75.820312 C 179.53125 83.128906 176.179688 92.359375 176.535156 102.300781 C 176.855469 111.292969 180.828125 120.144531 187.453125 126.234375 C 194.449219 132.667969 203.554688 136.414062 213.132812 136.007812 C 214.996094 135.929688 216.816406 135.828125 218.65625 135.496094 C 226.429688 134.09375 233.414062 130.136719 238.753906 124.328125 C 245.320312 117.179688 248.222656 107.925781 247.800781 98.332031 C 247.402344 89.269531 243.320312 80.300781 236.582031 74.207031 C 231.753906 69.84375 225.597656 66.601562 219.183594 65.390625 C 216.546875 64.890625 213.792969 64.757812 211.117188 64.832031 Z M 211.117188 64.832031 " fill-opacity="1" fill-rule="nonzero"/></g><path fill="#8b3eea" d="M 182.9375 138.21875 C 182.9375 138.21875 163.128906 169.820312 141.195312 178.449219 C 137.152344 180.039062 131.082031 179.519531 124.328125 178.179688 C 112.789062 175.894531 99.5 170.773438 89.621094 165.660156 C 86.839844 164.21875 83.410156 165.308594 81.972656 168.09375 C 80.53125 170.875 81.621094 174.300781 84.402344 175.742188 C 95.136719 181.296875 109.582031 186.832031 122.121094 189.316406 C 131.421875 191.160156 139.78125 191.203125 145.351562 189.011719 C 169.9375 179.339844 192.515625 144.308594 192.515625 144.308594 C 194.195312 141.667969 193.414062 138.15625 190.773438 136.472656 C 188.128906 134.792969 184.617188 135.574219 182.9375 138.21875 Z M 182.9375 138.21875 " fill-opacity="1" fill-rule="evenodd"/><path fill="#ffffff" d="M 59.921875 144.515625 C 61.589844 143.226562 62.257812 141.726562 62.515625 138.265625 C 62.777344 134.808594 63.011719 128.285156 66.863281 125.257812 C 70.710938 122.230469 73.8125 122.425781 76.117188 123.859375 C 78.417969 125.296875 77.410156 129.148438 76.40625 134.796875 C 75.398438 140.445312 78.0625 144.730469 81.074219 149.117188 C 84.089844 153.503906 85.496094 155.816406 85.941406 158.375 C 85.941406 158.375 89.789062 159.296875 90.757812 162.828125 C 91.726562 166.359375 88.679688 174.738281 86.25 178.222656 C 83.824219 181.707031 79.707031 179.746094 79.707031 179.746094 C 79.707031 179.746094 75.898438 183.773438 70.390625 184.816406 C 64.882812 185.859375 59.382812 182.871094 55.164062 182.847656 C 55.164062 182.847656 51.535156 184.277344 46.546875 182.195312 C 41.757812 180.195312 37.523438 176.722656 41.71875 170.601562 C 41.71875 170.601562 38.25 168.734375 38.285156 164.65625 C 38.324219 160.578125 41.761719 158.769531 41.761719 158.769531 C 41.761719 158.769531 39.253906 155.316406 40.46875 151.292969 C 41.679688 147.273438 46.746094 145.59375 51.242188 145.554688 C 55.742188 145.515625 58.25 145.804688 59.921875 144.515625 Z M 59.921875 144.515625 " fill-opacity="1" fill-rule="evenodd"/><g clip-path="url(#252d7569c5)"><path fill="#8b3eea" d="M 59.535156 144.015625 C 58.789062 144.589844 57.851562 144.789062 56.601562 144.875 C 55.210938 144.96875 53.472656 144.90625 51.238281 144.925781 C 48.421875 144.949219 45.398438 145.601562 43.152344 147.015625 C 41.585938 148.003906 40.394531 149.355469 39.863281 151.113281 C 38.863281 154.425781 40.214844 157.378906 40.898438 158.574219 C 39.84375 159.328125 37.6875 161.28125 37.65625 164.648438 C 37.625 168.019531 39.785156 170.007812 40.847656 170.78125 C 39.335938 173.203125 39.101562 175.238281 39.625 176.933594 C 40.445312 179.609375 43.246094 181.5 46.304688 182.777344 C 51.011719 184.742188 54.574219 183.714844 55.269531 183.480469 C 57.3125 183.515625 59.652344 184.25 62.148438 184.84375 C 64.824219 185.484375 67.664062 185.972656 70.507812 185.433594 C 75.285156 184.53125 78.828125 181.460938 79.859375 180.484375 C 81.054688 180.90625 84.542969 181.777344 86.769531 178.585938 C 88.257812 176.449219 89.980469 172.511719 90.898438 168.925781 C 91.53125 166.457031 91.773438 164.148438 91.367188 162.660156 C 90.503906 159.515625 87.566406 158.25 86.488281 157.882812 C 85.964844 155.402344 84.535156 153.039062 81.59375 148.761719 C 78.675781 144.511719 76.050781 140.378906 77.027344 134.90625 C 77.640625 131.457031 78.246094 128.664062 78.132812 126.667969 C 78.042969 125.121094 77.539062 124.003906 76.449219 123.324219 C 73.972656 121.78125 70.621094 121.503906 66.472656 124.761719 C 64.835938 126.050781 63.800781 127.925781 63.144531 129.957031 C 62.203125 132.871094 62.046875 136.105469 61.886719 138.21875 C 61.648438 141.417969 61.078125 142.824219 59.535156 144.015625 Z M 85.316406 158.472656 C 84.882812 155.984375 83.488281 153.746094 80.554688 149.472656 C 77.445312 144.945312 74.746094 140.515625 75.785156 134.6875 C 76.378906 131.359375 76.980469 128.664062 76.871094 126.738281 C 76.8125 125.671875 76.535156 124.867188 75.78125 124.398438 C 73.65625 123.074219 70.804688 122.960938 67.253906 125.753906 C 65.808594 126.890625 64.921875 128.554688 64.34375 130.34375 C 63.4375 133.15625 63.296875 136.277344 63.144531 138.3125 C 62.867188 142.035156 62.101562 143.628906 60.304688 145.015625 C 59.554688 145.59375 58.65625 145.902344 57.523438 146.050781 C 55.988281 146.253906 53.984375 146.164062 51.25 146.1875 C 49.089844 146.207031 46.792969 146.613281 44.890625 147.503906 C 43.078125 148.351562 41.625 149.636719 41.070312 151.476562 C 40.003906 155.011719 42.046875 158.070312 42.253906 158.371094 C 43.375 159.605469 45.21875 160.488281 46.523438 160.839844 C 52.160156 162.363281 57.589844 160.589844 57.671875 160.5625 L 57.6875 160.558594 L 57.695312 160.558594 C 57.703125 160.554688 57.714844 160.550781 57.722656 160.546875 C 57.878906 160.507812 61.800781 159.472656 61.507812 155.71875 C 61.246094 152.320312 57.847656 149.964844 51.296875 149.75 C 50.949219 149.738281 50.675781 149.445312 50.6875 149.097656 C 50.699219 148.75 50.988281 148.476562 51.339844 148.488281 C 56.019531 148.640625 59.207031 149.886719 61.007812 151.75 C 60.804688 150.285156 60.78125 149.351562 60.78125 149.351562 C 60.777344 149.003906 61.050781 148.714844 61.402344 148.707031 C 61.75 148.699219 62.035156 148.976562 62.042969 149.324219 C 62.042969 149.324219 62.226562 159.265625 68.457031 164.777344 C 68.71875 165.007812 68.742188 165.40625 68.511719 165.667969 C 68.28125 165.929688 67.882812 165.953125 67.621094 165.722656 C 65.109375 163.5 63.519531 160.601562 62.511719 157.859375 C 61.910156 159.667969 60.425781 160.710938 59.328125 161.261719 C 60.640625 162.160156 62.503906 164.003906 62.199219 167.085938 C 61.972656 169.386719 60.75 170.910156 58.832031 171.878906 C 58.492188 172.050781 58.128906 172.203125 57.746094 172.339844 C 59.953125 173.871094 60.894531 176.617188 60.003906 179 C 59.390625 180.640625 58.289062 181.734375 57.3125 182.425781 C 58.910156 182.699219 60.636719 183.1875 62.441406 183.617188 C 64.949219 184.21875 67.609375 184.699219 70.273438 184.195312 C 75.441406 183.214844 79.058594 179.511719 79.242188 179.320312 C 81.105469 177.191406 82.417969 174.804688 83.34375 172.429688 C 83.46875 172.105469 83.835938 171.945312 84.160156 172.070312 C 84.484375 172.199219 84.644531 172.5625 84.519531 172.886719 C 83.644531 175.136719 82.433594 177.394531 80.773438 179.460938 C 81.960938 179.785156 84.222656 180.035156 85.734375 177.863281 C 87.160156 175.816406 88.796875 172.046875 89.679688 168.613281 C 90.246094 166.398438 90.515625 164.328125 90.148438 162.992188 C 89.554688 160.824219 87.75 159.75 86.65625 159.289062 C 86.726562 160.414062 86.75 162.375 86.335938 164.59375 C 86.273438 164.9375 85.945312 165.164062 85.601562 165.097656 C 85.261719 165.035156 85.035156 164.707031 85.097656 164.363281 C 85.679688 161.222656 85.339844 158.628906 85.316406 158.472656 Z M 41.910156 171.457031 C 40.65625 173.46875 40.394531 175.148438 40.828125 176.566406 C 41.554688 178.917969 44.097656 180.488281 46.792969 181.613281 C 51.445312 183.554688 54.84375 182.292969 54.933594 182.261719 C 54.945312 182.257812 54.957031 182.253906 54.96875 182.25 L 54.976562 182.246094 C 54.976562 182.246094 57.769531 181.378906 58.824219 178.558594 C 59.644531 176.359375 58.425781 173.796875 55.992188 172.820312 C 54.738281 173.082031 53.332031 173.222656 51.820312 173.273438 C 46.261719 173.457031 43.113281 172.117188 41.910156 171.457031 Z M 41.667969 159.570312 C 40.832031 160.15625 38.945312 161.785156 38.917969 164.660156 C 38.882812 168.265625 41.875 169.964844 42.011719 170.042969 C 42.035156 170.054688 42.058594 170.070312 42.082031 170.085938 L 42.097656 170.097656 C 42.117188 170.109375 45.03125 172.234375 51.777344 172.011719 C 54.359375 171.929688 56.609375 171.585938 58.265625 170.753906 C 59.785156 169.984375 60.765625 168.785156 60.945312 166.960938 C 61.261719 163.71875 58.582031 162.195312 57.832031 161.832031 C 56.675781 162.171875 51.519531 163.496094 46.191406 162.058594 C 44.832031 161.691406 42.957031 160.800781 41.667969 159.570312 Z M 41.667969 159.570312 " fill-opacity="1" fill-rule="evenodd"/></g><path fill="#8b3eea" d="M 294.578125 206.453125 C 294.578125 206.453125 287.082031 152.542969 250.261719 123.222656 C 248.125 121.523438 245.011719 121.875 243.308594 124.011719 C 241.609375 126.148438 241.964844 129.261719 244.097656 130.960938 C 278.046875 157.992188 284.777344 207.796875 284.777344 207.796875 C 285.148438 210.5 287.644531 212.394531 290.347656 212.023438 C 293.054688 211.652344 294.949219 209.15625 294.578125 206.453125 Z M 294.578125 206.453125 " fill-opacity="1" fill-rule="evenodd"/><g clip-path="url(#1cd9b41595)"><path fill="#ffffff" d="M 280.566406 215.125 C 280.566406 215.125 279.65625 211.757812 282.121094 209.851562 C 284.585938 207.945312 289.824219 207.246094 293.632812 207.804688 C 297.441406 208.363281 299.03125 211.773438 299.300781 213.972656 C 299.300781 213.972656 305.078125 215.90625 308.773438 225.652344 C 312.472656 235.398438 314.855469 244.019531 315.070312 249.03125 C 315.285156 254.035156 312.152344 258.128906 308.097656 257.101562 C 308.097656 257.101562 307.066406 261.125 303.75 262.171875 C 300.515625 263.191406 297.960938 261.488281 297.167969 260.308594 C 297.167969 260.308594 295.121094 263.765625 291.605469 263.429688 C 288.042969 263.089844 286.347656 260.386719 286.171875 256.890625 C 286 253.394531 288.035156 249.808594 287.425781 244.730469 C 286.820312 239.648438 284.375 234.777344 283.664062 234.761719 C 282.949219 234.746094 280.902344 236.644531 278.726562 239.015625 C 276.546875 241.382812 274.167969 243.578125 270.269531 243.664062 C 266.371094 243.75 264.429688 241.804688 264.566406 239.574219 C 264.703125 237.347656 267.972656 235.621094 269.992188 232.085938 C 273.261719 226.363281 273.730469 217.691406 280.566406 215.125 Z M 280.566406 215.125 " fill-opacity="1" fill-rule="evenodd"/></g><g clip-path="url(#452a28aae6)"><path fill="#8b3eea" d="M 279.941406 214.78125 C 276.648438 216.1875 274.820312 218.996094 273.4375 222.203125 C 272.066406 225.390625 271.140625 228.96875 269.515625 231.8125 C 268.324219 233.894531 266.6875 235.335938 265.542969 236.628906 C 264.671875 237.617188 264.078125 238.542969 264.019531 239.542969 C 263.863281 242.023438 265.941406 244.3125 270.28125 244.214844 C 274.351562 244.125 276.851562 241.863281 279.128906 239.386719 C 280.625 237.761719 282.050781 236.359375 283.011719 235.671875 C 283.195312 235.542969 283.355469 235.441406 283.496094 235.375 C 283.519531 235.363281 283.542969 235.351562 283.5625 235.339844 C 283.683594 235.480469 283.976562 235.847656 284.199219 236.234375 C 285.175781 237.949219 286.464844 241.324219 286.882812 244.792969 C 287.238281 247.773438 286.65625 250.222656 286.175781 252.445312 C 285.839844 254.015625 285.550781 255.472656 285.625 256.917969 C 285.8125 260.710938 287.691406 263.609375 291.550781 263.976562 C 294.402344 264.25 296.375 262.25 297.203125 261.203125 C 298.398438 262.394531 300.882812 263.652344 303.914062 262.695312 C 306.746094 261.800781 308.046875 258.910156 308.46875 257.738281 C 312.613281 258.410156 315.84375 254.210938 315.617188 249.003906 C 315.402344 243.960938 313.011719 235.273438 309.289062 225.457031 C 306.003906 216.796875 301.09375 214.148438 299.800781 213.578125 C 299.394531 211.210938 297.640625 207.835938 293.710938 207.261719 C 289.765625 206.683594 284.339844 207.441406 281.785156 209.417969 C 279.648438 211.070312 279.78125 213.703125 279.941406 214.78125 Z M 298.574219 213.109375 C 298.046875 211.164062 296.554688 208.789062 293.554688 208.347656 C 289.886719 207.808594 284.832031 208.449219 282.457031 210.285156 C 280.875 211.511719 280.867188 213.414062 280.988281 214.378906 C 282.003906 214.015625 284.144531 213.324219 286.640625 212.964844 C 286.941406 212.921875 287.21875 213.128906 287.261719 213.429688 C 287.304688 213.730469 287.097656 214.007812 286.796875 214.050781 C 283.457031 214.535156 280.777344 215.632812 280.777344 215.632812 L 280.761719 215.636719 C 277.492188 216.863281 275.765625 219.574219 274.445312 222.636719 C 273.058594 225.863281 272.113281 229.480469 270.46875 232.359375 C 269.234375 234.515625 267.550781 236.015625 266.367188 237.359375 C 265.683594 238.128906 265.164062 238.828125 265.117188 239.609375 C 264.992188 241.585938 266.800781 243.191406 270.257812 243.117188 C 273.980469 243.03125 276.238281 240.90625 278.320312 238.640625 C 279.878906 236.949219 281.371094 235.496094 282.375 234.777344 C 282.929688 234.378906 283.394531 234.207031 283.675781 234.210938 C 283.800781 234.214844 283.949219 234.25 284.105469 234.351562 C 284.273438 234.460938 284.488281 234.671875 284.71875 234.996094 C 285.753906 236.453125 287.472656 240.488281 287.972656 244.664062 C 288.285156 247.273438 287.921875 249.496094 287.5 251.515625 C 287.097656 253.4375 286.636719 255.160156 286.722656 256.863281 C 286.882812 260.066406 288.398438 262.570312 291.65625 262.882812 C 294.847656 263.1875 296.695312 260.027344 296.695312 260.027344 L 296.703125 260.011719 C 296.703125 260.011719 300.582031 253.832031 297.851562 241.144531 C 297.785156 240.847656 297.976562 240.554688 298.269531 240.492188 C 298.566406 240.425781 298.859375 240.617188 298.925781 240.914062 C 301.398438 252.402344 298.609375 258.777344 297.824219 260.261719 C 298.710938 261.292969 300.894531 262.496094 303.582031 261.648438 C 306.59375 260.695312 307.539062 257.066406 307.566406 256.96875 C 307.566406 256.96875 309.300781 250.050781 306.03125 240.285156 C 305.933594 239.996094 306.089844 239.683594 306.378906 239.589844 C 306.664062 239.492188 306.976562 239.648438 307.074219 239.9375 C 309.902344 248.390625 309.09375 254.789062 308.75 256.671875 C 312.210938 257.152344 314.707031 253.4375 314.519531 249.054688 C 314.308594 244.082031 311.929688 235.523438 308.261719 225.847656 C 304.707031 216.472656 299.210938 214.523438 299.128906 214.492188 L 299.109375 214.484375 L 299.09375 214.480469 C 299.09375 214.480469 299.089844 214.476562 299.085938 214.476562 C 297.410156 213.765625 295.613281 213.488281 293.824219 213.441406 C 293.519531 213.433594 293.28125 213.179688 293.289062 212.878906 C 293.296875 212.574219 293.550781 212.335938 293.851562 212.34375 C 295.445312 212.382812 297.046875 212.601562 298.574219 213.109375 Z M 298.574219 213.109375 " fill-opacity="1" fill-rule="evenodd"/></g></svg>