<svg xmlns="http://www.w3.org/2000/svg" xmlns:xlink="http://www.w3.org/1999/xlink" width="500" zoomAndPan="magnify" viewBox="0 0 375 374.999991" height="500" preserveAspectRatio="xMidYMid meet" version="1.0"><defs><clipPath id="a42ef6712c"><path d="M 70.71875 72 L 303.96875 72 L 303.96875 303 L 70.71875 303 Z M 70.71875 72 " clip-rule="nonzero"/></clipPath></defs><g clip-path="url(#a42ef6712c)"><path fill="#ffcd00" d="M 303.800781 187.324219 C 303.800781 193.941406 294.203125 199.671875 293.085938 205.960938 C 291.964844 212.4375 299.003906 221.101562 296.8125 227.160156 C 294.574219 233.308594 283.578125 235.40625 280.363281 241 C 277.097656 246.636719 280.734375 257.210938 276.585938 262.199219 C 272.394531 267.183594 261.347656 265.414062 256.363281 269.605469 C 251.375 273.800781 251.234375 284.933594 245.597656 288.242188 C 240.003906 291.503906 230.265625 286.054688 224.066406 288.289062 C 218.007812 290.480469 214.046875 300.960938 207.570312 302.082031 C 201.230469 303.199219 193.960938 294.71875 187.34375 294.71875 C 180.726562 294.71875 173.410156 303.152344 167.117188 302.082031 C 160.640625 300.960938 156.679688 290.480469 150.621094 288.289062 C 144.46875 286.054688 134.730469 291.457031 129.089844 288.242188 C 123.453125 284.980469 123.265625 273.800781 118.328125 269.605469 C 113.339844 265.414062 102.296875 267.183594 98.101562 262.199219 C 93.90625 257.210938 97.589844 246.683594 94.324219 241.042969 C 91.0625 235.453125 80.113281 233.355469 77.875 227.207031 C 75.683594 221.148438 82.722656 212.53125 81.605469 206.007812 C 80.484375 199.671875 70.886719 193.988281 70.886719 187.371094 C 70.886719 180.753906 80.484375 175.023438 81.605469 168.734375 C 82.722656 162.257812 75.683594 153.589844 77.875 147.535156 C 80.113281 141.382812 91.109375 139.289062 94.324219 133.695312 C 97.589844 128.058594 93.953125 117.480469 98.101562 112.496094 C 102.296875 107.511719 113.339844 109.28125 118.328125 105.089844 C 123.3125 100.894531 123.453125 89.757812 129.089844 86.453125 C 134.683594 83.191406 144.421875 88.640625 150.621094 86.40625 C 156.679688 84.214844 160.640625 73.730469 167.117188 72.613281 C 173.363281 71.449219 180.679688 79.929688 187.296875 79.929688 C 193.914062 79.929688 201.230469 71.496094 207.523438 72.566406 C 214 73.683594 217.960938 84.167969 224.019531 86.359375 C 230.171875 88.59375 239.910156 83.191406 245.550781 86.40625 C 251.1875 89.667969 251.375 100.847656 256.316406 105.042969 C 261.300781 109.234375 272.347656 107.464844 276.539062 112.449219 C 280.734375 117.433594 277.054688 127.964844 280.316406 133.601562 C 283.578125 139.195312 294.527344 141.289062 296.765625 147.441406 C 298.957031 153.496094 291.917969 162.117188 293.039062 168.640625 C 294.203125 174.976562 303.800781 180.660156 303.800781 187.324219 Z M 303.800781 187.324219 " fill-opacity="1" fill-rule="nonzero"/></g></svg>