<svg xmlns="http://www.w3.org/2000/svg" xmlns:xlink="http://www.w3.org/1999/xlink" width="500" zoomAndPan="magnify" viewBox="0 0 375 374.999991" height="500" preserveAspectRatio="xMidYMid meet" version="1.0"><defs><clipPath id="a56ebd611e"><path d="M 78 167.863281 L 285 167.863281 L 285 330.613281 L 78 330.613281 Z M 78 167.863281 " clip-rule="nonzero"/></clipPath><clipPath id="ee13212e95"><path d="M 113 28 L 265.769531 28 L 265.769531 235.722656 L 113 235.722656 Z M 113 28 " clip-rule="nonzero"/></clipPath><clipPath id="ce963208c7"><path d="M 219.160156 100 L 280 100 L 280 190 L 219.160156 190 Z M 219.160156 100 " clip-rule="nonzero"/></clipPath><clipPath id="f3d1a87b4c"><path d="M 113 190 L 163.769531 190 L 163.769531 241.699219 L 113 241.699219 Z M 113 190 " clip-rule="nonzero"/></clipPath></defs><path fill="#ffffff" d="M 205.636719 286.433594 C 205.636719 286.433594 202.226562 282.679688 204.945312 278.136719 C 207.355469 274.109375 211.867188 273.496094 217.535156 272.902344 C 222.976562 272.328125 229.050781 272.5625 232.238281 275.644531 C 235.421875 278.726562 234.75 283.023438 232.640625 284.941406 C 232.640625 284.941406 236.664062 290.445312 239.832031 292.078125 C 239.832031 292.078125 250.332031 285.730469 262.644531 289.742188 C 274.960938 293.757812 282.535156 304.921875 283.671875 313.625 C 284.804688 322.332031 281.699219 324.628906 280.257812 325.5 C 278.816406 326.367188 263.25 329.941406 240.695312 329.996094 C 218.144531 330.046875 202.394531 327.203125 201.445312 325.988281 C 200.5 324.777344 198.671875 303.578125 205.636719 286.433594 Z M 151.246094 272.738281 C 145.320312 271.050781 138.40625 270.890625 135.835938 274.363281 C 133.308594 277.773438 134.410156 280.984375 135.523438 282.386719 C 135.523438 282.386719 131.925781 286.660156 126.824219 287.933594 C 126.824219 287.933594 120.28125 280.984375 106.722656 280.785156 C 93.164062 280.585938 83.867188 290.003906 80.949219 298.3125 C 78.039062 306.597656 79 310.046875 80.3125 311.292969 C 81.4375 312.363281 91.773438 320.5 114.441406 324.992188 C 137.109375 329.484375 158.132812 329.613281 159.214844 328.589844 C 160.292969 327.570312 161.671875 319.457031 162.609375 311.941406 C 163.550781 304.421875 163.269531 293.78125 161.921875 289.53125 C 161.921875 289.53125 165.234375 287.507812 165.183594 283.269531 C 165.121094 278.378906 160.164062 275.277344 151.246094 272.738281 Z M 151.246094 272.738281 " fill-opacity="1" fill-rule="evenodd"/><g clip-path="url(#a56ebd611e)"><path fill="#8b3eea" d="M 211.664062 273 C 211.003906 273.148438 210.375 273.320312 209.777344 273.527344 C 207.46875 274.316406 205.609375 275.578125 204.304688 277.753906 C 201.835938 281.886719 203.945312 285.421875 204.78125 286.554688 C 199.644531 299.5 199.386719 314.613281 199.984375 321.859375 C 199.984375 321.871094 199.984375 321.882812 199.988281 321.898438 C 200.023438 322.34375 200.0625 322.757812 200.105469 323.136719 C 200.242188 324.351562 200.402344 325.25 200.550781 325.769531 C 200.648438 326.109375 200.765625 326.332031 200.859375 326.449219 C 200.960938 326.582031 201.144531 326.738281 201.433594 326.890625 C 201.839844 327.097656 202.550781 327.347656 203.542969 327.601562 C 208.808594 328.957031 222.566406 330.785156 240.699219 330.742188 C 256.554688 330.707031 268.972656 328.933594 275.492188 327.574219 C 278.410156 326.96875 280.191406 326.414062 280.644531 326.140625 C 282.179688 325.214844 285.621094 322.804688 284.414062 313.53125 C 283.25 304.609375 275.5 293.148438 262.878906 289.035156 C 251.628906 285.367188 241.851562 290.125 239.828125 291.222656 C 237.414062 289.792969 234.613281 286.304688 233.617188 285.003906 C 235.589844 282.679688 236.0625 278.304688 232.753906 275.109375 C 231.390625 273.785156 229.535156 272.941406 227.421875 272.453125 C 226.90625 272.335938 226.378906 272.242188 225.835938 272.164062 L 226.085938 276.179688 C 222.898438 226.308594 224.480469 175.199219 224.480469 175.199219 C 224.554688 171.28125 221.433594 168.042969 217.515625 167.96875 C 213.597656 167.894531 210.359375 171.015625 210.285156 174.933594 C 210.285156 174.933594 208.777344 223.898438 211.664062 273 Z M 144.203125 270.84375 C 142.914062 270.800781 141.675781 270.871094 140.539062 271.070312 C 138.25 271.46875 136.367188 272.390625 135.234375 273.917969 C 132.703125 277.335938 133.484375 280.574219 134.570312 282.324219 C 133.582031 283.363281 130.761719 286.039062 127.042969 287.101562 C 125.546875 285.707031 118.890625 280.21875 106.734375 280.039062 C 92.796875 279.832031 83.242188 289.523438 80.246094 298.0625 C 79.230469 300.953125 78.679688 303.273438 78.441406 305.128906 C 78.433594 305.171875 78.429688 305.210938 78.425781 305.253906 C 78.257812 306.640625 78.265625 307.769531 78.390625 308.671875 C 78.609375 310.273438 79.183594 311.253906 79.796875 311.835938 C 80.9375 312.917969 91.375 321.183594 114.296875 325.726562 C 132.511719 329.335938 149.667969 330.136719 156.355469 329.789062 C 157.59375 329.722656 158.488281 329.617188 158.992188 329.488281 C 159.371094 329.390625 159.609375 329.246094 159.726562 329.132812 C 160.097656 328.785156 160.558594 327.726562 160.96875 326.152344 C 161.039062 325.875 161.113281 325.578125 161.1875 325.269531 C 161.1875 325.253906 161.191406 325.242188 161.195312 325.230469 C 161.964844 321.921875 162.75 316.855469 163.351562 312.03125 C 164.269531 304.699219 164.023438 294.4375 162.785156 289.828125 C 163.777344 289.042969 165.976562 286.886719 165.929688 283.261719 C 165.894531 280.585938 164.558594 278.378906 161.972656 276.515625 C 160.988281 275.804688 159.816406 275.144531 158.464844 274.519531 C 170.355469 225.503906 169.96875 175.136719 169.96875 175.136719 C 170.003906 171.21875 166.855469 168.003906 162.9375 167.964844 C 159.019531 167.929688 155.808594 171.078125 155.769531 174.996094 C 155.769531 174.996094 156.160156 223.589844 144.203125 270.84375 Z M 225.9375 273.839844 C 225.96875 274.328125 226 274.816406 226.027344 275.300781 C 226.039062 275.496094 226.054688 275.691406 226.066406 275.886719 C 226.074219 276.039062 226.085938 276.1875 226.09375 276.339844 C 226.097656 276.496094 226.101562 276.65625 226.09375 276.816406 C 226.082031 277.1875 226.035156 277.5625 225.933594 277.921875 C 225.824219 278.3125 225.65625 278.6875 225.425781 279.015625 C 225.339844 279.140625 225.246094 279.257812 225.140625 279.367188 C 225.074219 279.441406 225 279.515625 224.925781 279.582031 C 224.445312 280.023438 223.859375 280.324219 223.25 280.542969 C 223.152344 280.578125 223.050781 280.613281 222.953125 280.644531 C 222.816406 280.6875 222.683594 280.726562 222.546875 280.761719 C 222.375 280.804688 222.203125 280.84375 222.027344 280.882812 C 221.789062 280.933594 221.546875 280.976562 221.300781 281.011719 C 220.675781 281.109375 220.050781 281.167969 219.417969 281.210938 C 218.984375 281.238281 218.550781 281.261719 218.117188 281.269531 C 217.800781 281.273438 217.484375 281.273438 217.171875 281.261719 C 216.9375 281.253906 216.707031 281.238281 216.476562 281.21875 C 216.304688 281.203125 216.132812 281.183594 215.964844 281.164062 C 215.832031 281.144531 215.699219 281.121094 215.566406 281.097656 C 215.46875 281.078125 215.371094 281.058594 215.277344 281.039062 C 214.644531 280.894531 214.027344 280.667969 213.496094 280.292969 C 213.410156 280.234375 213.328125 280.171875 213.25 280.105469 C 213.140625 280.011719 213.035156 279.910156 212.933594 279.800781 C 212.660156 279.503906 212.441406 279.152344 212.285156 278.777344 C 212.136719 278.429688 212.039062 278.066406 211.980469 277.695312 C 211.957031 277.546875 211.9375 277.394531 211.925781 277.242188 C 211.914062 277.09375 211.90625 276.941406 211.894531 276.789062 C 211.882812 276.59375 211.871094 276.394531 211.859375 276.199219 C 211.828125 275.707031 211.796875 275.210938 211.765625 274.71875 L 211.753906 274.511719 C 211.238281 274.636719 210.738281 274.777344 210.261719 274.9375 C 208.296875 275.613281 206.695312 276.667969 205.589844 278.519531 C 203.308594 282.332031 205.839844 285.515625 206.15625 285.890625 C 206.421875 286.101562 208.289062 287.46875 211.941406 287.914062 C 212.347656 287.964844 212.640625 288.339844 212.589844 288.75 C 212.539062 289.15625 212.167969 289.449219 211.757812 289.398438 C 208.878906 289.046875 206.980469 288.164062 205.988281 287.574219 C 201.234375 299.878906 200.90625 314.050781 201.433594 321.234375 C 203.992188 321.90625 216.394531 324.890625 236.738281 325.253906 C 237.152344 325.261719 237.480469 325.601562 237.472656 326.015625 C 237.464844 326.425781 237.125 326.753906 236.710938 326.75 C 217.34375 326.402344 205.097656 323.699219 201.574219 322.8125 C 201.582031 322.867188 201.585938 322.921875 201.59375 322.972656 C 201.726562 324.167969 201.988281 325.269531 202.046875 325.515625 C 202.152344 325.570312 202.414062 325.699219 202.660156 325.785156 C 203.429688 326.054688 204.632812 326.355469 206.222656 326.667969 C 212.574219 327.910156 224.976562 329.285156 240.695312 329.25 C 256.414062 329.210938 268.722656 327.457031 275.1875 326.113281 C 277.832031 325.5625 279.460938 325.105469 279.871094 324.859375 C 280.574219 324.433594 281.667969 323.636719 282.398438 321.808594 C 277.3125 323.871094 265.621094 326.304688 246 326.730469 C 245.589844 326.738281 245.246094 326.410156 245.238281 326 C 245.230469 325.585938 245.558594 325.242188 245.96875 325.234375 C 266.835938 324.785156 278.585938 322.085938 282.855469 319.96875 C 282.878906 319.957031 282.90625 319.949219 282.929688 319.9375 C 283.214844 318.394531 283.277344 316.375 282.929688 313.722656 C 281.824219 305.238281 274.417969 294.367188 262.414062 290.453125 C 250.433594 286.550781 240.21875 292.71875 240.21875 292.71875 L 240.214844 292.722656 C 240.214844 292.722656 235.65625 295.417969 231.394531 301.3125 C 231.152344 301.648438 230.6875 301.722656 230.351562 301.480469 C 230.015625 301.238281 229.941406 300.773438 230.183594 300.4375 C 233.414062 295.972656 236.808594 293.261719 238.449219 292.101562 C 236.066406 290.417969 233.503906 287.277344 232.488281 285.976562 C 231.445312 286.683594 229.171875 288.027344 226.339844 288.546875 C 225.933594 288.625 225.542969 288.355469 225.46875 287.949219 C 225.394531 287.542969 225.664062 287.152344 226.070312 287.078125 C 229.4375 286.457031 231.929688 284.550781 232.15625 284.375 C 234 282.667969 234.519531 278.894531 231.71875 276.179688 C 230.535156 275.039062 228.917969 274.332031 227.085938 273.910156 C 226.710938 273.824219 226.324219 273.75 225.929688 273.6875 Z M 143.824219 272.324219 C 142.761719 272.308594 141.738281 272.378906 140.792969 272.542969 C 138.925781 272.867188 137.359375 273.5625 136.4375 274.808594 C 134.195312 277.832031 135.121094 280.675781 136.109375 281.921875 L 136.121094 281.945312 L 136.125 281.949219 C 136.125 281.949219 137.339844 283.578125 140.117188 284.949219 C 140.488281 285.132812 140.640625 285.578125 140.457031 285.949219 C 140.277344 286.320312 139.828125 286.472656 139.457031 286.289062 C 137.460938 285.308594 136.183594 284.195312 135.507812 283.5 C 134.386719 284.644531 131.738281 287.054688 128.269531 288.277344 C 129.75 289.777344 132.695312 293.109375 135.300781 298.167969 C 135.488281 298.535156 135.34375 298.988281 134.980469 299.175781 C 134.613281 299.363281 134.160156 299.21875 133.972656 298.851562 C 130.503906 292.121094 126.425781 288.574219 126.339844 288.5 L 126.320312 288.484375 L 126.3125 288.476562 C 126.300781 288.464844 126.289062 288.453125 126.277344 288.441406 C 126.128906 288.285156 119.746094 281.726562 106.710938 281.53125 C 93.535156 281.339844 84.492188 290.484375 81.65625 298.558594 C 80.734375 301.179688 80.207031 303.300781 79.964844 305.011719 C 81.25 306.226562 87.648438 311.785156 101.527344 316.472656 C 101.917969 316.605469 102.128906 317.03125 101.996094 317.421875 C 101.863281 317.8125 101.441406 318.019531 101.050781 317.890625 C 88.835938 313.761719 82.269531 308.957031 79.796875 306.863281 C 79.792969 307.058594 79.792969 307.246094 79.792969 307.425781 C 79.828125 309.191406 80.265625 310.214844 80.828125 310.753906 C 81.941406 311.8125 92.175781 319.816406 114.585938 324.257812 C 132.640625 327.835938 149.648438 328.640625 156.28125 328.296875 C 157.480469 328.230469 158.542969 328.035156 158.746094 327.996094 C 158.804688 327.914062 158.859375 327.785156 158.925781 327.632812 C 159.113281 327.207031 159.304688 326.605469 159.496094 325.871094 C 154.90625 326.039062 135.210938 326.371094 111.695312 320.898438 C 111.292969 320.804688 111.042969 320.402344 111.136719 320 C 111.230469 319.597656 111.632812 319.347656 112.035156 319.441406 C 136.207031 325.066406 156.304688 324.511719 159.859375 324.359375 C 160.582031 321.101562 161.304688 316.363281 161.871094 311.847656 C 162.742188 304.867188 162.566406 295.152344 161.429688 290.546875 C 160.386719 290.890625 158.375 291.296875 155.179688 290.933594 C 154.769531 290.886719 154.476562 290.515625 154.519531 290.105469 C 154.566406 289.699219 154.9375 289.402344 155.347656 289.449219 C 159.671875 289.9375 161.503906 288.90625 161.53125 288.894531 C 161.597656 288.851562 164.480469 287.03125 164.433594 283.28125 C 164.40625 281.0625 163.238281 279.273438 161.097656 277.726562 C 160.246094 277.113281 159.246094 276.539062 158.101562 275.996094 L 158.101562 276.007812 C 157.902344 276.800781 157.707031 277.589844 157.503906 278.378906 C 157.441406 278.625 157.375 278.871094 157.3125 279.117188 C 157.292969 279.199219 157.269531 279.277344 157.25 279.359375 C 157.222656 279.449219 157.195312 279.535156 157.160156 279.621094 C 157.078125 279.851562 156.964844 280.070312 156.824219 280.273438 C 156.679688 280.476562 156.503906 280.660156 156.308594 280.816406 C 156.25 280.863281 156.1875 280.910156 156.121094 280.953125 C 155.6875 281.246094 155.179688 281.414062 154.667969 281.507812 C 154.582031 281.523438 154.496094 281.539062 154.410156 281.550781 C 154.296875 281.566406 154.183594 281.578125 154.070312 281.589844 C 153.921875 281.601562 153.769531 281.609375 153.621094 281.613281 C 153.425781 281.621094 153.234375 281.621094 153.039062 281.613281 C 152.796875 281.609375 152.554688 281.59375 152.308594 281.574219 C 151.621094 281.515625 150.941406 281.40625 150.261719 281.273438 C 150.085938 281.242188 149.910156 281.203125 149.734375 281.167969 C 149.601562 281.136719 149.472656 281.109375 149.339844 281.078125 C 149.175781 281.039062 149.015625 281 148.851562 280.953125 C 148.070312 280.742188 147.308594 280.464844 146.574219 280.125 C 145.980469 279.84375 145.402344 279.519531 144.867188 279.136719 C 144.628906 278.964844 144.398438 278.78125 144.179688 278.582031 C 143.992188 278.410156 143.8125 278.230469 143.648438 278.035156 C 143.40625 277.742188 143.195312 277.425781 143.054688 277.070312 C 142.976562 276.886719 142.921875 276.691406 142.894531 276.492188 C 142.863281 276.28125 142.863281 276.066406 142.898438 275.851562 C 142.910156 275.800781 142.917969 275.746094 142.933594 275.695312 C 142.949219 275.628906 142.964844 275.5625 142.984375 275.5 C 142.996094 275.449219 143.007812 275.402344 143.023438 275.355469 C 143.074219 275.164062 143.125 274.976562 143.175781 274.785156 C 143.394531 273.976562 143.605469 273.164062 143.816406 272.355469 Z M 143.824219 272.324219 " fill-opacity="1" fill-rule="evenodd"/></g><g clip-path="url(#ee13212e95)"><path fill="#8b3eea" d="M 187.785156 28.023438 C 191.996094 27.992188 196.375 28.152344 200.546875 28.75 C 209.570312 30.035156 218.003906 33.242188 225.953125 37.621094 C 233.914062 42.011719 240.757812 47.910156 246.628906 54.828125 C 253.675781 63.136719 259.082031 72.644531 262.09375 83.140625 C 264.074219 90.046875 265.136719 97.320312 265.203125 104.507812 C 265.21875 105.910156 265.285156 107.359375 265.167969 108.753906 C 264.953125 111.328125 264.394531 113.808594 263.835938 116.320312 C 262.101562 124.101562 259.445312 131.542969 256.34375 138.871094 C 253.121094 146.480469 249.460938 153.832031 245.414062 161.03125 C 241.519531 167.964844 237.335938 174.683594 233.003906 181.351562 C 231.007812 184.421875 229.042969 187.515625 226.960938 190.53125 C 224.191406 194.542969 221.308594 198.453125 218.4375 202.390625 C 215.765625 206.050781 213.132812 209.738281 210.375 213.332031 C 208.101562 216.292969 205.683594 219.152344 203.371094 222.085938 C 201.304688 224.710938 199.203125 227.320312 197.074219 229.898438 C 195.902344 231.316406 194.695312 232.996094 193.265625 234.164062 C 192.519531 234.769531 191.796875 235.152344 190.871094 235.410156 L 189.347656 235.597656 C 188.046875 235.636719 186.605469 235.179688 185.644531 234.289062 C 183.8125 232.59375 182.1875 230.441406 180.585938 228.519531 C 176.78125 223.949219 173.148438 219.253906 169.527344 214.539062 C 162.664062 205.605469 155.929688 196.585938 149.632812 187.238281 C 147.347656 183.847656 145.207031 180.375 143.003906 176.929688 C 132.230469 160.097656 122.316406 142.132812 116.660156 122.875 C 115.128906 117.65625 113.675781 112.300781 113.515625 106.835938 C 112.914062 86.429688 120.914062 66.335938 134.925781 51.558594 C 136.839844 49.539062 138.894531 47.71875 141.019531 45.925781 C 151.195312 37.34375 163.15625 31.484375 176.292969 29.105469 C 180.117188 28.410156 183.90625 28.128906 187.785156 28.023438 Z M 188.347656 67.875 C 186.890625 67.929688 185.441406 67.96875 183.996094 68.191406 C 176.425781 69.347656 168.761719 73.246094 163.550781 78.863281 C 156.761719 86.171875 153.410156 95.402344 153.765625 105.34375 C 154.085938 114.335938 158.058594 123.1875 164.683594 129.277344 C 171.679688 135.710938 180.785156 139.457031 190.363281 139.054688 C 192.226562 138.976562 194.046875 138.871094 195.886719 138.539062 C 203.660156 137.136719 210.644531 133.179688 215.984375 127.371094 C 222.550781 120.222656 225.453125 110.972656 225.03125 101.375 C 224.632812 92.3125 220.550781 83.34375 213.8125 77.253906 C 208.984375 72.886719 202.828125 69.644531 196.414062 68.433594 C 193.777344 67.9375 191.023438 67.800781 188.347656 67.875 Z M 188.347656 67.875 " fill-opacity="1" fill-rule="nonzero"/></g><g clip-path="url(#ce963208c7)"><path fill="#8b3eea" d="M 268.976562 105.996094 C 268.976562 105.996094 269.5625 121.417969 264.023438 138.511719 C 258.628906 155.152344 247.359375 173.527344 223.414062 180.035156 C 220.726562 180.765625 219.136719 183.539062 219.867188 186.226562 C 220.597656 188.914062 223.371094 190.503906 226.058594 189.773438 C 253.964844 182.195312 267.339844 161.015625 273.625 141.625 C 279.761719 122.6875 279.0625 105.597656 279.0625 105.597656 C 278.953125 102.8125 276.605469 100.644531 273.820312 100.753906 C 271.035156 100.863281 268.867188 103.210938 268.976562 105.996094 Z M 268.976562 105.996094 " fill-opacity="1" fill-rule="evenodd"/></g><path fill="#ffffff" d="M 263.839844 102.046875 C 263.839844 102.046875 261.8125 107.0625 269.921875 108.375 C 278.035156 109.683594 286.648438 107.699219 284.71875 100.453125 C 284.71875 100.453125 290.136719 97.890625 291.597656 90.984375 C 293.054688 84.078125 292.214844 77.554688 292.875 72.910156 C 293.605469 67.75 296.03125 60.636719 296.253906 56.226562 C 296.488281 51.640625 294.648438 48.761719 290.777344 48.640625 C 287.746094 48.546875 285.480469 50.933594 285.046875 55.308594 C 284.617188 59.6875 284.265625 64.054688 283.097656 69.398438 L 281.664062 69.070312 C 281.664062 69.070312 282.109375 63.824219 282.925781 58.992188 C 283.671875 54.578125 284.3125 50.496094 283.816406 47.34375 C 283.148438 43.140625 278.503906 41.203125 274.917969 43.082031 C 271.15625 45.054688 271.558594 49.605469 271.90625 55.675781 C 272.296875 62.460938 271.851562 67.957031 271.851562 67.957031 L 270.414062 67.980469 C 270.414062 67.980469 270.058594 62.121094 269.925781 57.332031 C 269.796875 52.539062 270.015625 48.394531 266.738281 46.078125 C 264.21875 44.292969 257.625 44.847656 257.636719 52.515625 C 257.644531 58.382812 259.523438 62.707031 259.816406 70.597656 C 260.019531 76.027344 260.109375 76.902344 258.851562 77.003906 C 257.589844 77.109375 255.789062 75.09375 252.730469 72.953125 C 249.671875 70.816406 245.183594 68.785156 240.851562 70.886719 C 237.378906 72.566406 237.460938 74.847656 238.820312 77.042969 C 240.734375 80.140625 244.152344 81.539062 247.019531 84.4375 C 251.050781 88.515625 252.359375 93.214844 254.554688 96.804688 C 256.75 100.394531 260.472656 101.480469 263.839844 102.046875 Z M 263.839844 102.046875 " fill-opacity="1" fill-rule="evenodd"/><path fill="#8b3eea" d="M 263.140625 102.492188 C 262.996094 103.261719 262.9375 104.597656 263.8125 105.894531 C 264.648438 107.128906 266.363281 108.367188 269.832031 108.929688 C 274 109.601562 278.296875 109.410156 281.304688 108.140625 C 282.890625 107.464844 284.132812 106.492188 284.851562 105.207031 C 285.523438 104.007812 285.753906 102.527344 285.367188 100.742188 C 286.691406 99.976562 290.871094 97.132812 292.144531 91.101562 C 293.605469 84.179688 292.769531 77.644531 293.429688 72.992188 C 294.164062 67.8125 296.589844 60.675781 296.8125 56.253906 C 296.964844 53.304688 296.273438 51.027344 294.835938 49.636719 C 293.847656 48.6875 292.503906 48.132812 290.796875 48.082031 C 287.5 47.976562 284.957031 50.5 284.488281 55.253906 C 284.078125 59.460938 283.734375 63.65625 282.667969 68.726562 C 282.667969 68.726562 282.269531 68.632812 282.269531 68.632812 C 282.398438 67.230469 282.8125 63.019531 283.476562 59.085938 C 284.234375 54.601562 284.875 50.453125 284.367188 47.253906 C 283.640625 42.664062 278.574219 40.535156 274.660156 42.585938 C 272.609375 43.660156 271.671875 45.421875 271.316406 47.757812 C 270.984375 49.933594 271.167969 52.625 271.347656 55.707031 C 271.664062 61.234375 271.425781 65.902344 271.328125 67.402344 C 271.328125 67.402344 270.941406 67.410156 270.941406 67.410156 C 270.851562 65.859375 270.59375 61.230469 270.488281 57.316406 C 270.421875 54.886719 270.441406 52.625 270.0625 50.671875 C 269.664062 48.597656 268.828125 46.867188 267.0625 45.621094 C 265.121094 44.246094 260.980469 44.109375 258.679688 47.0625 C 257.71875 48.289062 257.070312 50.058594 257.074219 52.519531 C 257.085938 58.390625 258.964844 62.71875 259.257812 70.621094 C 259.355469 73.289062 259.433594 74.835938 259.324219 75.734375 C 259.285156 76.0625 259.261719 76.265625 259.125 76.367188 C 259.042969 76.425781 258.9375 76.4375 258.804688 76.445312 C 258.398438 76.480469 257.941406 76.191406 257.355469 75.78125 C 256.269531 75.019531 254.886719 73.78125 253.050781 72.496094 C 249.847656 70.257812 245.144531 68.183594 240.605469 70.382812 C 238.664062 71.320312 237.75 72.464844 237.476562 73.644531 C 237.203125 74.832031 237.578125 76.101562 238.34375 77.339844 C 239.339844 78.945312 240.714844 80.121094 242.222656 81.261719 C 243.65625 82.34375 245.207031 83.402344 246.621094 84.832031 C 250.617188 88.875 251.898438 93.539062 254.074219 97.097656 C 256.234375 100.628906 259.796875 101.867188 263.140625 102.492188 Z M 269.824219 67.519531 C 269.734375 66.011719 269.472656 61.3125 269.367188 57.347656 C 269.300781 54.984375 269.328125 52.78125 268.960938 50.882812 C 268.621094 49.105469 267.929688 47.605469 266.417969 46.535156 C 264.828125 45.410156 261.445312 45.339844 259.5625 47.75 C 258.726562 48.820312 258.191406 50.371094 258.195312 52.515625 C 258.207031 58.375 260.085938 62.691406 260.378906 70.578125 C 260.503906 73.933594 260.566406 75.601562 260.332031 76.421875 C 260.214844 76.835938 260.027344 77.097656 259.785156 77.273438 C 259.558594 77.441406 259.269531 77.535156 258.894531 77.566406 C 258.296875 77.613281 257.574219 77.304688 256.710938 76.699219 C 255.625 75.9375 254.246094 74.699219 252.410156 73.414062 C 249.492188 71.375 245.226562 69.390625 241.09375 71.390625 C 239.566406 72.128906 238.785156 72.96875 238.570312 73.898438 C 238.355469 74.820312 238.703125 75.789062 239.296875 76.75 C 240.21875 78.238281 241.503906 79.308594 242.902344 80.367188 C 244.375 81.480469 245.964844 82.574219 247.417969 84.042969 C 251.488281 88.15625 252.816406 92.890625 255.03125 96.511719 C 257.132812 99.945312 260.710938 100.953125 263.933594 101.492188 L 263.9375 101.492188 C 263.9375 101.492188 266.417969 101.933594 270.269531 101.957031 C 270.578125 101.957031 270.828125 102.210938 270.828125 102.519531 C 270.824219 102.828125 270.574219 103.078125 270.261719 103.078125 C 267.332031 103.058594 265.171875 102.808594 264.246094 102.675781 C 264.132812 103.234375 264.066406 104.265625 264.742188 105.265625 C 265.46875 106.339844 266.996094 107.332031 270.011719 107.820312 C 273.957031 108.457031 278.023438 108.308594 280.867188 107.105469 C 282.203125 106.539062 283.265625 105.742188 283.871094 104.660156 C 284.390625 103.734375 284.566406 102.609375 284.328125 101.265625 C 283.445312 101.65625 281.703125 102.292969 279.132812 102.660156 C 278.824219 102.703125 278.539062 102.492188 278.496094 102.183594 C 278.453125 101.878906 278.664062 101.59375 278.972656 101.550781 C 282.535156 101.039062 284.394531 99.992188 284.4375 99.96875 C 284.445312 99.964844 284.449219 99.960938 284.457031 99.957031 C 284.464844 99.953125 284.472656 99.949219 284.484375 99.945312 C 284.605469 99.886719 289.667969 97.402344 291.046875 90.867188 C 292.503906 83.976562 291.660156 77.464844 292.320312 72.832031 C 293.046875 67.6875 295.46875 60.59375 295.695312 56.195312 C 295.824219 53.644531 295.304688 51.648438 294.054688 50.445312 C 293.253906 49.671875 292.148438 49.246094 290.761719 49.199219 C 287.988281 49.113281 286 51.367188 285.605469 55.367188 C 285.1875 59.640625 284.835938 63.90625 283.738281 69.078125 C 284.972656 69.449219 286.226562 69.894531 287.492188 70.4375 C 287.773438 70.558594 287.90625 70.886719 287.785156 71.171875 C 287.664062 71.457031 287.332031 71.589844 287.050781 71.46875 C 276.878906 67.117188 267.210938 68.9375 267.210938 68.9375 C 266.910156 68.992188 266.617188 68.792969 266.558594 68.488281 C 266.5 68.183594 266.699219 67.890625 267.003906 67.835938 C 267.003906 67.835938 268.050781 67.636719 269.824219 67.519531 Z M 260.933594 78.761719 C 260.933594 78.761719 267.894531 81.425781 270.742188 89.726562 C 270.839844 90.019531 271.160156 90.175781 271.453125 90.078125 C 271.746094 89.976562 271.902344 89.65625 271.800781 89.363281 C 268.769531 80.527344 261.335938 77.714844 261.335938 77.714844 C 261.046875 77.605469 260.722656 77.75 260.609375 78.039062 C 260.5 78.328125 260.648438 78.652344 260.933594 78.761719 Z M 281.164062 68.402344 C 281.304688 66.871094 281.722656 62.753906 282.371094 58.898438 C 283.105469 54.550781 283.753906 50.535156 283.261719 47.429688 C 282.65625 43.617188 278.433594 41.875 275.179688 43.578125 C 273.464844 44.476562 272.722656 45.976562 272.425781 47.925781 C 272.105469 50.039062 272.292969 52.652344 272.464844 55.644531 C 272.785156 61.179688 272.550781 65.867188 272.449219 67.4375 C 274.847656 67.445312 277.871094 67.664062 281.164062 68.402344 Z M 281.164062 68.402344 " fill-opacity="1" fill-rule="evenodd"/><g clip-path="url(#f3d1a87b4c)"><path fill="#8b3eea" d="M 119.058594 233.359375 C 121.253906 235.511719 124.132812 236.886719 127.160156 237.578125 C 130.183594 238.332031 133.386719 238.332031 136.589844 238.199219 C 139.761719 238.050781 142.921875 237.566406 145.886719 236.5625 C 148.855469 235.558594 151.644531 234.082031 154.019531 232.089844 C 155.214844 231.101562 156.308594 230.007812 157.28125 228.8125 C 158.226562 227.648438 159.125 226.246094 159.65625 225.019531 L 159.71875 224.871094 C 160.011719 224.136719 160.1875 223.53125 160.308594 223.101562 L 160.308594 223.085938 C 160.410156 222.660156 160.441406 222.421875 160.441406 222.421875 C 161.636719 216.152344 157.722656 209.507812 156.898438 208.167969 C 155.851562 206.4375 150.523438 201.082031 146.550781 200.859375 C 146.476562 200.859375 146.417969 200.847656 146.359375 200.832031 C 145.636719 200.699219 145.121094 200.035156 145.164062 199.296875 C 145.179688 199.089844 145.238281 198.898438 145.328125 198.71875 C 145.328125 198.707031 145.34375 198.707031 145.34375 198.691406 C 145.476562 197.863281 145.519531 197.039062 145.386719 196.257812 C 145.179688 195.015625 144.617188 193.953125 143.675781 193.214844 C 143.421875 193.023438 143.160156 192.875 142.863281 192.757812 C 142.109375 192.402344 141.238281 192.300781 140.324219 192.433594 C 140.101562 192.460938 139.894531 192.507812 139.675781 192.566406 C 138.625 192.832031 137.578125 193.332031 136.589844 193.953125 C 134.199219 195.460938 132.148438 197.613281 130.390625 199.945312 C 128.648438 202.304688 127.1875 204.917969 126.4375 207.632812 C 126.066406 208.992188 125.890625 210.378906 126.097656 211.632812 C 126.332031 212.859375 126.953125 213.878906 127.957031 214.554688 C 128.976562 215.25 130.183594 215.472656 131.425781 215.324219 C 132.664062 215.160156 133.917969 214.570312 135.085938 213.832031 C 135.496094 213.566406 135.882812 213.289062 136.265625 212.976562 C 136.871094 212.503906 137.753906 212.625 138.199219 213.257812 C 138.625 213.863281 138.480469 214.6875 137.890625 215.132812 C 137.445312 215.457031 136.972656 215.765625 136.488281 216.0625 C 135.070312 216.902344 133.492188 217.613281 131.734375 217.804688 C 131.5 217.832031 131.246094 217.816406 130.996094 217.816406 C 130.835938 220.089844 130.9375 222.40625 131.304688 224.710938 C 131.511719 226.007812 131.792969 227.292969 132.175781 228.5625 C 132.5625 229.789062 133.003906 231.117188 133.683594 232.074219 L 133.785156 232.207031 C 134.097656 232.652344 133.976562 233.253906 133.550781 233.566406 C 133.136719 233.859375 132.5625 233.773438 132.25 233.402344 C 131.585938 232.621094 131.292969 231.988281 130.953125 231.324219 C 130.761719 230.921875 130.582031 230.523438 130.421875 230.128906 C 129.816406 230.230469 129.269531 230.273438 128.710938 230.289062 C 128 230.289062 127.308594 230.257812 126.628906 230.171875 C 125.269531 229.992188 123.941406 229.640625 122.703125 229.125 C 122.246094 228.933594 122.039062 228.398438 122.214844 227.941406 C 122.394531 227.527344 122.835938 227.324219 123.261719 227.425781 L 123.277344 227.425781 C 124.429688 227.707031 125.609375 227.839844 126.761719 227.808594 C 127.335938 227.792969 127.910156 227.734375 128.472656 227.632812 C 128.796875 227.574219 129.167969 227.5 129.476562 227.410156 C 129.269531 226.6875 129.078125 225.980469 128.914062 225.257812 C 128.53125 223.542969 128.28125 221.789062 128.179688 220.03125 C 125.667969 218.953125 122.851562 218.867188 120.339844 219.648438 C 117.683594 220.5625 115.5 222.023438 115.472656 225.242188 C 115.410156 228.253906 116.917969 231.21875 119.058594 233.359375 Z M 123.839844 212.003906 C 123.765625 211.5 123.75 211 123.75 210.496094 C 121.59375 210.527344 119.425781 211.28125 118.097656 212.757812 C 117.375 213.613281 116.992188 214.617188 116.992188 215.648438 C 116.992188 216.371094 117.210938 217.082031 117.507812 217.804688 C 118.171875 217.449219 118.835938 217.140625 119.515625 216.902344 C 121.933594 216.121094 124.621094 216.03125 127.128906 216.800781 C 126.96875 216.710938 126.777344 216.621094 126.613281 216.503906 C 125.109375 215.488281 124.105469 213.730469 123.839844 212.003906 Z M 121.523438 206.171875 C 120.976562 206.570312 120.605469 207.117188 120.472656 207.753906 C 120.398438 208.0625 120.398438 208.417969 120.445312 208.769531 C 120.445312 208.757812 120.457031 208.757812 120.457031 208.757812 C 121.59375 208.402344 122.804688 208.253906 124 208.296875 C 124.089844 207.871094 124.191406 207.457031 124.3125 207.042969 C 124.457031 206.542969 124.652344 206.054688 124.84375 205.566406 C 123.601562 205.40625 122.394531 205.554688 121.523438 206.171875 Z M 113.582031 222.539062 C 113.800781 221.625 114.261719 220.667969 114.878906 219.929688 C 115.144531 219.605469 115.441406 219.308594 115.738281 219.027344 C 115.203125 218.023438 114.820312 216.886719 114.777344 215.648438 C 114.734375 214.023438 115.398438 212.371094 116.488281 211.191406 C 117.050781 210.585938 117.699219 210.085938 118.394531 209.671875 C 118.199219 208.902344 118.15625 208.09375 118.332031 207.28125 C 118.585938 206.113281 119.335938 205.066406 120.296875 204.402344 C 121.242188 203.738281 122.363281 203.445312 123.425781 203.382812 C 124.207031 203.339844 124.960938 203.445312 125.710938 203.589844 C 126.570312 201.863281 127.585938 200.253906 128.679688 198.691406 C 130.523438 196.179688 132.664062 193.804688 135.378906 192.035156 C 136.472656 191.339844 137.652344 190.722656 138.964844 190.351562 C 139.289062 190.25 139.617188 190.175781 139.953125 190.117188 C 140.589844 190 141.269531 189.96875 141.949219 190.042969 C 143.082031 190.175781 144.21875 190.589844 145.148438 191.265625 C 146.640625 192.332031 147.613281 194.085938 147.925781 195.828125 C 148.074219 196.59375 148.101562 197.363281 148.074219 198.117188 C 153.015625 199.222656 158.167969 204.550781 159.4375 206.644531 C 163.511719 212.800781 163.980469 217.714844 163.183594 223.441406 C 163.097656 224.046875 162.933594 224.636719 162.769531 225.125 C 162.652344 225.476562 162.535156 225.800781 162.433594 226.039062 C 162.417969 226.039062 162.417969 226.039062 162.417969 226.054688 C 162.417969 226.054688 162.417969 226.066406 162.402344 226.082031 C 162.285156 226.378906 162.183594 226.570312 162.183594 226.570312 L 162.167969 226.554688 C 159.15625 233.050781 153.28125 237.371094 146.875 239.5 C 143.570312 240.605469 140.132812 241.121094 136.722656 241.269531 C 133.328125 241.371094 129.84375 241.167969 126.464844 240.222656 C 123.101562 239.308594 119.839844 237.59375 117.402344 234.96875 C 114.9375 232.371094 113.433594 228.917969 113.300781 225.300781 C 113.285156 224.386719 113.34375 223.472656 113.582031 222.539062 " fill-opacity="1" fill-rule="nonzero"/></g><path fill="#ffffff" d="M 120.445312 208.769531 C 120.445312 208.757812 120.457031 208.757812 120.457031 208.757812 C 121.59375 208.402344 122.804688 208.253906 124 208.296875 C 124.089844 207.871094 124.191406 207.457031 124.3125 207.042969 C 124.457031 206.542969 124.652344 206.054688 124.84375 205.566406 C 123.601562 205.40625 122.394531 205.554688 121.523438 206.171875 C 120.976562 206.570312 120.605469 207.117188 120.472656 207.753906 C 120.398438 208.0625 120.398438 208.417969 120.445312 208.769531 " fill-opacity="1" fill-rule="nonzero"/><path fill="#ffffff" d="M 116.992188 215.648438 C 116.992188 216.371094 117.210938 217.082031 117.507812 217.804688 C 118.171875 217.449219 118.835938 217.140625 119.515625 216.902344 C 121.933594 216.121094 124.621094 216.03125 127.128906 216.800781 C 126.96875 216.710938 126.777344 216.621094 126.613281 216.503906 C 125.109375 215.488281 124.105469 213.730469 123.839844 212.003906 C 123.765625 211.5 123.75 211 123.75 210.496094 C 121.59375 210.527344 119.425781 211.28125 118.097656 212.757812 C 117.375 213.613281 116.992188 214.617188 116.992188 215.648438 " fill-opacity="1" fill-rule="nonzero"/><path fill="#ffffff" d="M 115.472656 225.242188 C 115.410156 228.253906 116.917969 231.21875 119.058594 233.359375 C 121.253906 235.511719 124.132812 236.886719 127.160156 237.578125 C 130.183594 238.332031 133.386719 238.332031 136.589844 238.199219 C 139.761719 238.050781 142.921875 237.566406 145.886719 236.5625 C 148.855469 235.558594 151.644531 234.082031 154.019531 232.089844 C 155.214844 231.101562 156.308594 230.007812 157.28125 228.8125 C 158.226562 227.648438 159.125 226.246094 159.65625 225.019531 L 159.71875 224.871094 C 160.011719 224.136719 160.1875 223.53125 160.308594 223.101562 L 160.308594 223.085938 C 160.410156 222.660156 160.441406 222.421875 160.441406 222.421875 C 161.636719 216.152344 157.722656 209.507812 156.898438 208.167969 C 155.851562 206.4375 150.523438 201.082031 146.550781 200.859375 C 146.476562 200.859375 146.417969 200.847656 146.359375 200.832031 C 145.636719 200.699219 145.121094 200.035156 145.164062 199.296875 C 145.179688 199.089844 145.238281 198.898438 145.328125 198.71875 C 145.328125 198.707031 145.34375 198.707031 145.34375 198.691406 C 145.476562 197.863281 145.519531 197.039062 145.386719 196.257812 C 145.179688 195.015625 144.617188 193.953125 143.675781 193.214844 C 143.421875 193.023438 143.160156 192.875 142.863281 192.757812 C 142.109375 192.402344 141.238281 192.300781 140.324219 192.433594 C 140.101562 192.460938 139.894531 192.507812 139.675781 192.566406 C 138.625 192.832031 137.578125 193.332031 136.589844 193.953125 C 134.199219 195.460938 132.148438 197.613281 130.390625 199.945312 C 128.648438 202.304688 127.1875 204.917969 126.4375 207.632812 C 126.066406 208.992188 125.890625 210.378906 126.097656 211.632812 C 126.332031 212.859375 126.953125 213.878906 127.957031 214.554688 C 128.976562 215.25 130.183594 215.472656 131.425781 215.324219 C 132.664062 215.160156 133.917969 214.570312 135.085938 213.832031 C 135.496094 213.566406 135.882812 213.289062 136.265625 212.976562 C 136.871094 212.503906 137.753906 212.625 138.199219 213.257812 C 138.625 213.863281 138.480469 214.6875 137.890625 215.132812 C 137.445312 215.457031 136.972656 215.765625 136.488281 216.0625 C 135.070312 216.902344 133.492188 217.613281 131.734375 217.804688 C 131.5 217.832031 131.246094 217.816406 130.996094 217.816406 C 130.835938 220.089844 130.9375 222.40625 131.304688 224.710938 C 131.511719 226.007812 131.792969 227.292969 132.175781 228.5625 C 132.5625 229.789062 133.003906 231.117188 133.683594 232.074219 L 133.785156 232.207031 C 134.097656 232.652344 133.976562 233.253906 133.550781 233.566406 C 133.136719 233.859375 132.5625 233.773438 132.25 233.402344 C 131.585938 232.621094 131.292969 231.988281 130.953125 231.324219 C 130.761719 230.921875 130.582031 230.523438 130.421875 230.128906 C 129.816406 230.230469 129.269531 230.273438 128.710938 230.289062 C 128 230.289062 127.308594 230.257812 126.628906 230.171875 C 125.269531 229.992188 123.941406 229.640625 122.703125 229.125 C 122.246094 228.933594 122.039062 228.398438 122.214844 227.941406 C 122.394531 227.527344 122.835938 227.324219 123.261719 227.425781 L 123.277344 227.425781 C 124.429688 227.707031 125.609375 227.839844 126.761719 227.808594 C 127.335938 227.792969 127.910156 227.734375 128.472656 227.632812 C 128.796875 227.574219 129.167969 227.5 129.476562 227.410156 C 129.269531 226.6875 129.078125 225.980469 128.914062 225.257812 C 128.53125 223.542969 128.28125 221.789062 128.179688 220.03125 C 125.667969 218.953125 122.851562 218.867188 120.339844 219.648438 C 117.683594 220.5625 115.5 222.023438 115.472656 225.242188 " fill-opacity="1" fill-rule="nonzero"/><path fill="#8b3eea" d="M 117.933594 195.253906 C 122.007812 199.117188 126.703125 203.03125 132.707031 207.515625 C 133.078125 207.796875 133.460938 208.019531 133.875 208.167969 C 134.496094 208.429688 135.144531 208.550781 135.792969 208.550781 C 136.488281 208.550781 137.179688 208.417969 137.828125 208.136719 L 137.84375 208.121094 C 138.140625 207.78125 138.417969 207.441406 138.699219 207.089844 C 139.601562 205.953125 140.382812 204.699219 140.972656 203.355469 C 140.960938 202.101562 140.484375 200.859375 139.601562 199.902344 C 139.410156 199.664062 139.171875 199.445312 138.90625 199.25 C 133.226562 195 128.828125 191.355469 125.050781 187.769531 C 123.941406 186.707031 123.394531 185.230469 123.558594 183.710938 C 123.734375 182.21875 124.5625 180.921875 125.84375 180.152344 C 129.152344 178.191406 132.589844 176.214844 136.148438 174.265625 C 136.785156 173.90625 140.140625 171.925781 142.558594 170.507812 C 144.066406 169.625 144.988281 168.015625 145.011719 166.269531 C 145.011719 166.234375 145.011719 166.195312 145.011719 166.15625 C 145.0625 162.417969 141.101562 159.980469 137.773438 161.691406 C 137.179688 161.996094 136.730469 162.226562 136.515625 162.339844 C 130.9375 165.277344 125.582031 168.289062 120.546875 171.285156 C 116.472656 173.734375 113.816406 177.835938 113.300781 182.574219 C 112.769531 187.328125 114.453125 191.945312 117.933594 195.253906 " fill-opacity="1" fill-rule="nonzero"/><path fill="#8b3eea" d="M 128.738281 211.546875 C 128.679688 211.945312 128.945312 212.3125 129.34375 212.371094 C 131.335938 212.667969 133.253906 211.839844 134.773438 210.835938 C 135.925781 210.070312 136.945312 209.140625 137.828125 208.136719 L 137.84375 208.121094 C 138.140625 207.78125 138.417969 207.441406 138.699219 207.089844 C 139.601562 205.953125 140.382812 204.699219 140.972656 203.355469 C 141.121094 203.03125 141.269531 202.707031 141.386719 202.367188 C 141.992188 200.652344 142.347656 198.707031 141.816406 196.832031 C 141.742188 196.566406 141.519531 196.375 141.238281 196.328125 C 140.871094 196.269531 140.515625 196.535156 140.457031 196.921875 L 140.457031 196.980469 C 140.308594 197.984375 140.015625 198.957031 139.601562 199.902344 C 139.410156 200.375 139.1875 200.847656 138.9375 201.316406 C 138.226562 202.691406 137.34375 204.019531 136.382812 205.289062 C 135.617188 206.320312 134.773438 207.296875 133.875 208.167969 C 133.667969 208.386719 133.445312 208.578125 133.226562 208.785156 C 132.058594 209.804688 130.804688 210.628906 129.359375 210.941406 L 129.300781 210.957031 C 129.003906 211.015625 128.78125 211.25 128.738281 211.546875 " fill-opacity="1" fill-rule="nonzero"/><path fill="#8b3eea" d="M 145.515625 214.253906 C 146.082031 214.820312 146.617188 215.292969 147.023438 215.835938 C 147.457031 216.355469 147.792969 216.910156 148.0625 217.523438 C 148.328125 218.128906 148.515625 218.789062 148.65625 219.488281 C 148.785156 220.183594 148.878906 220.949219 148.933594 221.667969 L 148.9375 221.75 C 148.964844 222.078125 149.25 222.324219 149.578125 222.300781 C 149.808594 222.285156 149.996094 222.140625 150.082031 221.941406 C 150.453125 221.085938 150.613281 220.238281 150.621094 219.332031 C 150.632812 218.433594 150.453125 217.507812 150.082031 216.644531 C 149.738281 215.769531 149.132812 214.984375 148.394531 214.40625 C 147.675781 213.796875 146.773438 213.492188 145.910156 213.347656 C 145.632812 213.300781 145.371094 213.488281 145.324219 213.765625 C 145.296875 213.933594 145.355469 214.09375 145.464844 214.207031 L 145.515625 214.253906 " fill-opacity="1" fill-rule="nonzero"/><path fill="#8b3eea" d="M 148.289062 208.488281 L 150.011719 210.019531 C 150.566406 210.496094 151.027344 211.027344 151.484375 211.546875 C 151.917969 212.089844 152.285156 212.675781 152.609375 213.304688 C 152.921875 213.917969 153.199219 214.636719 153.390625 215.289062 L 153.421875 215.398438 C 153.511719 215.710938 153.839844 215.894531 154.15625 215.800781 C 154.371094 215.738281 154.527344 215.5625 154.570312 215.355469 C 154.773438 214.394531 154.707031 213.507812 154.457031 212.617188 C 154.214844 211.734375 153.777344 210.898438 153.210938 210.175781 C 152.640625 209.464844 151.945312 208.847656 151.167969 208.410156 C 150.398438 207.953125 149.539062 207.695312 148.679688 207.578125 C 148.398438 207.539062 148.140625 207.738281 148.101562 208.015625 C 148.078125 208.191406 148.144531 208.359375 148.269531 208.46875 L 148.289062 208.488281 " fill-opacity="1" fill-rule="nonzero"/></svg>