<svg xmlns="http://www.w3.org/2000/svg" xmlns:xlink="http://www.w3.org/1999/xlink" width="500" zoomAndPan="magnify" viewBox="0 0 375 374.999991" height="500" preserveAspectRatio="xMidYMid meet" version="1.0"><defs><clipPath id="c8540638e8"><path d="M 88.148438 182.679688 L 285 182.679688 L 285 337.179688 L 88.148438 337.179688 Z M 88.148438 182.679688 " clip-rule="nonzero"/></clipPath><clipPath id="b033a21de6"><path d="M 121.222656 49.75 L 265.972656 49.75 L 265.972656 247 L 121.222656 247 Z M 121.222656 49.75 " clip-rule="nonzero"/></clipPath><clipPath id="0e51c92fc0"><path d="M 215.179688 194 L 261 194 L 261 237 L 215.179688 237 Z M 215.179688 194 " clip-rule="nonzero"/></clipPath><clipPath id="23085cb666"><path d="M 215.179688 194 L 262 194 L 262 237.695312 L 215.179688 237.695312 Z M 215.179688 194 " clip-rule="nonzero"/></clipPath><clipPath id="2bfa4608b7"><path d="M 86 130 L 151.976562 130 L 151.976562 175 L 86 175 Z M 86 130 " clip-rule="nonzero"/></clipPath><clipPath id="b44a400051"><path d="M 59.796875 98 L 112 98 L 112 139 L 59.796875 139 Z M 59.796875 98 " clip-rule="nonzero"/></clipPath><clipPath id="1d02ce6c10"><path d="M 44.082031 89 L 48 89 L 48 94 L 44.082031 94 Z M 44.082031 89 " clip-rule="nonzero"/></clipPath><clipPath id="6392041924"><path d="M 128 79 L 132.582031 79 L 132.582031 84 L 128 84 Z M 128 79 " clip-rule="nonzero"/></clipPath><clipPath id="57e1870cb3"><path d="M 71 37.5 L 76 37.5 L 76 42 L 71 42 Z M 71 37.5 " clip-rule="nonzero"/></clipPath><clipPath id="0b7c036f48"><path d="M 98 119 L 103 119 L 103 123.75 L 98 123.75 Z M 98 119 " clip-rule="nonzero"/></clipPath></defs><path fill="#ffffff" d="M 209.464844 295.34375 C 209.464844 295.34375 206.230469 291.78125 208.8125 287.460938 C 211.101562 283.636719 215.390625 283.054688 220.773438 282.488281 C 225.945312 281.945312 231.71875 282.167969 234.742188 285.09375 C 237.769531 288.023438 237.128906 292.105469 235.128906 293.929688 C 235.128906 293.929688 238.949219 299.160156 241.960938 300.710938 C 241.960938 300.710938 251.9375 294.675781 263.640625 298.492188 C 275.339844 302.308594 282.539062 312.914062 283.617188 321.1875 C 284.695312 329.457031 281.742188 331.640625 280.375 332.46875 C 279.003906 333.292969 264.210938 336.691406 242.78125 336.738281 C 221.355469 336.789062 206.386719 334.085938 205.488281 332.933594 C 204.585938 331.78125 202.847656 311.640625 209.464844 295.34375 Z M 157.785156 282.332031 C 152.152344 280.730469 145.585938 280.578125 143.140625 283.878906 C 140.742188 287.117188 141.789062 290.167969 142.84375 291.503906 C 142.84375 291.503906 139.425781 295.5625 134.578125 296.769531 C 134.578125 296.769531 128.359375 290.167969 115.476562 289.980469 C 102.59375 289.789062 93.757812 298.738281 90.988281 306.632812 C 88.222656 314.507812 89.132812 317.785156 90.382812 318.96875 C 91.449219 319.988281 101.273438 327.71875 122.8125 331.984375 C 144.351562 336.253906 164.328125 336.378906 165.355469 335.40625 C 166.378906 334.433594 167.691406 326.726562 168.582031 319.582031 C 169.476562 312.441406 169.210938 302.328125 167.929688 298.289062 C 167.929688 298.289062 171.078125 296.367188 171.027344 292.339844 C 170.96875 287.691406 166.261719 284.746094 157.785156 282.332031 Z M 157.785156 282.332031 " fill-opacity="1" fill-rule="evenodd"/><g clip-path="url(#c8540638e8)"><path fill="#8b3eea" d="M 215.195312 282.582031 C 214.570312 282.722656 213.972656 282.886719 213.402344 283.082031 C 211.207031 283.832031 209.441406 285.03125 208.203125 287.097656 C 205.855469 291.023438 207.863281 294.386719 208.65625 295.460938 C 203.773438 307.765625 203.53125 322.125 204.097656 329.007812 C 204.097656 329.019531 204.097656 329.03125 204.101562 329.046875 C 204.136719 329.46875 204.171875 329.859375 204.214844 330.222656 C 204.339844 331.375 204.492188 332.230469 204.636719 332.722656 C 204.730469 333.046875 204.839844 333.257812 204.925781 333.371094 C 205.023438 333.496094 205.199219 333.644531 205.472656 333.789062 C 205.863281 333.988281 206.535156 334.222656 207.476562 334.464844 C 212.480469 335.75 225.554688 337.492188 242.785156 337.449219 C 257.851562 337.414062 269.648438 335.730469 275.84375 334.441406 C 278.621094 333.863281 280.308594 333.335938 280.742188 333.074219 C 282.199219 332.195312 285.472656 329.90625 284.324219 321.09375 C 283.214844 312.617188 275.851562 301.726562 263.859375 297.816406 C 253.171875 294.332031 243.882812 298.855469 241.960938 299.898438 C 239.664062 298.539062 237.003906 295.222656 236.058594 293.988281 C 237.929688 291.777344 238.378906 287.625 235.238281 284.585938 C 233.941406 283.328125 232.175781 282.523438 230.167969 282.0625 C 229.679688 281.953125 229.175781 281.859375 228.664062 281.785156 L 228.898438 285.601562 C 225.871094 238.214844 227.375 189.648438 227.375 189.648438 C 227.445312 185.925781 224.480469 182.847656 220.757812 182.777344 C 217.035156 182.707031 213.953125 185.671875 213.882812 189.394531 C 213.882812 189.394531 212.453125 235.925781 215.195312 282.582031 Z M 151.09375 280.53125 C 149.867188 280.492188 148.6875 280.558594 147.609375 280.746094 C 145.433594 281.125 143.648438 282 142.570312 283.453125 C 140.164062 286.703125 140.90625 289.777344 141.9375 291.445312 C 141 292.429688 138.320312 294.972656 134.785156 295.980469 C 133.367188 294.65625 127.039062 289.441406 115.488281 289.269531 C 102.246094 289.074219 93.167969 298.28125 90.316406 306.398438 C 89.355469 309.140625 88.828125 311.347656 88.605469 313.113281 C 88.597656 313.152344 88.59375 313.1875 88.589844 313.230469 C 88.429688 314.550781 88.4375 315.617188 88.554688 316.480469 C 88.761719 318 89.308594 318.929688 89.890625 319.484375 C 90.972656 320.511719 100.890625 328.367188 122.675781 332.683594 C 139.980469 336.113281 156.285156 336.871094 162.640625 336.542969 C 163.816406 336.480469 164.664062 336.378906 165.144531 336.257812 C 165.503906 336.164062 165.730469 336.03125 165.84375 335.921875 C 166.195312 335.589844 166.632812 334.585938 167.023438 333.089844 C 167.089844 332.824219 167.160156 332.542969 167.230469 332.246094 C 167.234375 332.234375 167.234375 332.222656 167.238281 332.210938 C 167.972656 329.066406 168.71875 324.253906 169.289062 319.671875 C 170.160156 312.703125 169.925781 302.953125 168.75 298.570312 C 169.691406 297.824219 171.78125 295.777344 171.738281 292.332031 C 171.707031 289.789062 170.433594 287.695312 167.976562 285.921875 C 167.042969 285.246094 165.929688 284.617188 164.644531 284.027344 C 175.941406 237.449219 175.574219 189.589844 175.574219 189.589844 C 175.609375 185.867188 172.617188 182.8125 168.894531 182.777344 C 165.171875 182.738281 162.117188 185.730469 162.082031 189.457031 C 162.082031 189.457031 162.453125 235.628906 151.09375 280.53125 Z M 228.757812 283.382812 C 228.789062 283.84375 228.816406 284.304688 228.84375 284.769531 C 228.855469 284.953125 228.867188 285.140625 228.878906 285.324219 C 228.890625 285.46875 228.898438 285.609375 228.90625 285.753906 C 228.914062 285.90625 228.914062 286.054688 228.910156 286.207031 C 228.894531 286.5625 228.847656 286.917969 228.753906 287.257812 C 228.652344 287.628906 228.492188 287.984375 228.269531 288.300781 C 228.191406 288.414062 228.097656 288.527344 228.003906 288.632812 C 227.9375 288.703125 227.867188 288.773438 227.796875 288.835938 C 227.339844 289.253906 226.78125 289.542969 226.203125 289.75 C 226.109375 289.785156 226.015625 289.816406 225.921875 289.84375 C 225.792969 289.886719 225.664062 289.921875 225.539062 289.957031 C 225.375 290 225.210938 290.035156 225.042969 290.070312 C 224.816406 290.121094 224.585938 290.160156 224.351562 290.195312 C 223.761719 290.289062 223.164062 290.34375 222.566406 290.382812 C 222.152344 290.410156 221.738281 290.429688 221.324219 290.4375 C 221.027344 290.441406 220.726562 290.441406 220.429688 290.429688 C 220.207031 290.421875 219.988281 290.410156 219.765625 290.390625 C 219.605469 290.378906 219.441406 290.359375 219.28125 290.335938 C 219.15625 290.320312 219.03125 290.300781 218.90625 290.277344 C 218.8125 290.257812 218.71875 290.242188 218.628906 290.21875 C 218.027344 290.085938 217.441406 289.867188 216.933594 289.511719 C 216.855469 289.453125 216.777344 289.394531 216.703125 289.332031 C 216.597656 289.242188 216.496094 289.148438 216.402344 289.046875 C 216.140625 288.761719 215.933594 288.425781 215.785156 288.070312 C 215.644531 287.742188 215.554688 287.394531 215.496094 287.042969 C 215.472656 286.902344 215.457031 286.757812 215.445312 286.613281 C 215.433594 286.46875 215.425781 286.328125 215.414062 286.183594 C 215.402344 285.996094 215.390625 285.808594 215.378906 285.621094 C 215.351562 285.152344 215.320312 284.683594 215.292969 284.214844 L 215.28125 284.019531 C 214.789062 284.136719 214.316406 284.269531 213.863281 284.425781 C 211.996094 285.0625 210.476562 286.066406 209.421875 287.828125 C 207.253906 291.449219 209.660156 294.476562 209.960938 294.832031 C 210.214844 295.03125 211.988281 296.328125 215.457031 296.753906 C 215.847656 296.800781 216.125 297.15625 216.074219 297.546875 C 216.027344 297.933594 215.675781 298.210938 215.285156 298.164062 C 212.550781 297.828125 210.746094 296.992188 209.800781 296.429688 C 205.285156 308.125 204.972656 321.589844 205.476562 328.414062 C 207.90625 329.054688 219.691406 331.890625 239.019531 332.234375 C 239.414062 332.242188 239.726562 332.566406 239.71875 332.957031 C 239.710938 333.351562 239.386719 333.660156 238.996094 333.65625 C 220.59375 333.324219 208.953125 330.757812 205.609375 329.914062 C 205.613281 329.96875 205.621094 330.019531 205.625 330.066406 C 205.75 331.203125 206 332.25 206.058594 332.484375 C 206.160156 332.535156 206.40625 332.65625 206.640625 332.738281 C 207.371094 332.992188 208.511719 333.28125 210.027344 333.578125 C 216.0625 334.757812 227.84375 336.066406 242.78125 336.03125 C 257.714844 335.996094 269.414062 334.328125 275.554688 333.050781 C 278.070312 332.527344 279.617188 332.09375 280.007812 331.859375 C 280.675781 331.457031 281.714844 330.695312 282.410156 328.960938 C 277.574219 330.921875 266.464844 333.234375 247.824219 333.636719 C 247.433594 333.644531 247.105469 333.332031 247.097656 332.941406 C 247.089844 332.550781 247.402344 332.226562 247.792969 332.214844 C 267.621094 331.789062 278.785156 329.222656 282.84375 327.214844 C 282.867188 327.203125 282.890625 327.191406 282.914062 327.183594 C 283.183594 325.714844 283.242188 323.796875 282.914062 321.277344 C 281.863281 313.214844 274.828125 302.886719 263.417969 299.167969 C 252.035156 295.457031 242.328125 301.320312 242.328125 301.320312 L 242.324219 301.324219 C 242.324219 301.324219 237.996094 303.882812 233.945312 309.484375 C 233.714844 309.800781 233.269531 309.875 232.953125 309.644531 C 232.636719 309.414062 232.5625 308.972656 232.792969 308.652344 C 235.859375 304.410156 239.089844 301.835938 240.648438 300.730469 C 238.382812 299.132812 235.945312 296.148438 234.980469 294.910156 C 233.988281 295.582031 231.832031 296.859375 229.140625 297.355469 C 228.753906 297.425781 228.386719 297.171875 228.3125 296.785156 C 228.242188 296.402344 228.496094 296.03125 228.882812 295.960938 C 232.085938 295.371094 234.453125 293.554688 234.667969 293.390625 C 236.421875 291.769531 236.914062 288.183594 234.25 285.605469 C 233.128906 284.519531 231.589844 283.847656 229.851562 283.449219 C 229.492188 283.367188 229.125 283.296875 228.75 283.234375 Z M 150.734375 281.941406 C 149.722656 281.925781 148.75 281.988281 147.851562 282.148438 C 146.078125 282.457031 144.589844 283.113281 143.710938 284.300781 C 141.582031 287.175781 142.464844 289.875 143.398438 291.0625 L 143.414062 291.082031 L 143.417969 291.082031 C 143.417969 291.082031 144.570312 292.632812 147.210938 293.9375 C 147.5625 294.109375 147.707031 294.535156 147.535156 294.886719 C 147.359375 295.238281 146.933594 295.382812 146.582031 295.210938 C 144.6875 294.277344 143.472656 293.21875 142.828125 292.558594 C 141.765625 293.648438 139.246094 295.933594 135.949219 297.097656 C 137.359375 298.523438 140.15625 301.6875 142.632812 306.496094 C 142.8125 306.847656 142.675781 307.273438 142.328125 307.453125 C 141.976562 307.632812 141.550781 307.496094 141.371094 307.148438 C 138.078125 300.75 134.199219 297.382812 134.117188 297.308594 L 134.09375 297.285156 C 134.082031 297.277344 134.070312 297.265625 134.058594 297.253906 C 133.917969 297.109375 127.851562 290.871094 115.46875 290.6875 C 102.945312 290.503906 94.351562 299.195312 91.65625 306.867188 C 90.785156 309.359375 90.28125 311.375 90.050781 313 C 91.273438 314.152344 97.351562 319.433594 110.539062 323.890625 C 110.910156 324.015625 111.113281 324.417969 110.984375 324.792969 C 110.859375 325.164062 110.457031 325.363281 110.085938 325.234375 C 98.480469 321.316406 92.242188 316.75 89.890625 314.761719 C 89.886719 314.945312 89.886719 315.125 89.890625 315.296875 C 89.921875 316.972656 90.335938 317.945312 90.871094 318.457031 C 91.925781 319.460938 101.652344 327.070312 122.949219 331.289062 C 140.105469 334.6875 156.265625 335.453125 162.566406 335.125 C 163.707031 335.066406 164.71875 334.878906 164.910156 334.839844 C 164.96875 334.761719 165.019531 334.640625 165.082031 334.492188 C 165.261719 334.089844 165.441406 333.519531 165.625 332.820312 C 161.261719 332.980469 142.546875 333.292969 120.203125 328.09375 C 119.820312 328.007812 119.582031 327.625 119.671875 327.242188 C 119.761719 326.859375 120.140625 326.625 120.523438 326.710938 C 143.496094 332.058594 162.59375 331.53125 165.96875 331.386719 C 166.65625 328.289062 167.34375 323.789062 167.878906 319.496094 C 168.707031 312.863281 168.539062 303.628906 167.460938 299.253906 C 166.46875 299.582031 164.558594 299.964844 161.523438 299.621094 C 161.132812 299.578125 160.851562 299.226562 160.894531 298.835938 C 160.941406 298.449219 161.292969 298.167969 161.683594 298.210938 C 165.789062 298.675781 167.53125 297.699219 167.558594 297.683594 C 167.617188 297.644531 170.363281 295.914062 170.316406 292.351562 C 170.289062 290.246094 169.179688 288.542969 167.148438 287.074219 C 166.335938 286.488281 165.386719 285.945312 164.300781 285.429688 L 164.296875 285.441406 C 164.109375 286.191406 163.921875 286.941406 163.730469 287.691406 C 163.667969 287.925781 163.609375 288.160156 163.550781 288.394531 C 163.53125 288.472656 163.511719 288.546875 163.488281 288.625 C 163.464844 288.707031 163.4375 288.789062 163.40625 288.871094 C 163.324219 289.089844 163.21875 289.300781 163.082031 289.492188 C 162.945312 289.683594 162.78125 289.859375 162.59375 290.007812 C 162.539062 290.054688 162.480469 290.097656 162.417969 290.136719 C 162.003906 290.414062 161.523438 290.574219 161.039062 290.664062 C 160.957031 290.679688 160.875 290.695312 160.792969 290.707031 C 160.683594 290.722656 160.578125 290.734375 160.46875 290.742188 C 160.328125 290.753906 160.183594 290.761719 160.042969 290.769531 C 159.855469 290.773438 159.671875 290.773438 159.488281 290.769531 C 159.257812 290.761719 159.027344 290.746094 158.792969 290.726562 C 158.140625 290.671875 157.492188 290.570312 156.851562 290.445312 C 156.683594 290.410156 156.515625 290.375 156.347656 290.339844 C 156.222656 290.3125 156.097656 290.285156 155.972656 290.257812 C 155.816406 290.222656 155.664062 290.179688 155.507812 290.140625 C 154.769531 289.9375 154.042969 289.675781 153.347656 289.351562 C 152.78125 289.085938 152.230469 288.777344 151.722656 288.410156 C 151.496094 288.25 151.277344 288.074219 151.070312 287.886719 C 150.890625 287.722656 150.722656 287.550781 150.566406 287.363281 C 150.335938 287.089844 150.136719 286.785156 150 286.449219 C 149.929688 286.273438 149.875 286.089844 149.847656 285.898438 C 149.820312 285.699219 149.820312 285.492188 149.851562 285.292969 C 149.863281 285.242188 149.871094 285.191406 149.882812 285.140625 C 149.898438 285.078125 149.917969 285.015625 149.933594 284.957031 C 149.945312 284.910156 149.957031 284.867188 149.96875 284.820312 C 150.019531 284.640625 150.070312 284.457031 150.117188 284.277344 C 150.324219 283.507812 150.527344 282.738281 150.726562 281.96875 Z M 150.734375 281.941406 " fill-opacity="1" fill-rule="evenodd"/></g><g clip-path="url(#b033a21de6)"><path fill="#8b3eea" d="M 192.507812 49.796875 C 196.507812 49.769531 200.667969 49.921875 204.632812 50.488281 C 213.207031 51.710938 221.21875 54.757812 228.773438 58.921875 C 236.339844 63.089844 242.84375 68.695312 248.421875 75.269531 C 255.117188 83.164062 260.257812 92.195312 263.117188 102.171875 C 265 108.734375 266.007812 115.648438 266.070312 122.476562 C 266.085938 123.808594 266.148438 125.183594 266.035156 126.511719 C 265.832031 128.957031 265.304688 131.3125 264.773438 133.703125 C 263.125 141.09375 260.601562 148.167969 257.652344 155.128906 C 254.59375 162.359375 251.109375 169.34375 247.265625 176.1875 C 243.566406 182.773438 239.589844 189.160156 235.476562 195.492188 C 233.578125 198.414062 231.710938 201.351562 229.734375 204.21875 C 227.101562 208.03125 224.359375 211.746094 221.632812 215.488281 C 219.09375 218.964844 216.59375 222.46875 213.972656 225.882812 C 211.8125 228.695312 209.511719 231.414062 207.316406 234.199219 C 205.351562 236.695312 203.355469 239.175781 201.335938 241.625 C 200.222656 242.972656 199.074219 244.566406 197.714844 245.679688 C 197.007812 246.253906 196.320312 246.617188 195.4375 246.863281 L 193.992188 247.042969 C 192.753906 247.078125 191.386719 246.644531 190.472656 245.796875 C 188.730469 244.1875 187.1875 242.140625 185.664062 240.3125 C 182.050781 235.972656 178.597656 231.511719 175.15625 227.03125 C 168.636719 218.542969 162.234375 209.96875 156.25 201.089844 C 154.082031 197.867188 152.046875 194.566406 149.953125 191.292969 C 139.71875 175.296875 130.296875 158.226562 124.921875 139.929688 C 123.464844 134.96875 122.085938 129.878906 121.933594 124.6875 C 121.359375 105.296875 128.964844 86.203125 142.277344 72.160156 C 144.097656 70.242188 146.050781 68.515625 148.070312 66.8125 C 157.738281 58.652344 169.101562 53.085938 181.585938 50.824219 C 185.21875 50.167969 188.820312 49.898438 192.507812 49.796875 Z M 193.039062 87.667969 C 191.65625 87.71875 190.277344 87.753906 188.90625 87.964844 C 181.714844 89.066406 174.429688 92.769531 169.476562 98.105469 C 163.027344 105.054688 159.84375 113.824219 160.179688 123.269531 C 160.484375 131.816406 164.257812 140.226562 170.554688 146.015625 C 177.199219 152.125 185.855469 155.683594 194.957031 155.300781 C 196.726562 155.226562 198.453125 155.128906 200.203125 154.8125 C 207.589844 153.480469 214.226562 149.722656 219.300781 144.199219 C 225.542969 137.410156 228.300781 128.617188 227.898438 119.496094 C 227.519531 110.886719 223.640625 102.363281 217.238281 96.578125 C 212.652344 92.429688 206.800781 89.347656 200.707031 88.195312 C 198.203125 87.722656 195.585938 87.597656 193.039062 87.667969 Z M 193.039062 87.667969 " fill-opacity="1" fill-rule="nonzero"/></g><path fill="#8b3eea" d="M 254.457031 210 L 249.789062 200.898438 L 252.121094 205.449219 L 249.761719 200.910156 C 250.3125 200.621094 263.179688 193.648438 260.769531 178.71875 C 257.988281 161.492188 245.636719 146.960938 245.511719 146.816406 C 244.550781 142.640625 249.207031 138.710938 253.253906 140.128906 C 253.839844 140.808594 267.617188 156.933594 270.871094 177.089844 C 273.761719 194.984375 261.398438 206.445312 254.457031 210 Z M 254.457031 210 " fill-opacity="1" fill-rule="nonzero"/><g clip-path="url(#0e51c92fc0)"><path fill="#ffffff" d="M 251.152344 195.199219 C 246.511719 193.417969 243.417969 198.949219 243.417969 198.949219 C 239.367188 195.734375 232.691406 195.214844 228.179688 197.039062 C 222.109375 199.488281 223.566406 208.449219 223.566406 208.449219 C 223.566406 208.449219 216.488281 210.09375 216.035156 214.753906 C 215.472656 220.546875 220.910156 222.335938 220.910156 222.335938 C 218.804688 228.855469 225.429688 230.8125 226.375 230.796875 C 226.375 230.796875 227 235.097656 231.375 236.53125 C 233.816406 237.328125 236.324219 236.828125 238.699219 235.960938 C 243.320312 234.277344 247.617188 231.199219 250.894531 227.546875 C 255.273438 222.667969 255.371094 217.773438 256.015625 214.707031 C 257.613281 214.550781 259.726562 213.84375 260.472656 212.203125 C 261.902344 209.046875 259.453125 198.382812 251.152344 195.199219 Z M 251.152344 195.199219 " fill-opacity="1" fill-rule="nonzero"/></g><g clip-path="url(#23085cb666)"><path fill="#8b3eea" d="M 233.964844 237.292969 C 233.042969 237.300781 232.140625 237.160156 231.257812 236.875 C 227.339844 235.59375 226.292969 232.160156 226.066406 231.136719 C 225.011719 230.980469 222.632812 230.082031 221.265625 228.230469 C 220.097656 226.660156 219.828125 224.753906 220.460938 222.550781 C 219.246094 222.027344 215.171875 219.871094 215.671875 214.714844 C 216.09375 210.382812 221.726562 208.570312 223.160156 208.175781 C 222.972656 206.5 222.453125 198.957031 228.042969 196.699219 C 232.871094 194.75 239.351562 195.496094 243.324219 198.414062 C 244.136719 197.183594 247.121094 193.257812 251.285156 194.855469 C 256.386719 196.8125 258.867188 201.296875 259.890625 203.792969 C 261.230469 207.0625 261.605469 210.582031 260.800781 212.355469 C 260.054688 214.003906 258.046875 214.8125 256.320312 215.039062 C 256.234375 215.46875 256.160156 215.929688 256.078125 216.417969 C 255.578125 219.464844 254.894531 223.636719 251.164062 227.792969 C 247.710938 231.640625 243.328125 234.664062 238.824219 236.304688 C 237.539062 236.773438 235.820312 237.292969 233.964844 237.292969 Z M 226.371094 230.429688 C 226.582031 230.429688 226.703125 230.535156 226.734375 230.742188 C 226.757812 230.910156 227.390625 234.839844 231.488281 236.183594 C 233.476562 236.832031 235.726562 236.652344 238.574219 235.617188 C 242.964844 234.019531 247.246094 231.066406 250.621094 227.304688 C 254.210938 223.308594 254.875 219.257812 255.359375 216.300781 C 255.457031 215.699219 255.550781 215.140625 255.65625 214.632812 C 255.691406 214.457031 255.800781 214.359375 255.976562 214.34375 C 257.558594 214.1875 259.476562 213.507812 260.136719 212.054688 C 260.75 210.699219 260.632812 207.523438 259.214844 204.070312 C 258.234375 201.683594 255.867188 197.398438 251.023438 195.539062 C 246.734375 193.894531 243.859375 198.910156 243.738281 199.125 C 243.683594 199.226562 243.601562 199.285156 243.488281 199.308594 C 243.378906 199.328125 243.28125 199.304688 243.191406 199.234375 C 239.082031 195.972656 232.398438 195.726562 228.316406 197.378906 C 222.582031 199.691406 223.910156 208.304688 223.925781 208.390625 C 223.941406 208.484375 223.921875 208.574219 223.867188 208.652344 C 223.8125 208.734375 223.742188 208.785156 223.648438 208.804688 C 223.578125 208.820312 216.820312 210.449219 216.398438 214.789062 C 215.871094 220.226562 220.972656 221.972656 221.023438 221.988281 C 221.117188 222.023438 221.1875 222.082031 221.234375 222.171875 C 221.28125 222.261719 221.285156 222.355469 221.253906 222.449219 C 220.578125 224.550781 220.777344 226.347656 221.851562 227.796875 C 223.3125 229.765625 225.890625 230.429688 226.359375 230.429688 C 226.363281 230.429688 226.367188 230.429688 226.371094 230.429688 Z M 226.371094 230.429688 " fill-opacity="1" fill-rule="nonzero"/></g><path fill="#8b3eea" d="M 249.921875 205.179688 C 249.773438 205.179688 249.667969 205.117188 249.597656 204.988281 C 247.132812 200.410156 243.359375 199.308594 243.320312 199.300781 C 243.226562 199.269531 243.15625 199.214844 243.109375 199.125 C 243.058594 199.039062 243.050781 198.949219 243.074219 198.851562 C 243.101562 198.757812 243.160156 198.683594 243.246094 198.632812 C 243.328125 198.585938 243.421875 198.570312 243.515625 198.597656 C 243.683594 198.640625 247.621094 199.777344 250.242188 204.640625 C 250.289062 204.730469 250.296875 204.824219 250.269531 204.917969 C 250.242188 205.015625 250.183594 205.089844 250.09375 205.136719 C 250.039062 205.164062 249.980469 205.179688 249.921875 205.179688 Z M 249.921875 205.179688 " fill-opacity="1" fill-rule="nonzero"/><path fill="#8b3eea" d="M 256.015625 215.070312 C 255.914062 215.070312 255.828125 215.035156 255.757812 214.964844 C 255.683594 214.894531 255.648438 214.808594 255.648438 214.707031 C 255.582031 213.691406 255.246094 212.769531 254.640625 211.949219 C 254.585938 211.867188 254.5625 211.777344 254.582031 211.679688 C 254.597656 211.582031 254.644531 211.503906 254.726562 211.445312 C 254.808594 211.386719 254.894531 211.367188 254.996094 211.378906 C 255.09375 211.394531 255.171875 211.441406 255.230469 211.519531 C 255.933594 212.46875 256.316406 213.53125 256.378906 214.707031 C 256.378906 214.808594 256.34375 214.894531 256.273438 214.964844 C 256.203125 215.035156 256.117188 215.070312 256.015625 215.070312 Z M 256.015625 215.070312 " fill-opacity="1" fill-rule="nonzero"/><path fill="#8b3eea" d="M 220.90625 222.703125 C 220.808594 222.699219 220.722656 222.664062 220.65625 222.59375 C 220.585938 222.519531 220.550781 222.4375 220.550781 222.335938 C 220.550781 222.238281 220.585938 222.152344 220.65625 222.082031 C 220.722656 222.011719 220.808594 221.972656 220.90625 221.972656 C 220.933594 221.972656 223.660156 221.933594 227.070312 219.625 C 227.152344 219.570312 227.246094 219.554688 227.34375 219.574219 C 227.441406 219.59375 227.515625 219.644531 227.570312 219.726562 C 227.628906 219.808594 227.648438 219.898438 227.628906 219.996094 C 227.609375 220.09375 227.5625 220.171875 227.480469 220.230469 C 223.867188 222.675781 221.027344 222.703125 220.90625 222.703125 Z M 220.90625 222.703125 " fill-opacity="1" fill-rule="nonzero"/><path fill="#8b3eea" d="M 226.371094 231.160156 C 226.273438 231.160156 226.1875 231.121094 226.121094 231.050781 C 226.050781 230.980469 226.015625 230.894531 226.015625 230.796875 C 226.015625 230.695312 226.050781 230.613281 226.121094 230.542969 C 226.1875 230.46875 226.273438 230.433594 226.371094 230.429688 C 226.398438 230.429688 229.125 230.394531 232.535156 228.085938 C 232.617188 228.023438 232.710938 228.003906 232.8125 228.023438 C 232.910156 228.042969 232.992188 228.09375 233.046875 228.179688 C 233.105469 228.261719 233.125 228.355469 233.101562 228.457031 C 233.082031 228.554688 233.03125 228.632812 232.945312 228.6875 C 229.332031 231.132812 226.492188 231.160156 226.371094 231.160156 Z M 226.371094 231.160156 " fill-opacity="1" fill-rule="nonzero"/><path fill="#8b3eea" d="M 223.5625 208.816406 C 223.46875 208.816406 223.386719 208.785156 223.316406 208.71875 C 223.246094 208.65625 223.207031 208.578125 223.199219 208.484375 C 223.1875 208.390625 223.214844 208.304688 223.269531 208.230469 C 223.328125 208.152344 223.402344 208.109375 223.496094 208.089844 C 224.773438 207.859375 226.023438 207.511719 227.238281 207.050781 C 227.332031 207.015625 227.425781 207.015625 227.519531 207.058594 C 227.609375 207.101562 227.671875 207.171875 227.707031 207.265625 C 227.742188 207.359375 227.738281 207.453125 227.699219 207.542969 C 227.65625 207.636719 227.585938 207.699219 227.492188 207.734375 C 226.238281 208.210938 224.953125 208.570312 223.632812 208.808594 C 223.609375 208.8125 223.585938 208.816406 223.5625 208.816406 Z M 223.5625 208.816406 " fill-opacity="1" fill-rule="nonzero"/><g clip-path="url(#2bfa4608b7)"><path fill="#8b3eea" d="M 94.246094 133.4375 C 94.246094 133.4375 96.488281 141.695312 101.042969 150.039062 C 103.925781 155.316406 107.710938 160.691406 112.566406 163.746094 C 120.074219 168.46875 134.023438 167.359375 146.234375 161.789062 C 148.113281 160.933594 150.339844 161.761719 151.195312 163.644531 C 152.054688 165.523438 151.226562 167.75 149.34375 168.609375 C 134.574219 175.34375 117.65625 175.800781 108.578125 170.089844 C 102.699219 166.390625 97.957031 160.019531 94.46875 153.628906 C 89.46875 144.46875 87.011719 135.398438 87.011719 135.398438 C 86.472656 133.402344 87.652344 131.34375 89.648438 130.800781 C 91.644531 130.261719 93.703125 131.441406 94.246094 133.4375 Z M 94.246094 133.4375 " fill-opacity="1" fill-rule="evenodd"/></g><path fill="#ffffff" d="M 97.164062 131.109375 C 97.164062 131.109375 98.699219 134.535156 95.199219 136.121094 C 91.703125 137.710938 87.675781 138.484375 85.902344 137.742188 C 84.128906 136.996094 83.09375 133.6875 83.09375 133.6875 C 83.09375 133.6875 78.777344 132.28125 75.339844 128.679688 C 71.898438 125.078125 70.152344 121.828125 67.148438 118.886719 C 64.144531 115.945312 60.511719 112.789062 60.347656 110.78125 C 60.183594 108.773438 61.953125 107.433594 63.351562 107.324219 C 63.351562 107.324219 61.472656 105.023438 63.324219 102.8125 C 65.175781 100.601562 67.648438 100.742188 68.804688 101.28125 C 68.804688 101.28125 69.207031 100.070312 70.636719 99.230469 C 72.191406 98.3125 74.359375 98.238281 76.710938 99.9375 C 79.0625 101.636719 82.351562 106.453125 86.246094 109.25 C 86.246094 109.25 90.085938 110.566406 92.414062 111.835938 C 94.742188 113.105469 95.253906 113.394531 96.8125 113.261719 C 98.367188 113.128906 100.210938 110.628906 103.183594 109.050781 C 105.976562 107.570312 109.253906 107.65625 110.484375 108.800781 C 112.433594 110.621094 111.746094 112.625 108.761719 115.355469 C 105.773438 118.089844 103.699219 119.796875 102.355469 123.296875 C 101.011719 126.796875 100.175781 128.714844 97.164062 131.109375 Z M 97.164062 131.109375 " fill-opacity="1" fill-rule="evenodd"/><g clip-path="url(#b44a400051)"><path fill="#8b3eea" d="M 97.660156 131.246094 C 97.851562 131.84375 98.167969 133.222656 97.542969 134.519531 C 97.1875 135.253906 96.535156 135.972656 95.375 136.5 C 93.234375 137.472656 90.898438 138.144531 88.980469 138.363281 C 87.644531 138.515625 86.5 138.441406 85.742188 138.125 C 84.957031 137.796875 84.292969 137.027344 83.792969 136.210938 C 83.253906 135.332031 82.902344 134.410156 82.765625 134.011719 C 81.867188 133.683594 78.109375 132.183594 75.039062 128.964844 C 71.601562 125.367188 69.859375 122.125 66.859375 119.183594 C 65.046875 117.410156 63.007812 115.558594 61.628906 113.921875 C 60.644531 112.753906 60 111.679688 59.929688 110.8125 C 59.769531 108.851562 61.246094 107.453125 62.667969 107.03125 C 62.179688 106.144531 61.519531 104.320312 63.003906 102.546875 C 64.832031 100.363281 67.21875 100.304688 68.589844 100.75 C 68.839844 100.28125 69.382812 99.484375 70.425781 98.871094 C 72.097656 97.886719 74.429688 97.777344 76.953125 99.601562 C 79.292969 101.292969 82.566406 106.074219 86.4375 108.875 C 86.933594 109.050781 90.429688 110.28125 92.613281 111.46875 C 94.820312 112.675781 95.296875 112.972656 96.773438 112.847656 C 97.335938 112.800781 97.925781 112.386719 98.613281 111.847656 C 99.785156 110.9375 101.179688 109.644531 102.988281 108.683594 C 104.742188 107.753906 106.679688 107.417969 108.222656 107.550781 C 109.316406 107.648438 110.222656 107.988281 110.765625 108.496094 C 111.425781 109.113281 111.808594 109.753906 111.945312 110.421875 C 112.101562 111.203125 111.921875 112.039062 111.394531 112.941406 C 110.910156 113.773438 110.125 114.671875 109.042969 115.664062 C 106.113281 118.34375 104.0625 120.011719 102.742188 123.445312 C 101.402344 126.9375 100.550781 128.882812 97.660156 131.246094 Z M 69.363281 101.070312 C 69.578125 100.691406 70.023438 100.074219 70.847656 99.585938 C 72.289062 98.738281 74.289062 98.703125 76.464844 100.277344 C 78.816406 101.976562 82.109375 106.792969 86 109.589844 C 86.035156 109.613281 86.070312 109.632812 86.109375 109.644531 C 86.109375 109.644531 89.910156 110.945312 92.214844 112.199219 C 94.664062 113.535156 95.207031 113.816406 96.847656 113.675781 C 97.53125 113.617188 98.28125 113.167969 99.125 112.503906 C 100.265625 111.617188 101.621094 110.355469 103.378906 109.421875 C 104.976562 108.570312 106.742188 108.257812 108.152344 108.382812 C 109.027344 108.457031 109.761719 108.695312 110.199219 109.105469 C 110.710938 109.582031 111.023438 110.066406 111.128906 110.585938 C 111.25 111.1875 111.082031 111.824219 110.675781 112.523438 C 110.226562 113.296875 109.484375 114.128906 108.480469 115.050781 C 105.4375 117.832031 103.335938 119.582031 101.964844 123.148438 C 100.65625 126.566406 99.847656 128.441406 96.914062 130.777344 C 96.773438 130.878906 94.476562 132.511719 91.792969 133.117188 C 91.566406 133.164062 91.425781 133.390625 91.476562 133.613281 C 91.527344 133.835938 91.75 133.976562 91.972656 133.929688 C 94.152344 133.4375 96.089844 132.308594 96.945312 131.757812 C 97.09375 132.3125 97.226562 133.257812 96.792969 134.15625 C 96.507812 134.75 95.964844 135.316406 95.027344 135.742188 C 92.972656 136.675781 90.730469 137.324219 88.886719 137.535156 C 87.722656 137.671875 86.722656 137.632812 86.0625 137.355469 C 85.425781 137.089844 84.910156 136.441406 84.503906 135.773438 C 84.195312 135.269531 83.953125 134.75 83.78125 134.339844 C 84.621094 134.558594 86.007812 134.808594 87.566406 134.628906 C 87.796875 134.605469 87.960938 134.398438 87.933594 134.167969 C 87.90625 133.941406 87.699219 133.777344 87.472656 133.804688 C 85.152344 134.070312 83.25 133.300781 83.25 133.300781 L 83.238281 133.296875 C 83.230469 133.292969 83.226562 133.292969 83.21875 133.289062 C 83.101562 133.253906 78.957031 131.863281 75.640625 128.390625 C 72.195312 124.785156 70.445312 121.535156 67.441406 118.589844 C 65.648438 116.835938 63.628906 115.003906 62.265625 113.386719 C 61.421875 112.386719 60.820312 111.488281 60.761719 110.746094 C 60.617188 109 62.164062 107.835938 63.382812 107.738281 C 63.386719 107.738281 63.394531 107.738281 63.398438 107.738281 L 63.410156 107.738281 C 63.414062 107.738281 63.414062 107.734375 63.417969 107.734375 C 63.429688 107.734375 65.355469 107.453125 67.511719 109.191406 C 69.605469 110.878906 72.746094 113.898438 74.992188 115.429688 C 74.382812 115.898438 73.78125 116.402344 73.199219 116.953125 C 73.03125 117.109375 73.027344 117.375 73.183594 117.539062 C 73.339844 117.707031 73.605469 117.714844 73.773438 117.558594 C 78.464844 113.113281 84.703125 111.511719 84.703125 111.511719 C 84.925781 111.457031 85.0625 111.230469 85.003906 111.007812 C 84.945312 110.785156 84.71875 110.648438 84.496094 110.707031 C 84.496094 110.707031 83.089844 111.066406 81.097656 111.917969 C 81.070312 111.871094 81.035156 111.828125 80.988281 111.792969 C 79.375 110.5625 76.980469 108.742188 74.039062 105.226562 C 71.753906 102.496094 70.105469 101.445312 69.363281 101.070312 Z M 94.332031 115.523438 C 94.332031 115.523438 90.175781 117.566406 89.210938 121.914062 C 89.160156 122.136719 88.9375 122.277344 88.714844 122.230469 C 88.488281 122.179688 88.347656 121.957031 88.398438 121.734375 C 89.449219 117.003906 93.964844 114.773438 93.964844 114.773438 C 94.171875 114.671875 94.421875 114.757812 94.523438 114.964844 C 94.625 115.171875 94.539062 115.421875 94.332031 115.523438 Z M 63.550781 106.890625 C 63.195312 106.359375 62.292969 104.695312 63.640625 103.082031 C 65.328125 101.070312 67.566406 101.164062 68.621094 101.65625 C 68.636719 101.664062 68.652344 101.667969 68.667969 101.675781 L 68.679688 101.679688 L 68.683594 101.679688 C 68.6875 101.679688 70.457031 102.238281 73.402344 105.761719 C 76.269531 109.191406 78.628906 111.039062 80.265625 112.289062 C 78.875 112.933594 77.28125 113.792969 75.707031 114.90625 C 73.46875 113.453125 70.191406 110.285156 68.03125 108.542969 C 66.046875 106.9375 64.214844 106.855469 63.550781 106.890625 Z M 63.550781 106.890625 " fill-opacity="1" fill-rule="evenodd"/></g><path fill="#ece8fc" d="M 126.449219 80.277344 C 126.449219 81.554688 126.382812 82.828125 126.257812 84.101562 C 126.132812 85.371094 125.941406 86.632812 125.691406 87.886719 C 125.441406 89.140625 125.128906 90.378906 124.753906 91.601562 C 124.382812 92.824219 123.949219 94.027344 123.457031 95.207031 C 122.964844 96.386719 122.414062 97.539062 121.804688 98.667969 C 121.199219 99.792969 120.539062 100.886719 119.824219 101.949219 C 119.109375 103.011719 118.34375 104.039062 117.527344 105.023438 C 116.710938 106.011719 115.84375 106.957031 114.933594 107.863281 C 114.023438 108.765625 113.074219 109.621094 112.078125 110.433594 C 111.082031 111.242188 110.050781 112.003906 108.980469 112.714844 C 107.910156 113.421875 106.804688 114.078125 105.671875 114.683594 C 104.535156 115.285156 103.375 115.828125 102.183594 116.320312 C 100.996094 116.808594 99.785156 117.238281 98.550781 117.609375 C 97.320312 117.980469 96.074219 118.289062 94.8125 118.539062 C 93.546875 118.789062 92.277344 118.976562 90.996094 119.101562 C 89.714844 119.226562 88.429688 119.289062 87.144531 119.289062 C 85.855469 119.289062 84.570312 119.226562 83.289062 119.101562 C 82.007812 118.976562 80.738281 118.789062 79.476562 118.539062 C 78.210938 118.289062 76.964844 117.980469 75.734375 117.609375 C 74.5 117.238281 73.289062 116.808594 72.101562 116.320312 C 70.914062 115.828125 69.75 115.285156 68.613281 114.683594 C 67.480469 114.078125 66.375 113.421875 65.304688 112.714844 C 64.234375 112.003906 63.203125 111.242188 62.207031 110.433594 C 61.214844 109.621094 60.261719 108.765625 59.351562 107.863281 C 58.441406 106.957031 57.578125 106.011719 56.761719 105.023438 C 55.941406 104.039062 55.175781 103.011719 54.460938 101.949219 C 53.746094 100.886719 53.085938 99.792969 52.480469 98.667969 C 51.871094 97.539062 51.324219 96.386719 50.832031 95.207031 C 50.335938 94.027344 49.90625 92.824219 49.53125 91.601562 C 49.15625 90.378906 48.84375 89.140625 48.59375 87.886719 C 48.34375 86.632812 48.152344 85.371094 48.027344 84.101562 C 47.902344 82.828125 47.839844 81.554688 47.839844 80.277344 C 47.839844 79 47.902344 77.726562 48.027344 76.453125 C 48.152344 75.183594 48.34375 73.917969 48.59375 72.667969 C 48.84375 71.414062 49.15625 70.175781 49.53125 68.953125 C 49.90625 67.730469 50.335938 66.527344 50.832031 65.347656 C 51.324219 64.167969 51.871094 63.015625 52.480469 61.886719 C 53.085938 60.761719 53.746094 59.667969 54.460938 58.605469 C 55.175781 57.542969 55.941406 56.515625 56.761719 55.527344 C 57.578125 54.542969 58.441406 53.597656 59.351562 52.691406 C 60.261719 51.789062 61.214844 50.933594 62.207031 50.121094 C 63.203125 49.3125 64.234375 48.550781 65.304688 47.839844 C 66.375 47.132812 67.480469 46.476562 68.613281 45.871094 C 69.75 45.269531 70.914062 44.726562 72.101562 44.234375 C 73.289062 43.746094 74.5 43.316406 75.734375 42.945312 C 76.964844 42.574219 78.210938 42.265625 79.476562 42.015625 C 80.738281 41.765625 82.007812 41.578125 83.289062 41.453125 C 84.570312 41.328125 85.855469 41.265625 87.144531 41.265625 C 88.429688 41.265625 89.714844 41.328125 90.996094 41.453125 C 92.277344 41.578125 93.546875 41.765625 94.8125 42.015625 C 96.074219 42.265625 97.320312 42.574219 98.550781 42.945312 C 99.785156 43.316406 100.996094 43.746094 102.183594 44.234375 C 103.375 44.726562 104.535156 45.269531 105.671875 45.871094 C 106.804688 46.476562 107.910156 47.132812 108.980469 47.839844 C 110.050781 48.550781 111.082031 49.3125 112.078125 50.121094 C 113.074219 50.933594 114.023438 51.789062 114.933594 52.691406 C 115.84375 53.597656 116.710938 54.542969 117.527344 55.527344 C 118.34375 56.515625 119.109375 57.542969 119.824219 58.605469 C 120.539062 59.667969 121.199219 60.761719 121.804688 61.886719 C 122.414062 63.015625 122.964844 64.167969 123.457031 65.347656 C 123.949219 66.527344 124.382812 67.730469 124.753906 68.953125 C 125.128906 70.175781 125.441406 71.414062 125.691406 72.667969 C 125.941406 73.917969 126.132812 75.183594 126.257812 76.453125 C 126.382812 77.726562 126.449219 79 126.449219 80.277344 Z M 126.449219 80.277344 " fill-opacity="1" fill-rule="nonzero"/><path fill="#ffffff" d="M 122.65625 87.769531 C 122.65625 88.386719 122.625 89 122.566406 89.613281 C 122.503906 90.230469 122.414062 90.839844 122.292969 91.441406 C 122.171875 92.046875 122.019531 92.644531 121.839844 93.234375 C 121.660156 93.824219 121.449219 94.40625 121.210938 94.976562 C 120.972656 95.542969 120.710938 96.101562 120.417969 96.644531 C 120.125 97.1875 119.804688 97.71875 119.460938 98.230469 C 119.113281 98.742188 118.746094 99.238281 118.351562 99.714844 C 117.957031 100.191406 117.539062 100.648438 117.101562 101.082031 C 116.660156 101.519531 116.199219 101.933594 115.722656 102.324219 C 115.242188 102.714844 114.742188 103.082031 114.226562 103.425781 C 113.710938 103.765625 113.175781 104.082031 112.628906 104.375 C 112.082031 104.664062 111.519531 104.929688 110.945312 105.164062 C 110.371094 105.398438 109.789062 105.605469 109.195312 105.785156 C 108.597656 105.964844 107.996094 106.113281 107.386719 106.234375 C 106.777344 106.355469 106.164062 106.445312 105.546875 106.507812 C 104.929688 106.566406 104.308594 106.597656 103.6875 106.597656 C 103.066406 106.597656 102.445312 106.566406 101.828125 106.507812 C 101.210938 106.445312 100.59375 106.355469 99.988281 106.234375 C 99.378906 106.113281 98.773438 105.964844 98.179688 105.785156 C 97.585938 105.605469 97 105.398438 96.429688 105.164062 C 95.855469 104.929688 95.292969 104.664062 94.746094 104.375 C 94.195312 104.082031 93.664062 103.765625 93.148438 103.425781 C 92.632812 103.082031 92.132812 102.714844 91.652344 102.324219 C 91.171875 101.933594 90.714844 101.519531 90.273438 101.082031 C 89.835938 100.648438 89.417969 100.191406 89.023438 99.714844 C 88.628906 99.238281 88.261719 98.742188 87.914062 98.230469 C 87.570312 97.71875 87.25 97.1875 86.957031 96.644531 C 86.664062 96.101562 86.398438 95.542969 86.160156 94.976562 C 85.925781 94.40625 85.714844 93.824219 85.535156 93.234375 C 85.355469 92.644531 85.203125 92.046875 85.082031 91.441406 C 84.960938 90.839844 84.871094 90.230469 84.808594 89.613281 C 84.75 89 84.71875 88.386719 84.71875 87.769531 C 84.71875 87.152344 84.75 86.539062 84.808594 85.925781 C 84.871094 85.3125 84.960938 84.703125 85.082031 84.097656 C 85.203125 83.492188 85.355469 82.894531 85.535156 82.304688 C 85.714844 81.714844 85.925781 81.132812 86.160156 80.566406 C 86.398438 79.996094 86.664062 79.4375 86.957031 78.894531 C 87.25 78.351562 87.570312 77.824219 87.914062 77.308594 C 88.261719 76.796875 88.628906 76.300781 89.023438 75.824219 C 89.417969 75.347656 89.835938 74.894531 90.273438 74.457031 C 90.714844 74.019531 91.171875 73.605469 91.652344 73.214844 C 92.132812 72.824219 92.632812 72.457031 93.148438 72.117188 C 93.664062 71.773438 94.195312 71.457031 94.746094 71.164062 C 95.292969 70.875 95.855469 70.613281 96.429688 70.375 C 97 70.140625 97.585938 69.933594 98.179688 69.753906 C 98.773438 69.574219 99.378906 69.425781 99.988281 69.304688 C 100.59375 69.183594 101.210938 69.09375 101.828125 69.03125 C 102.445312 68.972656 103.066406 68.941406 103.6875 68.941406 C 104.308594 68.941406 104.929688 68.972656 105.546875 69.03125 C 106.164062 69.09375 106.777344 69.183594 107.386719 69.304688 C 107.996094 69.425781 108.597656 69.574219 109.195312 69.753906 C 109.789062 69.933594 110.371094 70.140625 110.945312 70.375 C 111.519531 70.613281 112.082031 70.875 112.628906 71.164062 C 113.175781 71.457031 113.710938 71.773438 114.226562 72.117188 C 114.742188 72.457031 115.242188 72.824219 115.722656 73.214844 C 116.199219 73.605469 116.660156 74.019531 117.101562 74.457031 C 117.539062 74.894531 117.957031 75.347656 118.351562 75.824219 C 118.746094 76.300781 119.113281 76.796875 119.460938 77.308594 C 119.804688 77.824219 120.125 78.351562 120.417969 78.894531 C 120.710938 79.4375 120.972656 79.996094 121.210938 80.566406 C 121.449219 81.132812 121.660156 81.714844 121.839844 82.304688 C 122.019531 82.894531 122.171875 83.492188 122.292969 84.097656 C 122.414062 84.703125 122.503906 85.3125 122.566406 85.925781 C 122.625 86.539062 122.65625 87.152344 122.65625 87.769531 Z M 122.65625 87.769531 " fill-opacity="1" fill-rule="nonzero"/><g clip-path="url(#1d02ce6c10)"><path fill="#e1a623" d="M 47.953125 91.640625 C 47.953125 91.640625 45.832031 92.019531 45.980469 89.457031 C 45.980469 89.457031 45.980469 91.867188 44.082031 91.71875 C 44.082031 91.71875 45.90625 91.71875 46.054688 93.601562 C 46.054688 93.601562 46.207031 91.71875 47.953125 91.640625 Z M 47.953125 91.640625 " fill-opacity="1" fill-rule="nonzero"/></g><g clip-path="url(#6392041924)"><path fill="#e1a623" d="M 132.582031 81.824219 C 132.582031 81.824219 130.457031 82.203125 130.609375 79.640625 C 130.609375 79.640625 130.609375 82.050781 128.710938 81.902344 C 128.710938 81.902344 130.53125 81.902344 130.683594 83.785156 C 130.683594 83.785156 130.835938 81.902344 132.582031 81.824219 Z M 132.582031 81.824219 " fill-opacity="1" fill-rule="nonzero"/></g><path fill="#e1a623" d="M 52.449219 51.886719 C 52.449219 51.886719 50.324219 52.269531 50.476562 49.699219 C 50.476562 49.699219 50.476562 52.109375 48.578125 51.960938 C 48.578125 51.960938 50.402344 51.960938 50.550781 53.84375 C 50.550781 53.851562 50.703125 51.960938 52.449219 51.886719 Z M 52.449219 51.886719 " fill-opacity="1" fill-rule="nonzero"/><path fill="#ffffff" d="M 78.296875 50.785156 C 78.296875 50.785156 76.175781 51.164062 76.324219 48.601562 C 76.324219 48.601562 76.324219 51.011719 74.425781 50.863281 C 74.425781 50.863281 76.246094 50.863281 76.398438 52.746094 C 76.398438 52.746094 76.550781 50.867188 78.296875 50.785156 Z M 78.296875 50.785156 " fill-opacity="1" fill-rule="nonzero"/><path fill="#ffffff" d="M 55.496094 79.738281 C 55.496094 79.738281 53.371094 80.117188 53.523438 77.550781 C 53.523438 77.550781 53.523438 79.964844 51.625 79.8125 C 51.625 79.8125 53.449219 79.8125 53.597656 81.695312 C 53.597656 81.695312 53.75 79.8125 55.496094 79.738281 Z M 55.496094 79.738281 " fill-opacity="1" fill-rule="nonzero"/><path fill="#ffffff" d="M 97.867188 111.4375 C 97.867188 111.4375 95.742188 111.816406 95.894531 109.253906 C 95.894531 109.253906 95.894531 111.664062 93.996094 111.515625 C 93.996094 111.515625 95.816406 111.515625 95.96875 113.398438 C 95.96875 113.40625 96.121094 111.515625 97.867188 111.4375 Z M 97.867188 111.4375 " fill-opacity="1" fill-rule="nonzero"/><g clip-path="url(#57e1870cb3)"><path fill="#e1a623" d="M 75.714844 39.699219 C 75.714844 39.699219 73.589844 40.078125 73.738281 37.515625 C 73.738281 37.515625 73.738281 39.925781 71.839844 39.773438 C 71.839844 39.773438 73.664062 39.773438 73.816406 41.660156 C 73.816406 41.660156 73.96875 39.773438 75.714844 39.699219 Z M 75.714844 39.699219 " fill-opacity="1" fill-rule="nonzero"/></g><path fill="#e1a623" d="M 130.601562 61.421875 C 130.601562 61.421875 128.480469 61.800781 128.628906 59.234375 C 128.628906 59.234375 128.628906 61.648438 126.730469 61.496094 C 126.730469 61.496094 128.554688 61.496094 128.707031 63.382812 C 128.707031 63.382812 128.867188 61.496094 130.601562 61.421875 Z M 130.601562 61.421875 " fill-opacity="1" fill-rule="nonzero"/><path fill="#e1a623" d="M 64.457031 118.433594 C 64.457031 118.433594 62.335938 118.8125 62.484375 116.25 C 62.484375 116.25 62.484375 118.660156 60.585938 118.511719 C 60.585938 118.511719 62.410156 118.511719 62.558594 120.394531 C 62.558594 120.394531 62.710938 118.511719 64.457031 118.433594 Z M 64.457031 118.433594 " fill-opacity="1" fill-rule="nonzero"/><path fill="#e1a623" d="M 113.726562 44.558594 C 113.726562 44.558594 111.605469 44.933594 111.753906 42.371094 C 111.753906 42.371094 111.753906 44.785156 109.855469 44.632812 C 109.855469 44.632812 111.675781 44.632812 111.828125 46.515625 C 111.828125 46.515625 111.980469 44.632812 113.726562 44.558594 Z M 113.726562 44.558594 " fill-opacity="1" fill-rule="nonzero"/><g clip-path="url(#0b7c036f48)"><path fill="#e1a623" d="M 102.71875 121.769531 C 102.71875 121.769531 100.59375 122.148438 100.746094 119.585938 C 100.746094 119.585938 100.746094 121.996094 98.847656 121.847656 C 98.847656 121.847656 100.667969 121.847656 100.820312 123.730469 C 100.820312 123.730469 100.972656 121.839844 102.71875 121.769531 Z M 102.71875 121.769531 " fill-opacity="1" fill-rule="nonzero"/></g><path fill="#e1a623" d="M 124.296875 104.09375 C 124.296875 104.09375 122.171875 104.472656 122.324219 101.910156 C 122.324219 101.910156 122.324219 104.320312 120.425781 104.171875 C 120.425781 104.171875 122.246094 104.171875 122.398438 106.054688 C 122.398438 106.050781 122.550781 104.167969 124.296875 104.09375 Z M 124.296875 104.09375 " fill-opacity="1" fill-rule="nonzero"/><path fill="#ece8fc" d="M 123.714844 51.753906 C 123.714844 51.9375 123.679688 52.113281 123.609375 52.285156 C 123.539062 52.453125 123.4375 52.601562 123.308594 52.730469 C 123.175781 52.863281 123.027344 52.960938 122.855469 53.03125 C 122.6875 53.101562 122.507812 53.136719 122.324219 53.136719 C 122.136719 53.136719 121.960938 53.101562 121.789062 53.03125 C 121.621094 52.960938 121.46875 52.863281 121.339844 52.730469 C 121.207031 52.601562 121.105469 52.453125 121.035156 52.285156 C 120.964844 52.113281 120.929688 51.9375 120.929688 51.753906 C 120.929688 51.570312 120.964844 51.394531 121.035156 51.226562 C 121.105469 51.054688 121.207031 50.90625 121.339844 50.777344 C 121.46875 50.648438 121.621094 50.546875 121.789062 50.476562 C 121.960938 50.40625 122.136719 50.371094 122.324219 50.371094 C 122.507812 50.371094 122.6875 50.40625 122.855469 50.476562 C 123.027344 50.546875 123.175781 50.648438 123.308594 50.777344 C 123.4375 50.90625 123.539062 51.054688 123.609375 51.226562 C 123.679688 51.394531 123.714844 51.570312 123.714844 51.753906 Z M 123.714844 51.753906 " fill-opacity="1" fill-rule="nonzero"/><path fill="#ece8fc" d="M 48.722656 107.644531 C 48.765625 107.824219 48.769531 108.003906 48.742188 108.183594 C 48.710938 108.367188 48.648438 108.535156 48.550781 108.691406 C 48.453125 108.847656 48.332031 108.980469 48.183594 109.085938 C 48.03125 109.195312 47.867188 109.269531 47.6875 109.3125 C 47.507812 109.351562 47.328125 109.359375 47.144531 109.332031 C 46.960938 109.300781 46.792969 109.238281 46.636719 109.144531 C 46.476562 109.046875 46.34375 108.925781 46.238281 108.777344 C 46.128906 108.628906 46.054688 108.464844 46.011719 108.285156 C 45.96875 108.105469 45.960938 107.925781 45.992188 107.746094 C 46.019531 107.566406 46.082031 107.398438 46.179688 107.242188 C 46.277344 107.085938 46.398438 106.953125 46.550781 106.84375 C 46.699219 106.738281 46.863281 106.664062 47.042969 106.621094 C 47.222656 106.578125 47.40625 106.570312 47.585938 106.601562 C 47.769531 106.628906 47.9375 106.691406 48.097656 106.789062 C 48.253906 106.886719 48.386719 107.007812 48.496094 107.15625 C 48.601562 107.304688 48.679688 107.46875 48.722656 107.644531 Z M 48.722656 107.644531 " fill-opacity="1" fill-rule="nonzero"/><path fill="#ece8fc" d="M 113.105469 117.542969 C 113.148438 117.722656 113.15625 117.902344 113.125 118.082031 C 113.097656 118.261719 113.03125 118.429688 112.9375 118.585938 C 112.839844 118.742188 112.714844 118.875 112.566406 118.980469 C 112.417969 119.089844 112.25 119.164062 112.070312 119.207031 C 111.890625 119.25 111.710938 119.253906 111.527344 119.226562 C 111.347656 119.195312 111.175781 119.132812 111.019531 119.039062 C 110.863281 118.941406 110.730469 118.820312 110.621094 118.671875 C 110.511719 118.523438 110.4375 118.359375 110.394531 118.179688 C 110.351562 118 110.347656 117.820312 110.375 117.640625 C 110.40625 117.460938 110.46875 117.292969 110.566406 117.136719 C 110.660156 116.980469 110.785156 116.847656 110.933594 116.742188 C 111.085938 116.632812 111.25 116.558594 111.429688 116.515625 C 111.609375 116.472656 111.789062 116.46875 111.972656 116.496094 C 112.15625 116.527344 112.324219 116.589844 112.480469 116.683594 C 112.640625 116.78125 112.773438 116.902344 112.878906 117.050781 C 112.988281 117.199219 113.0625 117.363281 113.105469 117.542969 Z M 113.105469 117.542969 " fill-opacity="1" fill-rule="nonzero"/><path fill="#5a4984" d="M 64.640625 78.746094 C 64.535156 78.746094 64.433594 78.746094 64.328125 78.746094 C 64.175781 78.742188 64.101562 78.664062 64.105469 78.511719 C 64.109375 78.359375 64.1875 78.285156 64.339844 78.289062 C 64.792969 78.300781 65.246094 78.285156 65.699219 78.242188 C 65.851562 78.230469 65.933594 78.296875 65.949219 78.449219 C 65.960938 78.601562 65.894531 78.683594 65.738281 78.699219 C 65.378906 78.726562 65.007812 78.746094 64.640625 78.746094 Z M 62.960938 78.621094 L 62.925781 78.621094 C 62.457031 78.550781 61.996094 78.453125 61.542969 78.328125 C 61.394531 78.285156 61.339844 78.191406 61.382812 78.046875 C 61.425781 77.898438 61.519531 77.84375 61.667969 77.886719 C 62.101562 78.007812 62.546875 78.101562 62.992188 78.167969 C 63.136719 78.183594 63.207031 78.265625 63.195312 78.410156 C 63.183594 78.554688 63.105469 78.625 62.960938 78.621094 Z M 67.085938 78.480469 C 66.949219 78.480469 66.871094 78.414062 66.855469 78.277344 C 66.839844 78.140625 66.902344 78.058594 67.035156 78.027344 C 67.476562 77.929688 67.90625 77.804688 68.332031 77.65625 C 68.394531 77.628906 68.453125 77.628906 68.515625 77.65625 C 68.578125 77.679688 68.621094 77.726562 68.644531 77.789062 C 68.667969 77.851562 68.664062 77.914062 68.632812 77.972656 C 68.601562 78.03125 68.550781 78.070312 68.488281 78.089844 C 68.042969 78.246094 67.589844 78.375 67.128906 78.476562 C 67.117188 78.476562 67.105469 78.480469 67.09375 78.480469 Z M 60.296875 77.882812 C 60.265625 77.882812 60.238281 77.878906 60.207031 77.863281 C 59.777344 77.683594 59.355469 77.476562 58.949219 77.246094 C 58.828125 77.167969 58.800781 77.066406 58.875 76.9375 C 58.949219 76.8125 59.050781 76.78125 59.179688 76.847656 C 59.574219 77.070312 59.976562 77.269531 60.394531 77.445312 C 60.511719 77.492188 60.558594 77.578125 60.535156 77.699219 C 60.507812 77.824219 60.433594 77.882812 60.304688 77.882812 Z M 69.6875 77.566406 C 69.566406 77.570312 69.492188 77.511719 69.460938 77.394531 C 69.433594 77.277344 69.472656 77.191406 69.582031 77.136719 C 69.988281 76.933594 70.378906 76.710938 70.753906 76.460938 C 70.882812 76.375 70.988281 76.394531 71.074219 76.523438 C 71.160156 76.648438 71.140625 76.757812 71.011719 76.839844 C 70.617188 77.097656 70.210938 77.332031 69.792969 77.542969 C 69.757812 77.558594 69.722656 77.566406 69.6875 77.566406 Z M 57.898438 76.53125 C 57.847656 76.53125 57.800781 76.515625 57.761719 76.484375 C 57.382812 76.203125 57.023438 75.902344 56.683594 75.578125 C 56.570312 75.472656 56.566406 75.363281 56.671875 75.25 C 56.78125 75.136719 56.890625 75.132812 57.003906 75.238281 C 57.328125 75.550781 57.671875 75.84375 58.035156 76.117188 C 58.125 76.183594 58.152344 76.269531 58.117188 76.375 C 58.082031 76.480469 58.007812 76.53125 57.898438 76.53125 Z M 71.984375 76.046875 C 71.878906 76.050781 71.804688 76 71.765625 75.898438 C 71.730469 75.800781 71.753906 75.714844 71.835938 75.644531 C 72.175781 75.351562 72.5 75.039062 72.804688 74.707031 C 72.90625 74.59375 73.015625 74.589844 73.128906 74.691406 C 73.242188 74.796875 73.25 74.902344 73.144531 75.015625 C 72.828125 75.363281 72.492188 75.6875 72.136719 75.992188 C 72.089844 76.027344 72.039062 76.042969 71.984375 76.042969 Z M 55.90625 74.625 C 55.832031 74.625 55.773438 74.59375 55.730469 74.539062 C 55.429688 74.175781 55.15625 73.796875 54.90625 73.402344 C 54.839844 73.277344 54.867188 73.175781 54.988281 73.101562 C 55.109375 73.027344 55.210938 73.046875 55.296875 73.160156 C 55.539062 73.539062 55.800781 73.902344 56.085938 74.25 C 56.148438 74.324219 56.160156 74.40625 56.117188 74.492188 C 56.078125 74.582031 56.007812 74.625 55.910156 74.625 Z M 73.839844 74.011719 C 73.792969 74.011719 73.75 74 73.707031 73.96875 C 73.582031 73.882812 73.5625 73.777344 73.652344 73.652344 C 73.914062 73.285156 74.148438 72.902344 74.363281 72.507812 C 74.433594 72.371094 74.539062 72.339844 74.675781 72.414062 C 74.808594 72.488281 74.839844 72.589844 74.765625 72.726562 C 74.542969 73.136719 74.296875 73.535156 74.023438 73.914062 C 73.980469 73.980469 73.917969 74.011719 73.839844 74.011719 Z M 54.4375 72.296875 C 54.339844 72.296875 54.269531 72.253906 54.226562 72.167969 C 54.027344 71.742188 53.855469 71.308594 53.710938 70.863281 C 53.660156 70.71875 53.710938 70.621094 53.855469 70.574219 C 54.003906 70.527344 54.101562 70.574219 54.148438 70.71875 C 54.289062 71.148438 54.453125 71.5625 54.644531 71.972656 C 54.710938 72.109375 54.675781 72.210938 54.535156 72.277344 C 54.503906 72.289062 54.472656 72.296875 54.4375 72.296875 Z M 75.144531 71.59375 C 75.066406 71.59375 75 71.5625 74.957031 71.496094 C 74.910156 71.429688 74.902344 71.359375 74.929688 71.285156 C 75.09375 70.863281 75.230469 70.4375 75.339844 70 C 75.378906 69.851562 75.472656 69.796875 75.621094 69.835938 C 75.769531 69.871094 75.824219 69.964844 75.789062 70.113281 C 75.671875 70.566406 75.53125 71.011719 75.363281 71.449219 C 75.324219 71.546875 75.25 71.59375 75.148438 71.59375 Z M 53.582031 69.699219 C 53.460938 69.699219 53.382812 69.640625 53.355469 69.523438 C 53.269531 69.0625 53.210938 68.597656 53.179688 68.132812 C 53.167969 67.980469 53.242188 67.898438 53.394531 67.886719 C 53.546875 67.878906 53.628906 67.949219 53.640625 68.101562 C 53.671875 68.550781 53.730469 68.992188 53.816406 69.433594 C 53.847656 69.582031 53.789062 69.671875 53.640625 69.703125 C 53.621094 69.703125 53.601562 69.703125 53.582031 69.699219 Z M 75.820312 68.9375 L 75.789062 68.9375 C 75.636719 68.917969 75.570312 68.832031 75.589844 68.683594 C 75.644531 68.238281 75.671875 67.789062 75.671875 67.339844 C 75.671875 67.3125 75.675781 67.28125 75.6875 67.257812 C 75.675781 67.230469 75.671875 67.203125 75.667969 67.171875 C 75.664062 66.722656 75.628906 66.277344 75.566406 65.832031 C 75.554688 65.769531 75.566406 65.707031 75.605469 65.652344 C 75.644531 65.597656 75.695312 65.566406 75.761719 65.558594 C 75.828125 65.550781 75.890625 65.566406 75.941406 65.609375 C 75.992188 65.652344 76.019531 65.703125 76.027344 65.773438 C 76.089844 66.234375 76.125 66.699219 76.132812 67.167969 C 76.132812 67.199219 76.125 67.226562 76.117188 67.253906 C 76.128906 67.28125 76.132812 67.308594 76.132812 67.339844 C 76.132812 67.808594 76.105469 68.273438 76.046875 68.738281 C 76.03125 68.871094 75.953125 68.9375 75.820312 68.9375 Z M 53.394531 66.964844 L 53.382812 66.964844 C 53.226562 66.957031 53.15625 66.875 53.164062 66.722656 C 53.191406 66.253906 53.242188 65.792969 53.324219 65.332031 C 53.351562 65.179688 53.441406 65.121094 53.59375 65.144531 C 53.742188 65.171875 53.804688 65.261719 53.777344 65.410156 C 53.699219 65.851562 53.648438 66.296875 53.625 66.746094 C 53.617188 66.890625 53.539062 66.964844 53.394531 66.964844 Z M 75.519531 64.679688 C 75.398438 64.679688 75.324219 64.621094 75.296875 64.503906 C 75.179688 64.070312 75.039062 63.644531 74.867188 63.230469 C 74.816406 63.089844 74.859375 62.992188 74.996094 62.9375 C 75.132812 62.878906 75.234375 62.917969 75.296875 63.054688 C 75.472656 63.492188 75.625 63.9375 75.746094 64.390625 C 75.785156 64.539062 75.730469 64.632812 75.582031 64.671875 C 75.5625 64.679688 75.542969 64.683594 75.523438 64.683594 Z M 53.878906 64.265625 C 53.855469 64.265625 53.832031 64.261719 53.808594 64.253906 C 53.664062 64.210938 53.613281 64.113281 53.65625 63.96875 C 53.796875 63.523438 53.964844 63.085938 54.15625 62.65625 C 54.21875 62.519531 54.320312 62.480469 54.460938 62.542969 C 54.601562 62.605469 54.640625 62.707031 54.578125 62.84375 C 54.390625 63.253906 54.234375 63.675781 54.097656 64.105469 C 54.066406 64.210938 53.992188 64.265625 53.878906 64.265625 Z M 74.488281 62.144531 C 74.398438 62.144531 74.332031 62.101562 74.289062 62.023438 C 74.066406 61.632812 73.824219 61.253906 73.558594 60.894531 C 73.515625 60.84375 73.496094 60.785156 73.503906 60.714844 C 73.511719 60.648438 73.542969 60.597656 73.597656 60.558594 C 73.652344 60.519531 73.710938 60.503906 73.777344 60.515625 C 73.84375 60.53125 73.894531 60.566406 73.929688 60.621094 C 74.210938 61 74.460938 61.394531 74.691406 61.804688 C 74.765625 61.9375 74.738281 62.039062 74.601562 62.113281 C 74.566406 62.132812 74.53125 62.144531 74.488281 62.144531 Z M 55.019531 61.765625 C 54.976562 61.765625 54.9375 61.753906 54.898438 61.734375 C 54.765625 61.652344 54.742188 61.546875 54.824219 61.417969 C 55.066406 61.015625 55.335938 60.632812 55.628906 60.265625 C 55.726562 60.179688 55.824219 60.175781 55.925781 60.257812 C 56.027344 60.339844 56.046875 60.4375 55.980469 60.550781 C 55.703125 60.902344 55.441406 61.273438 55.207031 61.65625 C 55.164062 61.726562 55.097656 61.765625 55.011719 61.765625 Z M 72.863281 59.929688 C 72.796875 59.929688 72.738281 59.90625 72.695312 59.855469 C 72.386719 59.527344 72.054688 59.21875 71.707031 58.933594 C 71.652344 58.894531 71.621094 58.839844 71.613281 58.773438 C 71.605469 58.707031 71.621094 58.648438 71.664062 58.597656 C 71.710938 58.546875 71.765625 58.519531 71.832031 58.515625 C 71.898438 58.511719 71.957031 58.535156 72.003906 58.582031 C 72.367188 58.882812 72.707031 59.203125 73.03125 59.542969 C 73.136719 59.65625 73.132812 59.761719 73.019531 59.867188 C 72.976562 59.90625 72.921875 59.929688 72.863281 59.929688 Z M 56.726562 59.617188 C 56.660156 59.617188 56.605469 59.59375 56.5625 59.546875 C 56.453125 59.4375 56.453125 59.332031 56.5625 59.222656 C 56.894531 58.894531 57.25 58.585938 57.621094 58.300781 C 57.746094 58.207031 57.851562 58.222656 57.945312 58.34375 C 58.039062 58.464844 58.027344 58.570312 57.902344 58.664062 C 57.546875 58.9375 57.207031 59.230469 56.882812 59.542969 C 56.839844 59.585938 56.789062 59.613281 56.726562 59.617188 Z M 70.742188 58.171875 C 70.695312 58.171875 70.65625 58.160156 70.617188 58.136719 C 70.238281 57.890625 69.84375 57.671875 69.4375 57.476562 C 69.3125 57.40625 69.28125 57.304688 69.34375 57.175781 C 69.40625 57.050781 69.503906 57.011719 69.636719 57.0625 C 70.066406 57.265625 70.476562 57.496094 70.875 57.75 C 70.976562 57.8125 71.007812 57.898438 70.972656 58.007812 C 70.941406 58.117188 70.867188 58.171875 70.75 58.171875 Z M 58.910156 57.941406 C 58.796875 57.941406 58.722656 57.882812 58.691406 57.773438 C 58.660156 57.660156 58.695312 57.574219 58.792969 57.515625 C 59.199219 57.277344 59.617188 57.0625 60.050781 56.878906 C 60.183594 56.832031 60.28125 56.875 60.335938 57.003906 C 60.394531 57.132812 60.359375 57.230469 60.234375 57.296875 C 59.820312 57.476562 59.417969 57.679688 59.03125 57.910156 C 58.992188 57.929688 58.953125 57.941406 58.910156 57.941406 Z M 68.253906 56.976562 C 68.230469 56.976562 68.203125 56.972656 68.179688 56.964844 C 67.753906 56.820312 67.316406 56.703125 66.871094 56.613281 C 66.722656 56.582031 66.664062 56.492188 66.695312 56.34375 C 66.726562 56.195312 66.816406 56.132812 66.964844 56.164062 C 67.429688 56.257812 67.882812 56.382812 68.328125 56.53125 C 68.457031 56.570312 68.507812 56.65625 68.488281 56.785156 C 68.464844 56.917969 68.386719 56.980469 68.253906 56.976562 Z M 61.441406 56.839844 C 61.308594 56.839844 61.230469 56.773438 61.210938 56.644531 C 61.191406 56.511719 61.246094 56.425781 61.378906 56.390625 C 61.828125 56.257812 62.289062 56.152344 62.753906 56.078125 C 62.90625 56.050781 62.992188 56.113281 63.019531 56.265625 C 63.042969 56.417969 62.980469 56.503906 62.828125 56.527344 C 62.382812 56.605469 61.941406 56.707031 61.507812 56.839844 C 61.484375 56.839844 61.464844 56.839844 61.441406 56.839844 Z M 65.550781 56.417969 L 65.53125 56.417969 C 65.082031 56.382812 64.628906 56.375 64.175781 56.394531 C 64.035156 56.390625 63.960938 56.316406 63.953125 56.171875 C 63.949219 56.03125 64.015625 55.953125 64.15625 55.933594 C 64.628906 55.914062 65.101562 55.925781 65.574219 55.960938 C 65.714844 55.976562 65.785156 56.058594 65.777344 56.199219 C 65.773438 56.339844 65.699219 56.414062 65.554688 56.421875 Z M 65.550781 56.417969 " fill-opacity="1" fill-rule="nonzero"/><path fill="#5a4984" d="M 83.882812 114.089844 L 83.597656 114.089844 L 83.597656 113.808594 C 83.597656 113.589844 83.519531 113.402344 83.363281 113.246094 C 83.207031 113.089844 83.015625 113.011719 82.792969 113.011719 C 82.570312 113.011719 82.382812 113.089844 82.226562 113.246094 C 82.070312 113.402344 81.992188 113.589844 81.992188 113.808594 L 81.992188 114.089844 L 81.707031 114.089844 C 81.484375 114.089844 81.292969 114.167969 81.136719 114.324219 C 80.980469 114.480469 80.902344 114.667969 80.902344 114.890625 C 80.902344 115.109375 80.980469 115.296875 81.136719 115.453125 C 81.292969 115.609375 81.484375 115.6875 81.707031 115.6875 L 81.992188 115.6875 L 81.992188 115.96875 C 81.992188 116.191406 82.070312 116.378906 82.226562 116.535156 C 82.382812 116.6875 82.570312 116.765625 82.792969 116.765625 C 83.015625 116.765625 83.207031 116.6875 83.363281 116.535156 C 83.519531 116.378906 83.597656 116.191406 83.597656 115.96875 L 83.597656 115.691406 L 83.882812 115.691406 C 84.105469 115.691406 84.296875 115.613281 84.453125 115.457031 C 84.609375 115.300781 84.6875 115.113281 84.6875 114.894531 C 84.6875 114.671875 84.609375 114.484375 84.453125 114.328125 C 84.296875 114.171875 84.105469 114.09375 83.882812 114.09375 Z M 83.882812 114.089844 " fill-opacity="1" fill-rule="nonzero"/><path fill="#5a4984" d="M 95.144531 41.984375 L 94.859375 41.984375 L 94.859375 41.703125 C 94.859375 41.480469 94.78125 41.292969 94.625 41.140625 C 94.46875 40.984375 94.277344 40.90625 94.054688 40.90625 C 93.835938 40.90625 93.644531 40.984375 93.488281 41.140625 C 93.332031 41.292969 93.253906 41.480469 93.253906 41.703125 L 93.253906 41.984375 L 92.96875 41.984375 C 92.753906 41.996094 92.570312 42.078125 92.421875 42.230469 C 92.273438 42.386719 92.199219 42.570312 92.199219 42.785156 C 92.199219 42.996094 92.273438 43.179688 92.421875 43.335938 C 92.570312 43.488281 92.753906 43.570312 92.96875 43.582031 L 93.253906 43.582031 L 93.253906 43.863281 C 93.253906 44.085938 93.332031 44.273438 93.488281 44.425781 C 93.644531 44.582031 93.835938 44.660156 94.054688 44.660156 C 94.277344 44.660156 94.46875 44.582031 94.625 44.425781 C 94.78125 44.273438 94.859375 44.085938 94.859375 43.863281 L 94.859375 43.582031 L 95.144531 43.582031 C 95.359375 43.570312 95.542969 43.488281 95.691406 43.335938 C 95.839844 43.179688 95.914062 42.996094 95.914062 42.785156 C 95.914062 42.570312 95.839844 42.386719 95.691406 42.230469 C 95.542969 42.078125 95.359375 41.996094 95.144531 41.984375 Z M 95.144531 41.984375 " fill-opacity="1" fill-rule="nonzero"/><path fill="#5a4984" d="M 107.78125 57.480469 L 107.664062 56.441406 C 107.644531 56.292969 107.601562 56.152344 107.527344 56.023438 C 107.453125 55.890625 107.359375 55.78125 107.242188 55.6875 C 107.125 55.59375 106.992188 55.527344 106.847656 55.488281 C 106.703125 55.445312 106.558594 55.433594 106.40625 55.453125 L 63.289062 60.398438 C 62.894531 60.445312 62.507812 60.527344 62.132812 60.648438 C 61.753906 60.765625 61.390625 60.921875 61.042969 61.113281 C 60.699219 61.304688 60.375 61.527344 60.070312 61.78125 C 59.769531 62.035156 59.492188 62.316406 59.246094 62.625 C 59 62.933594 58.785156 63.265625 58.605469 63.613281 C 58.425781 63.964844 58.28125 64.328125 58.171875 64.707031 C 58.0625 65.085938 57.992188 65.472656 57.957031 65.863281 C 57.925781 66.253906 57.933594 66.648438 57.980469 67.039062 L 61.695312 98.894531 C 61.742188 99.285156 61.824219 99.667969 61.945312 100.042969 C 62.066406 100.417969 62.222656 100.777344 62.414062 101.121094 C 62.605469 101.464844 62.832031 101.789062 63.089844 102.085938 C 63.34375 102.386719 63.628906 102.660156 63.9375 102.90625 C 64.25 103.148438 64.582031 103.363281 64.933594 103.542969 C 65.285156 103.722656 65.652344 103.867188 66.035156 103.972656 C 66.417969 104.082031 66.804688 104.152344 67.199219 104.183594 C 67.597656 104.214844 67.992188 104.210938 68.382812 104.164062 L 111.316406 99.246094 C 111.710938 99.199219 112.097656 99.117188 112.476562 98.996094 C 112.851562 98.875 113.214844 98.722656 113.5625 98.53125 C 113.90625 98.339844 114.234375 98.117188 114.535156 97.859375 C 114.835938 97.605469 115.113281 97.324219 115.359375 97.015625 C 115.605469 96.707031 115.820312 96.378906 116 96.027344 C 116.179688 95.679688 116.328125 95.3125 116.433594 94.9375 C 116.542969 94.558594 116.613281 94.171875 116.648438 93.78125 C 116.679688 93.386719 116.671875 92.996094 116.628906 92.605469 L 113.167969 62.914062 C 113.152344 62.765625 113.105469 62.625 113.03125 62.492188 C 112.953125 62.359375 112.855469 62.246094 112.734375 62.15625 C 112.617188 62.0625 112.480469 61.996094 112.332031 61.957031 C 112.1875 61.917969 112.035156 61.910156 111.886719 61.929688 L 111.753906 61.949219 C 111.605469 61.972656 111.453125 61.960938 111.308594 61.925781 C 111.160156 61.886719 111.023438 61.820312 110.902344 61.726562 C 110.785156 61.632812 110.683594 61.523438 110.609375 61.390625 C 110.535156 61.257812 110.488281 61.117188 110.472656 60.964844 L 110.292969 59.464844 C 110.277344 59.320312 110.230469 59.179688 110.160156 59.050781 C 110.085938 58.917969 109.988281 58.808594 109.871094 58.714844 C 109.753906 58.625 109.625 58.558594 109.480469 58.515625 C 109.335938 58.476562 109.1875 58.464844 109.039062 58.480469 C 108.890625 58.5 108.742188 58.484375 108.597656 58.445312 C 108.449219 58.402344 108.320312 58.335938 108.199219 58.242188 C 108.082031 58.148438 107.988281 58.035156 107.914062 57.902344 C 107.84375 57.769531 107.796875 57.628906 107.78125 57.480469 Z M 107.78125 57.480469 " fill-opacity="1" fill-rule="nonzero"/><path fill="#f7c469" d="M 113.9375 70.167969 L 114.28125 73.105469 L 102.917969 74.40625 C 102.480469 74.457031 102.054688 74.546875 101.636719 74.679688 C 101.222656 74.8125 100.820312 74.984375 100.4375 75.199219 C 100.054688 75.410156 99.695312 75.65625 99.363281 75.9375 C 99.027344 76.21875 98.726562 76.53125 98.453125 76.871094 C 98.179688 77.210938 97.945312 77.574219 97.746094 77.960938 C 97.542969 78.347656 97.382812 78.75 97.265625 79.167969 C 97.144531 79.589844 97.066406 80.015625 97.03125 80.449219 C 96.996094 80.882812 97.003906 81.3125 97.054688 81.746094 C 97.101562 82.179688 97.195312 82.601562 97.328125 83.015625 C 97.464844 83.429688 97.636719 83.828125 97.851562 84.207031 C 98.0625 84.585938 98.3125 84.941406 98.597656 85.273438 C 98.878906 85.605469 99.195312 85.90625 99.535156 86.175781 C 99.878906 86.445312 100.246094 86.679688 100.636719 86.878906 C 101.027344 87.078125 101.433594 87.238281 101.855469 87.355469 C 102.277344 87.476562 102.703125 87.550781 103.140625 87.589844 C 103.578125 87.625 104.015625 87.617188 104.449219 87.566406 L 115.8125 86.261719 L 117.273438 86.085938 C 117.613281 86.046875 117.933594 85.945312 118.234375 85.78125 C 118.53125 85.617188 118.789062 85.398438 119 85.132812 C 119.214844 84.867188 119.367188 84.570312 119.460938 84.246094 C 119.554688 83.917969 119.582031 83.585938 119.539062 83.246094 L 118.257812 72.242188 C 118.21875 71.902344 118.117188 71.585938 117.953125 71.289062 C 117.785156 70.992188 117.566406 70.738281 117.300781 70.527344 C 117.03125 70.316406 116.730469 70.164062 116.402344 70.070312 C 116.074219 69.980469 115.738281 69.953125 115.398438 69.992188 Z M 113.9375 70.167969 " fill-opacity="1" fill-rule="nonzero"/><path fill="#ffffff" d="M 106.933594 79.792969 C 107.074219 80.160156 107.132812 80.539062 107.117188 80.929688 C 107.105469 81.324219 107.015625 81.695312 106.847656 82.054688 C 106.683594 82.410156 106.457031 82.722656 106.167969 82.988281 C 105.878906 83.253906 105.546875 83.457031 105.175781 83.59375 C 104.804688 83.726562 104.425781 83.789062 104.027344 83.773438 C 103.632812 83.757812 103.257812 83.667969 102.898438 83.507812 C 102.539062 83.34375 102.226562 83.117188 101.957031 82.828125 C 101.6875 82.542969 101.484375 82.214844 101.347656 81.847656 C 101.210938 81.480469 101.148438 81.097656 101.164062 80.707031 C 101.179688 80.316406 101.269531 79.941406 101.433594 79.585938 C 101.601562 79.230469 101.828125 78.917969 102.117188 78.652344 C 102.40625 78.382812 102.738281 78.183594 103.105469 78.046875 C 103.476562 77.910156 103.859375 77.851562 104.253906 77.863281 C 104.648438 77.878906 105.027344 77.96875 105.386719 78.132812 C 105.746094 78.296875 106.058594 78.523438 106.328125 78.808594 C 106.59375 79.097656 106.796875 79.425781 106.933594 79.792969 Z M 106.933594 79.792969 " fill-opacity="1" fill-rule="nonzero"/><path fill="#ece8fc" d="M 111.875 61.917969 L 111.742188 61.9375 C 111.589844 61.957031 111.441406 61.949219 111.292969 61.910156 C 111.148438 61.871094 111.011719 61.804688 110.890625 61.714844 C 110.769531 61.621094 110.671875 61.507812 110.597656 61.375 C 110.523438 61.246094 110.476562 61.101562 110.460938 60.953125 L 110.425781 60.65625 L 61.429688 65.296875 C 61.429688 65.296875 61.117188 68.308594 64.328125 68.0625 C 67.539062 67.8125 113.160156 62.902344 113.160156 62.902344 C 113.144531 62.75 113.097656 62.609375 113.023438 62.476562 C 112.945312 62.34375 112.847656 62.230469 112.726562 62.136719 C 112.605469 62.046875 112.472656 61.980469 112.324219 61.941406 C 112.175781 61.902344 112.023438 61.894531 111.875 61.917969 Z M 111.875 61.917969 " fill-opacity="1" fill-rule="nonzero"/><path fill="#ffffff" d="M 110.597656 61.359375 C 110.527344 61.234375 110.484375 61.097656 110.464844 60.953125 L 110.289062 59.453125 C 110.273438 59.304688 110.226562 59.164062 110.152344 59.035156 C 110.078125 58.90625 109.984375 58.792969 109.867188 58.703125 C 109.75 58.609375 109.617188 58.542969 109.472656 58.503906 C 109.328125 58.460938 109.183594 58.449219 109.035156 58.46875 C 108.710938 58.503906 108.421875 58.417969 108.175781 58.207031 L 62.949219 63.394531 C 62.722656 63.421875 62.507812 63.492188 62.308594 63.601562 C 62.105469 63.710938 61.933594 63.855469 61.792969 64.035156 C 61.648438 64.210938 61.546875 64.410156 61.484375 64.628906 C 61.421875 64.847656 61.402344 65.070312 61.429688 65.296875 C 61.457031 65.523438 61.523438 65.734375 61.636719 65.933594 C 61.746094 66.132812 61.894531 66.304688 62.074219 66.445312 C 62.253906 66.585938 62.453125 66.6875 62.671875 66.75 C 62.894531 66.8125 63.117188 66.832031 63.34375 66.804688 L 110.339844 61.40625 C 110.425781 61.398438 110.511719 61.382812 110.597656 61.359375 Z M 110.597656 61.359375 " fill-opacity="1" fill-rule="nonzero"/><path fill="#e1a623" d="M 73.144531 85.921875 C 73.6875 86.113281 74.199219 86.367188 74.683594 86.683594 C 75.167969 87.003906 75.613281 87.375 76.019531 87.804688 C 76.429688 88.238281 76.792969 88.714844 77.109375 89.242188 C 77.425781 89.769531 77.691406 90.335938 77.90625 90.941406 C 78.121094 91.546875 78.277344 92.175781 78.378906 92.835938 C 78.480469 93.492188 78.527344 94.164062 78.511719 94.851562 C 78.5 95.535156 78.429688 96.222656 78.300781 96.910156 C 78.171875 97.597656 77.988281 98.273438 77.75 98.9375 C 77.511719 99.601562 77.226562 100.238281 76.886719 100.851562 C 76.546875 101.464844 76.164062 102.042969 75.738281 102.582031 C 75.308594 103.121094 74.847656 103.613281 74.347656 104.058594 C 73.851562 104.503906 73.324219 104.894531 72.773438 105.226562 C 72.222656 105.5625 71.65625 105.832031 71.074219 106.042969 C 70.492188 106.253906 69.90625 106.394531 69.316406 106.472656 C 68.726562 106.550781 68.140625 106.558594 67.566406 106.5 C 66.988281 106.441406 66.429688 106.320312 65.890625 106.128906 C 65.347656 105.9375 64.835938 105.683594 64.351562 105.363281 C 63.867188 105.046875 63.421875 104.675781 63.015625 104.242188 C 62.605469 103.8125 62.242188 103.332031 61.925781 102.804688 C 61.609375 102.277344 61.34375 101.710938 61.128906 101.109375 C 60.914062 100.503906 60.757812 99.871094 60.65625 99.214844 C 60.550781 98.558594 60.507812 97.886719 60.519531 97.199219 C 60.535156 96.511719 60.605469 95.828125 60.734375 95.136719 C 60.863281 94.449219 61.042969 93.773438 61.28125 93.113281 C 61.519531 92.449219 61.808594 91.808594 62.148438 91.195312 C 62.488281 90.582031 62.871094 90.007812 63.296875 89.46875 C 63.726562 88.925781 64.1875 88.433594 64.6875 87.988281 C 65.183594 87.542969 65.710938 87.15625 66.261719 86.820312 C 66.8125 86.488281 67.378906 86.214844 67.960938 86.007812 C 68.542969 85.796875 69.128906 85.652344 69.71875 85.578125 C 70.308594 85.5 70.894531 85.488281 71.46875 85.546875 C 72.046875 85.605469 72.605469 85.730469 73.144531 85.921875 Z M 73.144531 85.921875 " fill-opacity="1" fill-rule="nonzero"/><path fill="#f7c469" d="M 71.867188 85.394531 C 72.40625 85.585938 72.917969 85.839844 73.402344 86.15625 C 73.886719 86.472656 74.332031 86.847656 74.742188 87.277344 C 75.148438 87.707031 75.511719 88.1875 75.828125 88.714844 C 76.148438 89.242188 76.414062 89.808594 76.625 90.414062 C 76.839844 91.019531 76.996094 91.648438 77.101562 92.308594 C 77.203125 92.964844 77.246094 93.636719 77.234375 94.324219 C 77.222656 95.007812 77.148438 95.695312 77.023438 96.382812 C 76.894531 97.070312 76.710938 97.746094 76.472656 98.410156 C 76.234375 99.074219 75.945312 99.710938 75.605469 100.324219 C 75.265625 100.9375 74.882812 101.515625 74.457031 102.054688 C 74.03125 102.59375 73.566406 103.085938 73.070312 103.53125 C 72.570312 103.976562 72.046875 104.367188 71.496094 104.699219 C 70.945312 105.035156 70.378906 105.304688 69.796875 105.515625 C 69.214844 105.726562 68.628906 105.867188 68.035156 105.945312 C 67.445312 106.023438 66.863281 106.03125 66.285156 105.972656 C 65.707031 105.914062 65.148438 105.789062 64.609375 105.597656 C 64.070312 105.40625 63.554688 105.152344 63.074219 104.835938 C 62.589844 104.519531 62.144531 104.144531 61.734375 103.714844 C 61.324219 103.285156 60.964844 102.804688 60.644531 102.277344 C 60.328125 101.75 60.0625 101.183594 59.847656 100.582031 C 59.636719 99.976562 59.476562 99.34375 59.375 98.6875 C 59.273438 98.027344 59.226562 97.355469 59.242188 96.671875 C 59.253906 95.984375 59.324219 95.296875 59.453125 94.609375 C 59.582031 93.921875 59.765625 93.246094 60.003906 92.582031 C 60.242188 91.921875 60.53125 91.28125 60.871094 90.667969 C 61.207031 90.054688 61.589844 89.480469 62.019531 88.9375 C 62.445312 88.398438 62.910156 87.90625 63.40625 87.460938 C 63.90625 87.015625 64.429688 86.628906 64.980469 86.292969 C 65.53125 85.960938 66.097656 85.6875 66.679688 85.476562 C 67.261719 85.269531 67.847656 85.125 68.4375 85.046875 C 69.03125 84.972656 69.613281 84.960938 70.191406 85.019531 C 70.765625 85.078125 71.324219 85.203125 71.867188 85.394531 Z M 71.867188 85.394531 " fill-opacity="1" fill-rule="nonzero"/><path fill="#e1a623" d="M 70.574219 87.328125 C 70.988281 87.464844 71.386719 87.648438 71.761719 87.886719 C 72.136719 88.125 72.480469 88.40625 72.800781 88.738281 C 73.117188 89.070312 73.402344 89.441406 73.648438 89.851562 C 73.898438 90.261719 74.109375 90.707031 74.277344 91.183594 C 74.449219 91.660156 74.578125 92.160156 74.660156 92.679688 C 74.746094 93.203125 74.789062 93.742188 74.785156 94.289062 C 74.78125 94.839844 74.734375 95.390625 74.640625 95.945312 C 74.550781 96.5 74.414062 97.046875 74.238281 97.585938 C 74.0625 98.125 73.847656 98.644531 73.59375 99.148438 C 73.335938 99.648438 73.050781 100.121094 72.726562 100.570312 C 72.402344 101.015625 72.054688 101.425781 71.675781 101.796875 C 71.296875 102.171875 70.894531 102.5 70.476562 102.785156 C 70.054688 103.070312 69.625 103.308594 69.179688 103.496094 C 68.734375 103.683594 68.285156 103.816406 67.832031 103.898438 C 67.378906 103.980469 66.929688 104.007812 66.484375 103.980469 C 66.042969 103.953125 65.613281 103.871094 65.195312 103.738281 C 64.777344 103.601562 64.382812 103.417969 64.007812 103.179688 C 63.632812 102.941406 63.285156 102.660156 62.96875 102.328125 C 62.648438 101.996094 62.367188 101.625 62.117188 101.214844 C 61.867188 100.804688 61.65625 100.359375 61.488281 99.882812 C 61.316406 99.40625 61.191406 98.90625 61.105469 98.386719 C 61.019531 97.863281 60.980469 97.328125 60.984375 96.777344 C 60.984375 96.226562 61.035156 95.675781 61.125 95.121094 C 61.21875 94.566406 61.351562 94.019531 61.527344 93.480469 C 61.703125 92.941406 61.921875 92.421875 62.175781 91.921875 C 62.429688 91.417969 62.71875 90.945312 63.039062 90.496094 C 63.363281 90.050781 63.714844 89.640625 64.09375 89.269531 C 64.472656 88.894531 64.871094 88.566406 65.289062 88.28125 C 65.710938 87.996094 66.144531 87.757812 66.589844 87.570312 C 67.035156 87.382812 67.484375 87.25 67.9375 87.167969 C 68.390625 87.085938 68.835938 87.058594 69.28125 87.085938 C 69.726562 87.113281 70.15625 87.195312 70.574219 87.328125 Z M 70.574219 87.328125 " fill-opacity="1" fill-rule="nonzero"/></svg>